PlusJakartaSans-ExtraBold.ufo
<glyph name="exclam" format="2">
  <advance width="400"/>
  <unicode hex="0021"/>
  <outline>
    <contour>
      <point x="265" y="230" type="line"/>
      <point x="275" y="745" type="line"/>
      <point x="125" y="745" type="line"/>
      <point x="135" y="230" type="line"/>
    </contour>
    <contour>
      <point x="275" y="0" type="line"/>
      <point x="275" y="150" type="line"/>
      <point x="125" y="150" type="line"/>
      <point x="125" y="0" type="line"/>
    </contour>
  </outline>
</glyph>
<glyph name="quotedbl" format="2">
  <advance width="532"/>
  <unicode hex="0022"/>
  <outline>
    <contour>
      <point x="214" y="440" type="line"/>
      <point x="231" y="745" type="line"/>
      <point x="101" y="745" type="line"/>
      <point x="119" y="440" type="line"/>
    </contour>
    <contour>
      <point x="413" y="440" type="line"/>
      <point x="430" y="745" type="line"/>
      <point x="300" y="745" type="line"/>
      <point x="318" y="440" type="line"/>
    </contour>
  </outline>
</glyph>
<glyph name="numbersign" format="2">
  <advance width="956"/>
  <unicode hex="0023"/>
  <outline>
    <contour>
      <point x="296" y="0" type="line"/>
      <point x="340" y="153" type="line"/>
      <point x="489" y="153" type="line"/>
      <point x="446" y="0" type="line"/>
      <point x="596" y="0" type="line"/>
      <point x="639" y="153" type="line"/>
      <point x="797" y="153" type="line"/>
      <point x="797" y="283" type="line"/>
      <point x="677" y="283" type="line"/>
      <point x="728" y="463" type="line"/>
      <point x="886" y="463" type="line"/>
      <point x="886" y="593" type="line"/>
      <point x="766" y="593" type="line"/>
      <point x="809" y="745" type="line"/>
      <point x="659" y="745" type="line"/>
      <point x="616" y="593" type="line"/>
      <point x="466" y="593" type="line"/>
      <point x="510" y="745" type="line"/>
      <point x="360" y="745" type="line"/>
      <point x="316" y="593" type="line"/>
      <point x="159" y="593" type="line"/>
      <point x="159" y="463" type="line"/>
      <point x="279" y="463" type="line"/>
      <point x="227" y="283" type="line"/>
      <point x="70" y="283" type="line"/>
      <point x="70" y="153" type="line"/>
      <point x="190" y="153" type="line"/>
      <point x="146" y="0" type="line"/>
    </contour>
    <contour>
      <point x="429" y="463" type="line"/>
      <point x="578" y="463" type="line"/>
      <point x="527" y="283" type="line"/>
      <point x="377" y="283" type="line"/>
    </contour>
  </outline>
</glyph>
<glyph name="ampersand" format="2">
  <advance width="813"/>
  <unicode hex="0026"/>
  <outline>
    <contour>
      <point x="322" y="-12" type="curve" smooth="yes"/>
      <point x="478" y="-12"/>
      <point x="546" y="86"/>
      <point x="587" y="151" type="curve" smooth="yes"/>
      <point x="722" y="363" type="line"/>
      <point x="570" y="363" type="line"/>
      <point x="453" y="194" type="line" smooth="yes"/>
      <point x="432" y="164"/>
      <point x="398" y="113"/>
      <point x="328" y="113" type="curve" smooth="yes"/>
      <point x="272" y="113"/>
      <point x="238" y="145"/>
      <point x="238" y="197" type="curve" smooth="yes"/>
      <point x="238" y="263"/>
      <point x="294" y="299"/>
      <point x="335" y="322" type="curve" smooth="yes"/>
      <point x="408" y="364" type="line" smooth="yes"/>
      <point x="471" y="400"/>
      <point x="563" y="456"/>
      <point x="563" y="566" type="curve" smooth="yes"/>
      <point x="563" y="675"/>
      <point x="474" y="757"/>
      <point x="359" y="757" type="curve" smooth="yes"/>
      <point x="249" y="757"/>
      <point x="152" y="681"/>
      <point x="152" y="559" type="curve" smooth="yes"/>
      <point x="152" y="471"/>
      <point x="203" y="411"/>
      <point x="249" y="360" type="curve" smooth="yes"/>
      <point x="570" y="0" type="line"/>
      <point x="744" y="0" type="line"/>
      <point x="354" y="444" type="line" smooth="yes"/>
      <point x="330" y="471"/>
      <point x="291" y="517"/>
      <point x="291" y="566" type="curve" smooth="yes"/>
      <point x="291" y="609"/>
      <point x="322" y="639"/>
      <point x="361" y="639" type="curve" smooth="yes"/>
      <point x="401" y="639"/>
      <point x="430" y="607"/>
      <point x="430" y="567" type="curve" smooth="yes"/>
      <point x="430" y="515"/>
      <point x="379" y="486"/>
      <point x="314" y="453" type="curve" smooth="yes"/>
      <point x="244" y="417" type="line" smooth="yes"/>
      <point x="199" y="394"/>
      <point x="83" y="333"/>
      <point x="83" y="195" type="curve" smooth="yes"/>
      <point x="83" y="70"/>
      <point x="179" y="-12"/>
    </contour>
  </outline>
  <guideline angle="213.69" x="240" y="300"/>
</glyph>
<glyph name="quotesingle" format="2">
  <advance width="333"/>
  <unicode hex="0027"/>
  <outline>
    <contour>
      <point x="214" y="440" type="line"/>
      <point x="231" y="745" type="line"/>
      <point x="101" y="745" type="line"/>
      <point x="119" y="440" type="line"/>
    </contour>
  </outline>
</glyph>
<glyph name="parenleft" format="2">
  <advance width="407"/>
  <unicode hex="0028"/>
  <outline>
    <contour>
      <point x="365" y="-180" type="line"/>
      <point x="271" y="-35"/>
      <point x="224" y="119"/>
      <point x="224" y="283" type="curve" smooth="yes"/>
      <point x="224" y="447"/>
      <point x="270" y="598"/>
      <point x="365" y="745" type="curve"/>
      <point x="240" y="745" type="line"/>
      <point x="125" y="611"/>
      <point x="69" y="458"/>
      <point x="69" y="283" type="curve" smooth="yes"/>
      <point x="69" y="108"/>
      <point x="126" y="-46"/>
      <point x="240" y="-180" type="curve"/>
    </contour>
  </outline>
</glyph>
<glyph name="parenright" format="2">
  <advance width="407"/>
  <unicode hex="0029"/>
  <outline>
    <contour>
      <point x="167" y="-180" type="line"/>
      <point x="281" y="-46"/>
      <point x="338" y="108"/>
      <point x="338" y="283" type="curve" smooth="yes"/>
      <point x="338" y="458"/>
      <point x="282" y="611"/>
      <point x="167" y="745" type="curve"/>
      <point x="42" y="745" type="line"/>
      <point x="137" y="598"/>
      <point x="183" y="447"/>
      <point x="183" y="283" type="curve" smooth="yes"/>
      <point x="183" y="119"/>
      <point x="136" y="-35"/>
      <point x="42" y="-180" type="curve"/>
    </contour>
  </outline>
</glyph>
<glyph name="asterisk" format="2">
  <advance width="560"/>
  <unicode hex="002A"/>
  <outline>
    <contour>
      <point x="280" y="452" type="line"/>
      <point x="349" y="358" type="line"/>
      <point x="437" y="422" type="line"/>
      <point x="368" y="516" type="line"/>
      <point x="479" y="554" type="line"/>
      <point x="445" y="657" type="line"/>
      <point x="335" y="620" type="line"/>
      <point x="335" y="745" type="line"/>
      <point x="225" y="745" type="line"/>
      <point x="225" y="620" type="line"/>
      <point x="115" y="657" type="line"/>
      <point x="81" y="554" type="line"/>
      <point x="192" y="516" type="line"/>
      <point x="123" y="422" type="line"/>
      <point x="211" y="358" type="line"/>
    </contour>
  </outline>
</glyph>
<glyph name="plus" format="2">
  <advance width="678"/>
  <unicode hex="002B"/>
  <outline>
    <contour>
      <point x="402" y="0" type="line"/>
      <point x="402" y="188" type="line"/>
      <point x="589" y="188" type="line"/>
      <point x="589" y="313" type="line"/>
      <point x="402" y="313" type="line"/>
      <point x="402" y="500" type="line"/>
      <point x="277" y="500" type="line"/>
      <point x="277" y="313" type="line"/>
      <point x="89" y="313" type="line"/>
      <point x="89" y="188" type="line"/>
      <point x="277" y="188" type="line"/>
      <point x="277" y="0" type="line"/>
    </contour>
  </outline>
</glyph>
<glyph name="comma" format="2">
  <advance width="386"/>
  <unicode hex="002C"/>
  <outline>
    <contour>
      <point x="110" y="-165" type="line"/>
      <point x="222" y="-142"/>
      <point x="280" y="-64"/>
      <point x="280" y="63" type="curve" smooth="yes"/>
      <point x="280" y="150" type="line"/>
      <point x="130" y="150" type="line"/>
      <point x="130" y="0" type="line"/>
      <point x="197" y="0" type="line"/>
      <point x="188" y="-49"/>
      <point x="157" y="-79"/>
      <point x="110" y="-90" type="curve"/>
    </contour>
  </outline>
</glyph>
<glyph name="hyphen" format="2">
  <advance width="634"/>
  <unicode hex="002D"/>
  <outline>
    <contour>
      <point x="542" y="208" type="line"/>
      <point x="542" y="338" type="line"/>
      <point x="92" y="338" type="line"/>
      <point x="92" y="208" type="line"/>
    </contour>
  </outline>
</glyph>
<glyph name="period" format="2">
  <advance width="408"/>
  <unicode hex="002E"/>
  <outline>
    <contour>
      <point x="279" y="0" type="line"/>
      <point x="279" y="150" type="line"/>
      <point x="129" y="150" type="line"/>
      <point x="129" y="0" type="line"/>
    </contour>
  </outline>
</glyph>
<glyph name="slash" format="2">
  <advance width="532"/>
  <unicode hex="002F"/>
  <outline>
    <contour>
      <point x="182" y="-120" type="line"/>
      <point x="512" y="705" type="line"/>
      <point x="350" y="705" type="line"/>
      <point x="20" y="-120" type="line"/>
    </contour>
  </outline>
</glyph>
<glyph name="zero" format="2">
  <advance width="700"/>
  <unicode hex="0030"/>
  <outline>
    <contour>
      <point x="350" y="-12" type="curve" smooth="yes"/>
      <point x="530" y="-12"/>
      <point x="650" y="143"/>
      <point x="650" y="373" type="curve" smooth="yes"/>
      <point x="650" y="603"/>
      <point x="530" y="757"/>
      <point x="349" y="757" type="curve" smooth="yes"/>
      <point x="171" y="757"/>
      <point x="50" y="604"/>
      <point x="50" y="373" type="curve" smooth="yes"/>
      <point x="50" y="142"/>
      <point x="172" y="-12"/>
    </contour>
    <contour>
      <point x="350" y="128" type="curve" smooth="yes"/>
      <point x="258" y="128"/>
      <point x="205" y="220"/>
      <point x="205" y="373" type="curve" smooth="yes"/>
      <point x="205" y="527"/>
      <point x="257" y="617"/>
      <point x="349" y="617" type="curve" smooth="yes"/>
      <point x="443" y="617"/>
      <point x="495" y="526"/>
      <point x="495" y="373" type="curve" smooth="yes"/>
      <point x="495" y="219"/>
      <point x="443" y="128"/>
    </contour>
  </outline>
</glyph>
<glyph name="one" format="2">
  <advance width="413"/>
  <unicode hex="0031"/>
  <outline>
    <contour>
      <point x="325" y="0" type="line"/>
      <point x="325" y="745" type="line"/>
      <point x="25" y="745" type="line"/>
      <point x="25" y="614" type="line"/>
      <point x="170" y="614" type="line"/>
      <point x="170" y="0" type="line"/>
    </contour>
  </outline>
</glyph>
<glyph name="two" format="2">
  <advance width="596"/>
  <unicode hex="0032"/>
  <outline>
    <contour>
      <point x="547" y="0" type="line"/>
      <point x="547" y="130" type="line"/>
      <point x="239" y="130" type="line"/>
      <point x="410" y="306" type="line" smooth="yes"/>
      <point x="499" y="397"/>
      <point x="540" y="467"/>
      <point x="540" y="548" type="curve" smooth="yes"/>
      <point x="540" y="673"/>
      <point x="440" y="757"/>
      <point x="292" y="757" type="curve" smooth="yes"/>
      <point x="173" y="757"/>
      <point x="61" y="682"/>
      <point x="37" y="566" type="curve"/>
      <point x="172" y="522" type="line"/>
      <point x="192" y="586"/>
      <point x="237" y="617"/>
      <point x="292" y="617" type="curve" smooth="yes"/>
      <point x="345" y="617"/>
      <point x="385" y="583"/>
      <point x="385" y="529" type="curve" smooth="yes"/>
      <point x="385" y="482"/>
      <point x="359" y="447"/>
      <point x="242" y="326" type="curve" smooth="yes"/>
      <point x="42" y="120" type="line"/>
      <point x="42" y="0" type="line"/>
    </contour>
  </outline>
</glyph>
<glyph name="three" format="2">
  <advance width="612"/>
  <unicode hex="0033"/>
  <outline>
    <contour>
      <point x="292" y="-12" type="curve" smooth="yes"/>
      <point x="450" y="-12"/>
      <point x="567" y="98"/>
      <point x="567" y="247" type="curve" smooth="yes"/>
      <point x="567" y="377"/>
      <point x="479" y="464"/>
      <point x="346" y="465" type="curve"/>
      <point x="341" y="402" type="line"/>
      <point x="537" y="625" type="line"/>
      <point x="537" y="745" type="line"/>
      <point x="72" y="745" type="line"/>
      <point x="72" y="615" type="line"/>
      <point x="363" y="615" type="line"/>
      <point x="172" y="407" type="line"/>
      <point x="208" y="332" type="line"/>
      <point x="232" y="344"/>
      <point x="262" y="351"/>
      <point x="292" y="351" type="curve" smooth="yes"/>
      <point x="367" y="351"/>
      <point x="412" y="309"/>
      <point x="412" y="241" type="curve" smooth="yes"/>
      <point x="412" y="172"/>
      <point x="365" y="128"/>
      <point x="292" y="128" type="curve" smooth="yes"/>
      <point x="232" y="128"/>
      <point x="186" y="161"/>
      <point x="164" y="225" type="curve"/>
      <point x="27" y="179" type="line"/>
      <point x="52" y="63"/>
      <point x="168" y="-12"/>
    </contour>
  </outline>
</glyph>
<glyph name="four" format="2">
  <advance width="662"/>
  <unicode hex="0034"/>
  <outline>
    <contour>
      <point x="517" y="0" type="line"/>
      <point x="517" y="160" type="line"/>
      <point x="632" y="160" type="line"/>
      <point x="632" y="290" type="line"/>
      <point x="517" y="290" type="line"/>
      <point x="517" y="745" type="line"/>
      <point x="352" y="745" type="line"/>
      <point x="32" y="290" type="line"/>
      <point x="32" y="160" type="line"/>
      <point x="362" y="160" type="line"/>
      <point x="362" y="0" type="line"/>
    </contour>
    <contour>
      <point x="401" y="613" type="line"/>
      <point x="362" y="625" type="line"/>
      <point x="362" y="290" type="line"/>
      <point x="116" y="290" type="line"/>
      <point x="145" y="234" type="line"/>
    </contour>
  </outline>
</glyph>
<glyph name="five" format="2">
  <advance width="614"/>
  <unicode hex="0035"/>
  <outline>
    <contour>
      <point x="295" y="-12" type="curve" smooth="yes"/>
      <point x="451" y="-12"/>
      <point x="566" y="98"/>
      <point x="566" y="245" type="curve" smooth="yes"/>
      <point x="566" y="390"/>
      <point x="473" y="491"/>
      <point x="324" y="491" type="curve" smooth="yes"/>
      <point x="242" y="491"/>
      <point x="194" y="466"/>
      <point x="161" y="412" type="curve"/>
      <point x="203" y="375" type="line"/>
      <point x="244" y="685" type="line"/>
      <point x="186" y="615" type="line"/>
      <point x="539" y="615" type="line"/>
      <point x="539" y="745" type="line"/>
      <point x="123" y="745" type="line"/>
      <point x="63" y="328" type="line"/>
      <point x="190" y="298" type="line"/>
      <point x="207" y="340"/>
      <point x="247" y="361"/>
      <point x="295" y="361" type="curve" smooth="yes"/>
      <point x="364" y="361"/>
      <point x="411" y="314"/>
      <point x="411" y="245" type="curve" smooth="yes"/>
      <point x="411" y="175"/>
      <point x="364" y="128"/>
      <point x="295" y="128" type="curve" smooth="yes"/>
      <point x="240" y="128"/>
      <point x="193" y="156"/>
      <point x="173" y="220" type="curve"/>
      <point x="36" y="174" type="line"/>
      <point x="60" y="58"/>
      <point x="176" y="-12"/>
    </contour>
  </outline>
  <guideline angle="82.2907" x="178" y="617"/>
</glyph>
<glyph name="six" format="2">
  <advance width="604"/>
  <unicode hex="0036"/>
  <outline>
    <contour>
      <point x="302" y="-12" type="curve" smooth="yes"/>
      <point x="457" y="-12"/>
      <point x="567" y="95"/>
      <point x="567" y="242" type="curve" smooth="yes"/>
      <point x="567" y="376"/>
      <point x="468" y="478"/>
      <point x="330" y="478" type="curve" smooth="yes"/>
      <point x="302" y="478"/>
      <point x="279" y="472"/>
      <point x="251" y="459" type="curve"/>
      <point x="276" y="424" type="line"/>
      <point x="527" y="745" type="line"/>
      <point x="342" y="745" type="line"/>
      <point x="135" y="478" type="line" smooth="yes"/>
      <point x="51" y="369"/>
      <point x="37" y="305"/>
      <point x="37" y="235" type="curve" smooth="yes"/>
      <point x="37" y="94"/>
      <point x="147" y="-12"/>
    </contour>
    <contour>
      <point x="302" y="128" type="curve" smooth="yes"/>
      <point x="241" y="128"/>
      <point x="192" y="173"/>
      <point x="192" y="240" type="curve" smooth="yes"/>
      <point x="192" y="307"/>
      <point x="241" y="351"/>
      <point x="302" y="351" type="curve" smooth="yes"/>
      <point x="363" y="351"/>
      <point x="412" y="307"/>
      <point x="412" y="240" type="curve" smooth="yes"/>
      <point x="412" y="173"/>
      <point x="363" y="128"/>
    </contour>
  </outline>
</glyph>
<glyph name="seven" format="2">
  <advance width="564"/>
  <unicode hex="0037"/>
  <outline>
    <contour>
      <point x="242" y="0" type="line"/>
      <point x="534" y="615" type="line"/>
      <point x="534" y="745" type="line"/>
      <point x="27" y="745" type="line"/>
      <point x="27" y="615" type="line"/>
      <point x="371" y="615" type="line"/>
      <point x="70" y="0" type="line"/>
    </contour>
  </outline>
</glyph>
<glyph name="eight" format="2">
  <advance width="633"/>
  <unicode hex="0038"/>
  <outline>
    <contour>
      <point x="316" y="-12" type="curve" smooth="yes"/>
      <point x="484" y="-12"/>
      <point x="587" y="92"/>
      <point x="587" y="214" type="curve" smooth="yes"/>
      <point x="587" y="311"/>
      <point x="534" y="375"/>
      <point x="434" y="412" type="curve"/>
      <point x="443" y="372" type="line"/>
      <point x="515" y="395"/>
      <point x="559" y="469"/>
      <point x="559" y="550" type="curve" smooth="yes"/>
      <point x="559" y="670"/>
      <point x="457" y="757"/>
      <point x="316" y="757" type="curve" smooth="yes"/>
      <point x="174" y="757"/>
      <point x="73" y="670"/>
      <point x="73" y="550" type="curve" smooth="yes"/>
      <point x="73" y="468"/>
      <point x="118" y="394"/>
      <point x="189" y="373" type="curve"/>
      <point x="199" y="411" type="line"/>
      <point x="99" y="377"/>
      <point x="47" y="312"/>
      <point x="47" y="215" type="curve" smooth="yes"/>
      <point x="47" y="92"/>
      <point x="148" y="-12"/>
    </contour>
    <contour>
      <point x="316" y="118" type="curve" smooth="yes"/>
      <point x="248" y="118"/>
      <point x="202" y="159"/>
      <point x="202" y="220" type="curve" smooth="yes"/>
      <point x="202" y="281"/>
      <point x="248" y="321"/>
      <point x="316" y="321" type="curve" smooth="yes"/>
      <point x="385" y="321"/>
      <point x="432" y="281"/>
      <point x="432" y="220" type="curve" smooth="yes"/>
      <point x="432" y="159"/>
      <point x="385" y="118"/>
    </contour>
    <contour>
      <point x="316" y="451" type="curve" smooth="yes"/>
      <point x="263" y="451"/>
      <point x="228" y="490"/>
      <point x="228" y="539" type="curve" smooth="yes"/>
      <point x="228" y="589"/>
      <point x="263" y="627"/>
      <point x="316" y="627" type="curve" smooth="yes"/>
      <point x="369" y="627"/>
      <point x="404" y="589"/>
      <point x="404" y="539" type="curve" smooth="yes"/>
      <point x="404" y="490"/>
      <point x="369" y="451"/>
    </contour>
  </outline>
</glyph>
<glyph name="nine" format="2">
  <advance width="604"/>
  <unicode hex="0039"/>
  <outline>
    <contour>
      <point x="262" y="0" type="line"/>
      <point x="469" y="267" type="line" smooth="yes"/>
      <point x="553" y="376"/>
      <point x="567" y="440"/>
      <point x="567" y="510" type="curve" smooth="yes"/>
      <point x="567" y="651"/>
      <point x="457" y="757"/>
      <point x="302" y="757" type="curve" smooth="yes"/>
      <point x="147" y="757"/>
      <point x="37" y="650"/>
      <point x="37" y="503" type="curve" smooth="yes"/>
      <point x="37" y="369"/>
      <point x="136" y="267"/>
      <point x="274" y="267" type="curve" smooth="yes"/>
      <point x="302" y="267"/>
      <point x="325" y="273"/>
      <point x="353" y="286" type="curve"/>
      <point x="328" y="321" type="line"/>
      <point x="77" y="0" type="line"/>
    </contour>
    <contour>
      <point x="302" y="394" type="curve" smooth="yes"/>
      <point x="241" y="394"/>
      <point x="192" y="438"/>
      <point x="192" y="505" type="curve" smooth="yes"/>
      <point x="192" y="572"/>
      <point x="241" y="617"/>
      <point x="302" y="617" type="curve" smooth="yes"/>
      <point x="363" y="617"/>
      <point x="412" y="572"/>
      <point x="412" y="505" type="curve" smooth="yes"/>
      <point x="412" y="438"/>
      <point x="363" y="394"/>
    </contour>
  </outline>
</glyph>
<glyph name="colon" format="2">
  <advance width="408"/>
  <unicode hex="003A"/>
  <outline>
    <contour>
      <point x="279" y="0" type="line"/>
      <point x="279" y="150" type="line"/>
      <point x="129" y="150" type="line"/>
      <point x="129" y="0" type="line"/>
    </contour>
    <contour>
      <point x="279" y="396" type="line"/>
      <point x="279" y="546" type="line"/>
      <point x="129" y="546" type="line"/>
      <point x="129" y="396" type="line"/>
    </contour>
  </outline>
</glyph>
<glyph name="semicolon" format="2">
  <advance width="428"/>
  <unicode hex="003B"/>
  <outline>
    <contour>
      <point x="129" y="-165" type="line"/>
      <point x="241" y="-142"/>
      <point x="299" y="-64"/>
      <point x="299" y="63" type="curve" smooth="yes"/>
      <point x="299" y="150" type="line"/>
      <point x="149" y="150" type="line"/>
      <point x="149" y="0" type="line"/>
      <point x="216" y="0" type="line"/>
      <point x="207" y="-49"/>
      <point x="176" y="-79"/>
      <point x="129" y="-90" type="curve"/>
    </contour>
    <contour>
      <point x="299" y="396" type="line"/>
      <point x="299" y="546" type="line"/>
      <point x="149" y="546" type="line"/>
      <point x="149" y="396" type="line"/>
    </contour>
  </outline>
</glyph>
<glyph name="less" format="2">
  <advance width="678"/>
  <unicode hex="003C"/>
  <outline>
    <contour>
      <point x="564" y="155" type="line"/>
      <point x="214" y="299" type="line"/>
      <point x="214" y="247" type="line"/>
      <point x="564" y="392" type="line"/>
      <point x="564" y="543" type="line"/>
      <point x="89" y="347" type="line"/>
      <point x="89" y="199" type="line"/>
      <point x="564" y="4" type="line"/>
    </contour>
  </outline>
</glyph>
<glyph name="equal" format="2">
  <advance width="678"/>
  <unicode hex="003D"/>
  <outline>
    <contour>
      <point x="564" y="291" type="line"/>
      <point x="564" y="416" type="line"/>
      <point x="114" y="416" type="line"/>
      <point x="114" y="291" type="line"/>
    </contour>
    <contour>
      <point x="564" y="46" type="line"/>
      <point x="564" y="171" type="line"/>
      <point x="114" y="171" type="line"/>
      <point x="114" y="46" type="line"/>
    </contour>
  </outline>
</glyph>
<glyph name="greater" format="2">
  <advance width="678"/>
  <unicode hex="003E"/>
  <outline>
    <contour>
      <point x="589" y="199" type="line"/>
      <point x="589" y="347" type="line"/>
      <point x="114" y="543" type="line"/>
      <point x="114" y="392" type="line"/>
      <point x="464" y="247" type="line"/>
      <point x="464" y="299" type="line"/>
      <point x="114" y="155" type="line"/>
      <point x="114" y="4" type="line"/>
    </contour>
  </outline>
</glyph>
<glyph name="question" format="2">
  <advance width="611"/>
  <unicode hex="003F"/>
  <outline>
    <contour>
      <point x="365" y="230" type="line"/>
      <point x="365" y="243" type="line" smooth="yes"/>
      <point x="365" y="300"/>
      <point x="403" y="340"/>
      <point x="444" y="379" type="curve" smooth="yes"/>
      <point x="491" y="425"/>
      <point x="541" y="472"/>
      <point x="541" y="548" type="curve" smooth="yes"/>
      <point x="541" y="653"/>
      <point x="458" y="757"/>
      <point x="302" y="757" type="curve" smooth="yes"/>
      <point x="173" y="757"/>
      <point x="78" y="680"/>
      <point x="61" y="569" type="curve"/>
      <point x="200" y="534" type="line"/>
      <point x="208" y="585"/>
      <point x="248" y="617"/>
      <point x="298" y="617" type="curve" smooth="yes"/>
      <point x="355" y="617"/>
      <point x="386" y="586"/>
      <point x="386" y="544" type="curve" smooth="yes"/>
      <point x="386" y="502"/>
      <point x="349" y="476"/>
      <point x="311" y="437" type="curve" smooth="yes"/>
      <point x="269" y="394"/>
      <point x="225" y="341"/>
      <point x="225" y="253" type="curve" smooth="yes"/>
      <point x="225" y="230" type="line"/>
    </contour>
    <contour>
      <point x="371" y="0" type="line"/>
      <point x="371" y="150" type="line"/>
      <point x="221" y="150" type="line"/>
      <point x="221" y="0" type="line"/>
    </contour>
  </outline>
</glyph>
<glyph name="at" format="2">
  <advance width="926"/>
  <unicode hex="0040"/>
  <outline>
    <contour>
      <point x="485" y="-222" type="curve" smooth="yes"/>
      <point x="568" y="-222"/>
      <point x="643" y="-201"/>
      <point x="707" y="-160" type="curve"/>
      <point x="656" y="-63" type="line"/>
      <point x="606" y="-95"/>
      <point x="548" y="-112"/>
      <point x="484" y="-112" type="curve" smooth="yes"/>
      <point x="302" y="-112"/>
      <point x="164" y="18"/>
      <point x="164" y="211" type="curve" smooth="yes"/>
      <point x="164" y="397"/>
      <point x="291" y="532"/>
      <point x="485" y="532" type="curve" smooth="yes"/>
      <point x="682" y="532"/>
      <point x="784" y="397"/>
      <point x="784" y="216" type="curve" smooth="yes"/>
      <point x="784" y="134"/>
      <point x="765" y="105"/>
      <point x="727" y="105" type="curve" smooth="yes"/>
      <point x="696" y="105"/>
      <point x="678" y="132"/>
      <point x="678" y="179" type="curve" smooth="yes"/>
      <point x="678" y="425" type="line"/>
      <point x="578" y="425" type="line"/>
      <point x="578" y="328" type="line"/>
      <point x="589" y="370" type="line"/>
      <point x="576" y="408"/>
      <point x="518" y="435"/>
      <point x="453" y="435" type="curve" smooth="yes"/>
      <point x="328" y="435"/>
      <point x="237" y="333"/>
      <point x="237" y="213" type="curve" smooth="yes"/>
      <point x="237" y="90"/>
      <point x="332" y="0"/>
      <point x="448" y="0" type="curve" smooth="yes"/>
      <point x="513" y="0"/>
      <point x="582" y="29"/>
      <point x="596" y="77" type="curve"/>
      <point x="570" y="140" type="line"/>
      <point x="570" y="38"/>
      <point x="652" y="0"/>
      <point x="723" y="0" type="curve" smooth="yes"/>
      <point x="828" y="0"/>
      <point x="904" y="79"/>
      <point x="904" y="210" type="curve" smooth="yes"/>
      <point x="904" y="469"/>
      <point x="736" y="642"/>
      <point x="483" y="642" type="curve" smooth="yes"/>
      <point x="230" y="642"/>
      <point x="44" y="469"/>
      <point x="44" y="210" type="curve" smooth="yes"/>
      <point x="44" y="-49"/>
      <point x="230" y="-222"/>
    </contour>
    <contour>
      <point x="462" y="105" type="curve" smooth="yes"/>
      <point x="399" y="105"/>
      <point x="350" y="153"/>
      <point x="350" y="218" type="curve" smooth="yes"/>
      <point x="350" y="284"/>
      <point x="400" y="331"/>
      <point x="463" y="329" type="curve" smooth="yes"/>
      <point x="526" y="327"/>
      <point x="571" y="280"/>
      <point x="571" y="217" type="curve" smooth="yes"/>
      <point x="571" y="154"/>
      <point x="525" y="105"/>
    </contour>
  </outline>
</glyph>
<glyph name="A" format="2">
  <advance width="732"/>
  <unicode hex="0041"/>
  <anchor x="366" y="0" name="bottom"/>
  <anchor x="637" y="0" name="ogonek"/>
  <anchor x="366" y="745" name="top"/>
  <outline>
    <contour>
      <point x="179" y="0" type="line"/>
      <point x="229" y="152" type="line"/>
      <point x="502" y="152" type="line"/>
      <point x="552" y="0" type="line"/>
      <point x="721" y="0" type="line"/>
      <point x="469" y="745" type="line"/>
      <point x="263" y="745" type="line"/>
      <point x="11" y="0" type="line"/>
    </contour>
    <contour>
      <point x="387" y="639" type="line"/>
      <point x="345" y="639" type="line"/>
      <point x="459" y="287" type="line"/>
      <point x="272" y="287" type="line"/>
    </contour>
  </outline>
</glyph>
<glyph name="D" format="2">
  <advance width="739"/>
  <unicode hex="0044"/>
  <anchor x="375" y="0" name="bottom"/>
  <anchor x="194" y="373" name="center"/>
  <anchor x="375" y="745" name="top"/>
  <outline>
    <contour>
      <point x="309" y="0" type="line" smooth="yes"/>
      <point x="550" y="0"/>
      <point x="706" y="157"/>
      <point x="706" y="373" type="curve" smooth="yes"/>
      <point x="706" y="589"/>
      <point x="551" y="745"/>
      <point x="309" y="745" type="curve" smooth="yes"/>
      <point x="66" y="745" type="line"/>
      <point x="66" y="0" type="line"/>
    </contour>
    <contour>
      <point x="221" y="610" type="line"/>
      <point x="313" y="610" type="line" smooth="yes"/>
      <point x="458" y="610"/>
      <point x="551" y="518"/>
      <point x="551" y="373" type="curve" smooth="yes"/>
      <point x="551" y="228"/>
      <point x="458" y="135"/>
      <point x="313" y="135" type="curve" smooth="yes"/>
      <point x="221" y="135" type="line"/>
    </contour>
  </outline>
</glyph>
<glyph name="E" format="2">
  <advance width="589"/>
  <unicode hex="0045"/>
  <anchor x="317" y="0" name="bottom"/>
  <anchor x="467" y="0" name="ogonek"/>
  <anchor x="317" y="745" name="top"/>
  <outline>
    <contour>
      <point x="567" y="0" type="line"/>
      <point x="567" y="135" type="line"/>
      <point x="221" y="135" type="line"/>
      <point x="221" y="306" type="line"/>
      <point x="547" y="306" type="line"/>
      <point x="547" y="441" type="line"/>
      <point x="221" y="441" type="line"/>
      <point x="221" y="610" type="line"/>
      <point x="567" y="610" type="line"/>
      <point x="567" y="745" type="line"/>
      <point x="66" y="745" type="line"/>
      <point x="66" y="0" type="line"/>
    </contour>
  </outline>
</glyph>
<glyph name="F" format="2">
  <advance width="587"/>
  <unicode hex="0046"/>
  <anchor x="294" y="0" name="bottom"/>
  <anchor x="294" y="745" name="top"/>
  <outline>
    <contour>
      <point x="221" y="0" type="line"/>
      <point x="221" y="286" type="line"/>
      <point x="526" y="286" type="line"/>
      <point x="526" y="421" type="line"/>
      <point x="221" y="421" type="line"/>
      <point x="221" y="610" type="line"/>
      <point x="576" y="610" type="line"/>
      <point x="576" y="745" type="line"/>
      <point x="66" y="745" type="line"/>
      <point x="66" y="0" type="line"/>
    </contour>
  </outline>
</glyph>
<glyph name="H" format="2">
  <advance width="732"/>
  <unicode hex="0048"/>
  <anchor x="366" y="0" name="bottom"/>
  <anchor x="366" y="595" name="center"/>
  <anchor x="366" y="745" name="top"/>
  <outline>
    <contour>
      <point x="221" y="0" type="line"/>
      <point x="221" y="288" type="line"/>
      <point x="511" y="288" type="line"/>
      <point x="511" y="0" type="line"/>
      <point x="666" y="0" type="line"/>
      <point x="666" y="745" type="line"/>
      <point x="511" y="745" type="line"/>
      <point x="511" y="423" type="line"/>
      <point x="221" y="423" type="line"/>
      <point x="221" y="745" type="line"/>
      <point x="66" y="745" type="line"/>
      <point x="66" y="0" type="line"/>
    </contour>
  </outline>
</glyph>
<glyph name="I" format="2">
  <advance width="287"/>
  <unicode hex="0049"/>
  <anchor x="144" y="0" name="bottom"/>
  <anchor x="171" y="0" name="ogonek"/>
  <anchor x="144" y="745" name="top"/>
  <outline>
    <contour>
      <point x="221" y="0" type="line"/>
      <point x="221" y="745" type="line"/>
      <point x="66" y="745" type="line"/>
      <point x="66" y="0" type="line"/>
    </contour>
  </outline>
</glyph>
<glyph name="J" format="2">
  <advance width="396"/>
  <unicode hex="004A"/>
  <anchor x="209" y="0" name="bottom"/>
  <anchor x="256" y="745" name="top"/>
  <outline>
    <contour>
      <point x="78" y="0" type="line" smooth="yes"/>
      <point x="234" y="0"/>
      <point x="333" y="96"/>
      <point x="333" y="240" type="curve" smooth="yes"/>
      <point x="333" y="745" type="line"/>
      <point x="178" y="745" type="line"/>
      <point x="178" y="233" type="line" smooth="yes"/>
      <point x="178" y="177"/>
      <point x="138" y="140"/>
      <point x="78" y="140" type="curve" smooth="yes"/>
      <point x="33" y="140" type="line"/>
      <point x="33" y="0" type="line"/>
    </contour>
  </outline>
</glyph>
<glyph name="K" format="2">
  <advance width="687"/>
  <unicode hex="004B"/>
  <anchor x="344" y="0" name="bottom"/>
  <anchor x="344" y="745" name="top"/>
  <outline>
    <contour>
      <point x="221" y="0" type="line"/>
      <point x="221" y="204" type="line"/>
      <point x="313" y="315" type="line"/>
      <point x="495" y="0" type="line"/>
      <point x="676" y="0" type="line"/>
      <point x="384" y="499" type="line"/>
      <point x="375" y="389" type="line"/>
      <point x="670" y="745" type="line"/>
      <point x="476" y="745" type="line"/>
      <point x="178" y="387" type="line"/>
      <point x="221" y="372" type="line"/>
      <point x="221" y="745" type="line"/>
      <point x="66" y="745" type="line"/>
      <point x="66" y="0" type="line"/>
    </contour>
  </outline>
</glyph>
<glyph name="L" format="2">
  <advance width="547"/>
  <unicode hex="004C"/>
  <anchor x="301" y="0" name="bottom"/>
  <anchor x="144" y="373" name="center"/>
  <anchor x="379" y="372" name="dot"/>
  <anchor x="144" y="745" name="top"/>
  <anchor x="379" y="546" name="topright"/>
  <outline>
    <contour>
      <point x="536" y="0" type="line"/>
      <point x="536" y="135" type="line"/>
      <point x="221" y="135" type="line"/>
      <point x="221" y="745" type="line"/>
      <point x="66" y="745" type="line"/>
      <point x="66" y="0" type="line"/>
    </contour>
  </outline>
</glyph>
<glyph name="M" format="2">
  <advance width="912"/>
  <unicode hex="004D"/>
  <anchor x="456" y="0" name="bottom"/>
  <anchor x="456" y="745" name="top"/>
  <outline>
    <contour>
      <point x="221" y="0" type="line"/>
      <point x="221" y="574" type="line"/>
      <point x="169" y="560" type="line"/>
      <point x="446" y="190" type="line"/>
      <point x="466" y="190" type="line"/>
      <point x="753" y="560" type="line"/>
      <point x="691" y="574" type="line"/>
      <point x="691" y="0" type="line"/>
      <point x="846" y="0" type="line"/>
      <point x="846" y="745" type="line"/>
      <point x="696" y="745" type="line"/>
      <point x="425" y="375" type="line"/>
      <point x="495" y="375" type="line"/>
      <point x="216" y="745" type="line"/>
      <point x="66" y="745" type="line"/>
      <point x="66" y="0" type="line"/>
    </contour>
  </outline>
</glyph>
<glyph name="N" format="2">
  <advance width="742"/>
  <unicode hex="004E"/>
  <anchor x="371" y="0" name="bottom"/>
  <anchor x="371" y="745" name="top"/>
  <outline>
    <contour>
      <point x="221" y="0" type="line"/>
      <point x="221" y="546" type="line"/>
      <point x="163" y="531" type="line"/>
      <point x="556" y="0" type="line"/>
      <point x="676" y="0" type="line"/>
      <point x="676" y="745" type="line"/>
      <point x="521" y="745" type="line"/>
      <point x="521" y="203" type="line"/>
      <point x="585" y="218" type="line"/>
      <point x="185" y="745" type="line"/>
      <point x="66" y="745" type="line"/>
      <point x="66" y="0" type="line"/>
    </contour>
  </outline>
</glyph>
<glyph name="O" format="2">
  <advance width="878"/>
  <unicode hex="004F"/>
  <anchor x="439" y="0" name="bottom"/>
  <anchor x="439" y="373" name="center"/>
  <anchor x="489" y="0" name="ogonek"/>
  <anchor x="439" y="745" name="top"/>
  <anchor x="858" y="745" name="topright"/>
  <outline>
    <contour>
      <point x="439" y="-12" type="curve" smooth="yes"/>
      <point x="664" y="-12"/>
      <point x="834" y="154"/>
      <point x="834" y="373" type="curve" smooth="yes"/>
      <point x="834" y="592"/>
      <point x="665" y="757"/>
      <point x="439" y="757" type="curve" smooth="yes"/>
      <point x="213" y="757"/>
      <point x="44" y="592"/>
      <point x="44" y="373" type="curve" smooth="yes"/>
      <point x="44" y="154"/>
      <point x="214" y="-12"/>
    </contour>
    <contour>
      <point x="439" y="128" type="curve" smooth="yes"/>
      <point x="303" y="128"/>
      <point x="199" y="229"/>
      <point x="199" y="373" type="curve" smooth="yes"/>
      <point x="199" y="517"/>
      <point x="303" y="617"/>
      <point x="439" y="617" type="curve" smooth="yes"/>
      <point x="575" y="617"/>
      <point x="679" y="517"/>
      <point x="679" y="373" type="curve" smooth="yes"/>
      <point x="679" y="229"/>
      <point x="575" y="128"/>
    </contour>
  </outline>
</glyph>
<glyph name="P" format="2">
  <advance width="649"/>
  <unicode hex="0050"/>
  <anchor x="325" y="0" name="bottom"/>
  <anchor x="325" y="745" name="top"/>
  <outline>
    <contour>
      <point x="221" y="0" type="line"/>
      <point x="221" y="270" type="line"/>
      <point x="352" y="270" type="line" smooth="yes"/>
      <point x="504" y="270"/>
      <point x="616" y="354"/>
      <point x="616" y="507" type="curve" smooth="yes"/>
      <point x="616" y="663"/>
      <point x="506" y="745"/>
      <point x="352" y="745" type="curve" smooth="yes"/>
      <point x="66" y="745" type="line"/>
      <point x="66" y="0" type="line"/>
    </contour>
    <contour>
      <point x="221" y="610" type="line"/>
      <point x="353" y="610" type="line" smooth="yes"/>
      <point x="418" y="610"/>
      <point x="461" y="569"/>
      <point x="461" y="507" type="curve" smooth="yes"/>
      <point x="461" y="446"/>
      <point x="418" y="405"/>
      <point x="353" y="405" type="curve" smooth="yes"/>
      <point x="221" y="405" type="line"/>
    </contour>
  </outline>
</glyph>
<glyph name="R" format="2">
  <advance width="667"/>
  <unicode hex="0052"/>
  <anchor x="334" y="0" name="bottom"/>
  <anchor x="334" y="745" name="top"/>
  <outline>
    <contour>
      <point x="221" y="0" type="line"/>
      <point x="221" y="270" type="line"/>
      <point x="398" y="270" type="line"/>
      <point x="298" y="329" type="line"/>
      <point x="482" y="0" type="line"/>
      <point x="656" y="0" type="line"/>
      <point x="486" y="297" type="line"/>
      <point x="565" y="333"/>
      <point x="615" y="405"/>
      <point x="615" y="507" type="curve" smooth="yes"/>
      <point x="615" y="663"/>
      <point x="505" y="745"/>
      <point x="351" y="745" type="curve" smooth="yes"/>
      <point x="66" y="745" type="line"/>
      <point x="66" y="0" type="line"/>
    </contour>
    <contour>
      <point x="221" y="610" type="line"/>
      <point x="352" y="610" type="line" smooth="yes"/>
      <point x="417" y="610"/>
      <point x="460" y="569"/>
      <point x="460" y="507" type="curve" smooth="yes"/>
      <point x="460" y="446"/>
      <point x="417" y="405"/>
      <point x="352" y="405" type="curve" smooth="yes"/>
      <point x="221" y="405" type="line"/>
    </contour>
  </outline>
</glyph>
<glyph name="S" format="2">
  <advance width="647"/>
  <unicode hex="0053"/>
  <anchor x="337" y="0" name="bottom"/>
  <anchor x="318" y="745" name="top"/>
  <outline>
    <contour>
      <point x="337" y="-12" type="curve" smooth="yes"/>
      <point x="494" y="-12"/>
      <point x="603" y="80"/>
      <point x="603" y="211" type="curve" smooth="yes"/>
      <point x="603" y="311"/>
      <point x="544" y="380"/>
      <point x="424" y="419" type="curve" smooth="yes"/>
      <point x="281" y="465" type="line" smooth="yes"/>
      <point x="236" y="480"/>
      <point x="213" y="506"/>
      <point x="213" y="541" type="curve" smooth="yes"/>
      <point x="213" y="589"/>
      <point x="255" y="622"/>
      <point x="318" y="622" type="curve" smooth="yes"/>
      <point x="390" y="622"/>
      <point x="449" y="580"/>
      <point x="477" y="511" type="curve"/>
      <point x="603" y="568" type="line"/>
      <point x="561" y="685"/>
      <point x="452" y="757"/>
      <point x="318" y="757" type="curve" smooth="yes"/>
      <point x="165" y="757"/>
      <point x="60" y="666"/>
      <point x="60" y="535" type="curve" smooth="yes"/>
      <point x="60" y="435"/>
      <point x="120" y="363"/>
      <point x="239" y="324" type="curve" smooth="yes"/>
      <point x="385" y="276" type="line" smooth="yes"/>
      <point x="430" y="261"/>
      <point x="451" y="237"/>
      <point x="451" y="202" type="curve" smooth="yes"/>
      <point x="451" y="154"/>
      <point x="410" y="123"/>
      <point x="347" y="123" type="curve" smooth="yes"/>
      <point x="267" y="123"/>
      <point x="197" y="172"/>
      <point x="160" y="254" type="curve"/>
      <point x="33" y="197" type="line"/>
      <point x="76" y="68"/>
      <point x="196" y="-12"/>
    </contour>
  </outline>
</glyph>
<glyph name="T" format="2">
  <advance width="552"/>
  <unicode hex="0054"/>
  <anchor x="276" y="0" name="bottom"/>
  <anchor x="276" y="373" name="center"/>
  <anchor x="276" y="745" name="top"/>
  <outline>
    <contour>
      <point x="355" y="0" type="line"/>
      <point x="355" y="610" type="line"/>
      <point x="541" y="610" type="line"/>
      <point x="541" y="745" type="line"/>
      <point x="11" y="745" type="line"/>
      <point x="11" y="610" type="line"/>
      <point x="200" y="610" type="line"/>
      <point x="200" y="0" type="line"/>
    </contour>
  </outline>
</glyph>
<glyph name="U" format="2">
  <advance width="724"/>
  <unicode hex="0055"/>
  <anchor x="362" y="0" name="bottom"/>
  <anchor x="382" y="0" name="ogonek"/>
  <anchor x="362" y="745" name="top"/>
  <outline>
    <contour>
      <point x="362" y="-12" type="curve" smooth="yes"/>
      <point x="538" y="-12"/>
      <point x="667" y="109"/>
      <point x="667" y="273" type="curve" smooth="yes"/>
      <point x="667" y="745" type="line"/>
      <point x="512" y="745" type="line"/>
      <point x="512" y="283" type="line" smooth="yes"/>
      <point x="512" y="194"/>
      <point x="449" y="128"/>
      <point x="362" y="128" type="curve" smooth="yes"/>
      <point x="275" y="128"/>
      <point x="212" y="194"/>
      <point x="212" y="283" type="curve" smooth="yes"/>
      <point x="212" y="745" type="line"/>
      <point x="57" y="745" type="line"/>
      <point x="57" y="273" type="line" smooth="yes"/>
      <point x="57" y="109"/>
      <point x="186" y="-12"/>
    </contour>
  </outline>
</glyph>
<glyph name="V" format="2">
  <advance width="712"/>
  <unicode hex="0056"/>
  <anchor x="356" y="0" name="bottom"/>
  <anchor x="356" y="745" name="top"/>
  <outline>
    <contour>
      <point x="446" y="0" type="line"/>
      <point x="701" y="745" type="line"/>
      <point x="531" y="745" type="line"/>
      <point x="339" y="147" type="line"/>
      <point x="373" y="147" type="line"/>
      <point x="181" y="745" type="line"/>
      <point x="11" y="745" type="line"/>
      <point x="266" y="0" type="line"/>
    </contour>
  </outline>
</glyph>
<glyph name="W" format="2">
  <advance width="1032"/>
  <unicode hex="0057"/>
  <anchor x="516" y="0" name="bottom"/>
  <anchor x="516" y="745" name="top"/>
  <outline>
    <contour>
      <point x="386" y="0" type="line"/>
      <point x="542" y="600" type="line"/>
      <point x="490" y="600" type="line"/>
      <point x="646" y="0" type="line"/>
      <point x="826" y="0" type="line"/>
      <point x="1021" y="745" type="line"/>
      <point x="853" y="745" type="line"/>
      <point x="706" y="121" type="line"/>
      <point x="751" y="121" type="line"/>
      <point x="596" y="745" type="line"/>
      <point x="436" y="745" type="line"/>
      <point x="281" y="121" type="line"/>
      <point x="326" y="121" type="line"/>
      <point x="179" y="745" type="line"/>
      <point x="11" y="745" type="line"/>
      <point x="206" y="0" type="line"/>
    </contour>
  </outline>
</glyph>
<glyph name="X" format="2">
  <advance width="682"/>
  <unicode hex="0058"/>
  <anchor x="341" y="0" name="bottom"/>
  <anchor x="341" y="745" name="top"/>
  <outline>
    <contour>
      <point x="189" y="0" type="line"/>
      <point x="385" y="298" type="line"/>
      <point x="298" y="299" type="line"/>
      <point x="493" y="0" type="line"/>
      <point x="671" y="0" type="line"/>
      <point x="428" y="373" type="line"/>
      <point x="671" y="745" type="line"/>
      <point x="493" y="745" type="line"/>
      <point x="298" y="447" type="line"/>
      <point x="385" y="447" type="line"/>
      <point x="189" y="745" type="line"/>
      <point x="11" y="745" type="line"/>
      <point x="255" y="373" type="line"/>
      <point x="11" y="0" type="line"/>
    </contour>
  </outline>
</glyph>
<glyph name="Y" format="2">
  <advance width="672"/>
  <unicode hex="0059"/>
  <anchor x="336" y="0" name="bottom"/>
  <anchor x="336" y="745" name="top"/>
  <outline>
    <contour>
      <point x="414" y="0" type="line"/>
      <point x="414" y="326" type="line"/>
      <point x="661" y="745" type="line"/>
      <point x="484" y="745" type="line"/>
      <point x="305" y="429" type="line"/>
      <point x="368" y="429" type="line"/>
      <point x="188" y="745" type="line"/>
      <point x="11" y="745" type="line"/>
      <point x="259" y="325" type="line"/>
      <point x="259" y="0" type="line"/>
    </contour>
  </outline>
</glyph>
<glyph name="Z" format="2">
  <advance width="567"/>
  <unicode hex="005A"/>
  <anchor x="284" y="0" name="bottom"/>
  <anchor x="284" y="373" name="center"/>
  <anchor x="284" y="745" name="top"/>
  <outline>
    <contour>
      <point x="556" y="0" type="line"/>
      <point x="556" y="135" type="line"/>
      <point x="208" y="135" type="line"/>
      <point x="546" y="620" type="line"/>
      <point x="546" y="745" type="line"/>
      <point x="31" y="745" type="line"/>
      <point x="31" y="610" type="line"/>
      <point x="350" y="610" type="line"/>
      <point x="11" y="125" type="line"/>
      <point x="11" y="0" type="line"/>
    </contour>
  </outline>
</glyph>
<glyph name="bracketleft" format="2">
  <advance width="449"/>
  <unicode hex="005B"/>
  <outline>
    <contour>
      <point x="390" y="-180" type="line"/>
      <point x="390" y="-50" type="line"/>
      <point x="260" y="-50" type="line"/>
      <point x="260" y="615" type="line"/>
      <point x="390" y="615" type="line"/>
      <point x="390" y="745" type="line"/>
      <point x="110" y="745" type="line"/>
      <point x="110" y="-180" type="line"/>
    </contour>
  </outline>
</glyph>
<glyph name="backslash" format="2">
  <advance width="532"/>
  <unicode hex="005C"/>
  <outline>
    <contour>
      <point x="512" y="-120" type="line"/>
      <point x="182" y="705" type="line"/>
      <point x="20" y="705" type="line"/>
      <point x="350" y="-120" type="line"/>
    </contour>
  </outline>
</glyph>
<glyph name="bracketright" format="2">
  <advance width="449"/>
  <unicode hex="005D"/>
  <outline>
    <contour>
      <point x="339" y="-180" type="line"/>
      <point x="339" y="745" type="line"/>
      <point x="59" y="745" type="line"/>
      <point x="59" y="615" type="line"/>
      <point x="189" y="615" type="line"/>
      <point x="189" y="-50" type="line"/>
      <point x="59" y="-50" type="line"/>
      <point x="59" y="-180" type="line"/>
    </contour>
  </outline>
</glyph>
<glyph name="asciicircum" format="2">
  <advance width="678"/>
  <unicode hex="005E"/>
  <outline>
    <contour>
      <point x="262" y="418" type="line"/>
      <point x="371" y="627" type="line"/>
      <point x="309" y="627" type="line"/>
      <point x="418" y="418" type="line"/>
      <point x="582" y="418" type="line"/>
      <point x="412" y="745" type="line"/>
      <point x="268" y="745" type="line"/>
      <point x="97" y="418" type="line"/>
    </contour>
  </outline>
</glyph>
<glyph name="underscore" format="2">
  <advance width="684"/>
  <unicode hex="005F"/>
  <outline>
    <contour>
      <point x="592" y="-130" type="line"/>
      <point x="592" y="0" type="line"/>
      <point x="92" y="0" type="line"/>
      <point x="92" y="-130" type="line"/>
    </contour>
  </outline>
</glyph>
<glyph name="b" format="2">
  <advance width="673"/>
  <unicode hex="0062"/>
  <anchor x="337" y="0" name="bottom"/>
  <anchor x="347" y="745" name="top"/>
  <outline>
    <contour>
      <point x="361" y="-12" type="curve" smooth="yes"/>
      <point x="521" y="-12"/>
      <point x="640" y="114"/>
      <point x="640" y="273" type="curve" smooth="yes"/>
      <point x="640" y="433"/>
      <point x="518" y="558"/>
      <point x="362" y="558" type="curve" smooth="yes"/>
      <point x="282" y="558"/>
      <point x="218" y="527"/>
      <point x="182" y="472" type="curve"/>
      <point x="205" y="442" type="line"/>
      <point x="205" y="757" type="line"/>
      <point x="55" y="757" type="line"/>
      <point x="55" y="0" type="line"/>
      <point x="195" y="0" type="line"/>
      <point x="195" y="100" type="line"/>
      <point x="181" y="69" type="line"/>
      <point x="219" y="16"/>
      <point x="286" y="-12"/>
    </contour>
    <contour>
      <point x="343" y="123" type="curve" smooth="yes"/>
      <point x="262" y="123"/>
      <point x="205" y="184"/>
      <point x="205" y="273" type="curve" smooth="yes"/>
      <point x="205" y="361"/>
      <point x="262" y="423"/>
      <point x="343" y="423" type="curve" smooth="yes"/>
      <point x="426" y="423"/>
      <point x="485" y="360"/>
      <point x="485" y="273" type="curve" smooth="yes"/>
      <point x="485" y="185"/>
      <point x="426" y="123"/>
    </contour>
  </outline>
</glyph>
<glyph name="c" format="2">
  <advance width="611"/>
  <unicode hex="0063"/>
  <anchor x="323" y="0" name="bottom"/>
  <anchor x="323" y="546" name="top"/>
  <outline>
    <contour>
      <point x="323" y="-12" type="curve" smooth="yes"/>
      <point x="447" y="-12"/>
      <point x="547" y="58"/>
      <point x="578" y="155" type="curve"/>
      <point x="448" y="212" type="line"/>
      <point x="429" y="157"/>
      <point x="383" y="123"/>
      <point x="323" y="123" type="curve" smooth="yes"/>
      <point x="244" y="123"/>
      <point x="188" y="185"/>
      <point x="188" y="273" type="curve" smooth="yes"/>
      <point x="188" y="361"/>
      <point x="244" y="423"/>
      <point x="323" y="423" type="curve" smooth="yes"/>
      <point x="382" y="423"/>
      <point x="429" y="389"/>
      <point x="448" y="334" type="curve"/>
      <point x="578" y="390" type="line"/>
      <point x="545" y="491"/>
      <point x="445" y="558"/>
      <point x="323" y="558" type="curve" smooth="yes"/>
      <point x="158" y="558"/>
      <point x="33" y="436"/>
      <point x="33" y="274" type="curve" smooth="yes"/>
      <point x="33" y="111"/>
      <point x="159" y="-12"/>
    </contour>
  </outline>
</glyph>
<glyph name="e" format="2">
  <advance width="611"/>
  <unicode hex="0065"/>
  <anchor x="306" y="0" name="bottom"/>
  <anchor x="318" y="0" name="ogonek"/>
  <anchor x="306" y="546" name="top"/>
  <outline>
    <contour>
      <point x="318" y="-12" type="curve" smooth="yes"/>
      <point x="430" y="-12"/>
      <point x="520" y="41"/>
      <point x="553" y="121" type="curve"/>
      <point x="433" y="178" type="line"/>
      <point x="412" y="141"/>
      <point x="373" y="118"/>
      <point x="320" y="118" type="curve" smooth="yes"/>
      <point x="232" y="118"/>
      <point x="180" y="181"/>
      <point x="188" y="273" type="curve"/>
      <point x="181" y="379"/>
      <point x="230" y="438"/>
      <point x="308" y="438" type="curve" smooth="yes"/>
      <point x="387" y="438"/>
      <point x="435" y="374"/>
      <point x="415" y="289" type="curve"/>
      <point x="486" y="341" type="line"/>
      <point x="162" y="341" type="line"/>
      <point x="162" y="231" type="line"/>
      <point x="571" y="231" type="line"/>
      <point x="576" y="246"/>
      <point x="578" y="267"/>
      <point x="578" y="289" type="curve" smooth="yes"/>
      <point x="578" y="440"/>
      <point x="481" y="558"/>
      <point x="308" y="558" type="curve" smooth="yes"/>
      <point x="152" y="558"/>
      <point x="33" y="437"/>
      <point x="33" y="274" type="curve" smooth="yes"/>
      <point x="33" y="116"/>
      <point x="145" y="-12"/>
    </contour>
  </outline>
</glyph>
<glyph name="g" format="2">
  <advance width="648"/>
  <unicode hex="0067"/>
  <anchor x="324" y="-240" name="bottom"/>
  <anchor x="324" y="546" name="top"/>
  <outline>
    <contour>
      <point x="323" y="-220" type="curve" smooth="yes"/>
      <point x="480" y="-220"/>
      <point x="593" y="-116"/>
      <point x="593" y="29" type="curve" smooth="yes"/>
      <point x="593" y="546" type="line"/>
      <point x="453" y="546" type="line"/>
      <point x="453" y="427" type="line"/>
      <point x="472" y="463" type="line"/>
      <point x="431" y="527"/>
      <point x="373" y="558"/>
      <point x="294" y="558" type="curve" smooth="yes"/>
      <point x="143" y="558"/>
      <point x="33" y="447"/>
      <point x="33" y="294" type="curve" smooth="yes"/>
      <point x="33" y="140"/>
      <point x="144" y="27"/>
      <point x="297" y="27" type="curve" smooth="yes"/>
      <point x="376" y="27"/>
      <point x="435" y="57"/>
      <point x="472" y="118" type="curve"/>
      <point x="443" y="154" type="line"/>
      <point x="443" y="29" type="line" smooth="yes"/>
      <point x="443" y="-42"/>
      <point x="397" y="-85"/>
      <point x="323" y="-85" type="curve" smooth="yes"/>
      <point x="260" y="-85"/>
      <point x="212" y="-54"/>
      <point x="197" y="-3" type="curve"/>
      <point x="58" y="-52" type="line"/>
      <point x="92" y="-154"/>
      <point x="196" y="-220"/>
    </contour>
    <contour>
      <point x="318" y="163" type="curve" smooth="yes"/>
      <point x="242" y="163"/>
      <point x="188" y="216"/>
      <point x="188" y="292" type="curve" smooth="yes"/>
      <point x="188" y="369"/>
      <point x="242" y="423"/>
      <point x="318" y="423" type="curve" smooth="yes"/>
      <point x="392" y="423"/>
      <point x="443" y="370"/>
      <point x="443" y="292" type="curve" smooth="yes"/>
      <point x="443" y="214"/>
      <point x="393" y="163"/>
    </contour>
  </outline>
</glyph>
<glyph name="h" format="2">
  <advance width="599"/>
  <unicode hex="0068"/>
  <anchor x="300" y="0" name="bottom"/>
  <anchor x="130" y="640" name="center"/>
  <anchor x="130" y="745" name="top"/>
  <outline>
    <contour>
      <point x="205" y="0" type="line"/>
      <point x="205" y="319" type="line" smooth="yes"/>
      <point x="205" y="382"/>
      <point x="246" y="423"/>
      <point x="305" y="423" type="curve" smooth="yes"/>
      <point x="364" y="423"/>
      <point x="405" y="382"/>
      <point x="405" y="319" type="curve" smooth="yes"/>
      <point x="405" y="0" type="line"/>
      <point x="555" y="0" type="line"/>
      <point x="555" y="351" type="line" smooth="yes"/>
      <point x="555" y="475"/>
      <point x="471" y="558"/>
      <point x="348" y="558" type="curve" smooth="yes"/>
      <point x="272" y="558"/>
      <point x="212" y="527"/>
      <point x="187" y="462" type="curve"/>
      <point x="205" y="438" type="line"/>
      <point x="205" y="757" type="line"/>
      <point x="55" y="757" type="line"/>
      <point x="55" y="0" type="line"/>
    </contour>
  </outline>
</glyph>
<glyph name="i" format="2">
  <advance width="260"/>
  <unicode hex="0069"/>
  <anchor x="130" y="0" name="bottom"/>
  <outline>
    <contour>
      <point x="205" y="0" type="line"/>
      <point x="205" y="546" type="line"/>
      <point x="55" y="546" type="line"/>
      <point x="55" y="0" type="line"/>
    </contour>
    <contour>
      <point x="205" y="595" type="line"/>
      <point x="205" y="745" type="line"/>
      <point x="55" y="745" type="line"/>
      <point x="55" y="595" type="line"/>
    </contour>
  </outline>
</glyph>
<glyph name="k" format="2">
  <advance width="586"/>
  <unicode hex="006B"/>
  <anchor x="293" y="0" name="bottom"/>
  <anchor x="130" y="745" name="top"/>
  <outline>
    <contour>
      <point x="205" y="0" type="line"/>
      <point x="205" y="204" type="line"/>
      <point x="159" y="117" type="line"/>
      <point x="326" y="299" type="line"/>
      <point x="239" y="277" type="line"/>
      <point x="404" y="0" type="line"/>
      <point x="574" y="0" type="line"/>
      <point x="377" y="326" type="line"/>
      <point x="575" y="546" type="line"/>
      <point x="390" y="546" type="line"/>
      <point x="149" y="290" type="line"/>
      <point x="205" y="272" type="line"/>
      <point x="205" y="757" type="line"/>
      <point x="55" y="757" type="line"/>
      <point x="55" y="0" type="line"/>
    </contour>
  </outline>
</glyph>
<glyph name="m" format="2">
  <advance width="929"/>
  <unicode hex="006D"/>
  <anchor x="465" y="0" name="bottom"/>
  <anchor x="465" y="546" name="top"/>
  <outline>
    <contour>
      <point x="205" y="0" type="line"/>
      <point x="205" y="319" type="line" smooth="yes"/>
      <point x="205" y="382"/>
      <point x="241" y="423"/>
      <point x="300" y="423" type="curve" smooth="yes"/>
      <point x="359" y="423"/>
      <point x="395" y="382"/>
      <point x="395" y="319" type="curve" smooth="yes"/>
      <point x="395" y="0" type="line"/>
      <point x="545" y="0" type="line"/>
      <point x="545" y="319" type="line" smooth="yes"/>
      <point x="545" y="382"/>
      <point x="581" y="423"/>
      <point x="640" y="423" type="curve" smooth="yes"/>
      <point x="699" y="423"/>
      <point x="735" y="382"/>
      <point x="735" y="319" type="curve" smooth="yes"/>
      <point x="735" y="0" type="line"/>
      <point x="885" y="0" type="line"/>
      <point x="885" y="351" type="line" smooth="yes"/>
      <point x="885" y="475"/>
      <point x="801" y="558"/>
      <point x="683" y="558" type="curve" smooth="yes"/>
      <point x="594" y="558"/>
      <point x="525" y="516"/>
      <point x="489" y="427" type="curve"/>
      <point x="532" y="431" type="line"/>
      <point x="514" y="508"/>
      <point x="439" y="558"/>
      <point x="348" y="558" type="curve" smooth="yes"/>
      <point x="262" y="558"/>
      <point x="196" y="519"/>
      <point x="180" y="435" type="curve"/>
      <point x="195" y="413" type="line"/>
      <point x="195" y="546" type="line"/>
      <point x="55" y="546" type="line"/>
      <point x="55" y="0" type="line"/>
    </contour>
  </outline>
</glyph>
<glyph name="o" format="2">
  <advance width="651"/>
  <unicode hex="006F"/>
  <anchor x="326" y="0" name="bottom"/>
  <anchor x="326" y="273" name="center"/>
  <anchor x="376" y="0" name="ogonek"/>
  <anchor x="326" y="546" name="top"/>
  <anchor x="631" y="546" name="topright"/>
  <outline>
    <contour>
      <point x="326" y="-12" type="curve" smooth="yes"/>
      <point x="487" y="-12"/>
      <point x="618" y="108"/>
      <point x="618" y="273" type="curve" smooth="yes"/>
      <point x="618" y="438"/>
      <point x="487" y="558"/>
      <point x="326" y="558" type="curve" smooth="yes"/>
      <point x="164" y="558"/>
      <point x="33" y="438"/>
      <point x="33" y="273" type="curve" smooth="yes"/>
      <point x="33" y="108"/>
      <point x="164" y="-12"/>
    </contour>
    <contour>
      <point x="326" y="123" type="curve" smooth="yes"/>
      <point x="244" y="123"/>
      <point x="188" y="185"/>
      <point x="188" y="273" type="curve" smooth="yes"/>
      <point x="188" y="360"/>
      <point x="244" y="423"/>
      <point x="326" y="423" type="curve" smooth="yes"/>
      <point x="407" y="423"/>
      <point x="463" y="360"/>
      <point x="463" y="273" type="curve" smooth="yes"/>
      <point x="463" y="185"/>
      <point x="407" y="123"/>
    </contour>
  </outline>
</glyph>
<glyph name="q" format="2">
  <advance width="673"/>
  <unicode hex="0071"/>
  <anchor x="337" y="0" name="bottom"/>
  <anchor x="337" y="546" name="top"/>
  <outline>
    <contour>
      <point x="618" y="-200" type="line"/>
      <point x="618" y="546" type="line"/>
      <point x="478" y="546" type="line"/>
      <point x="478" y="442" type="line"/>
      <point x="491" y="472" type="line"/>
      <point x="455" y="527"/>
      <point x="391" y="558"/>
      <point x="311" y="558" type="curve" smooth="yes"/>
      <point x="155" y="558"/>
      <point x="33" y="433"/>
      <point x="33" y="273" type="curve" smooth="yes"/>
      <point x="33" y="114"/>
      <point x="152" y="-12"/>
      <point x="312" y="-12" type="curve" smooth="yes"/>
      <point x="387" y="-12"/>
      <point x="454" y="16"/>
      <point x="492" y="69" type="curve"/>
      <point x="468" y="100" type="line"/>
      <point x="468" y="-200" type="line"/>
    </contour>
    <contour>
      <point x="330" y="123" type="curve" smooth="yes"/>
      <point x="247" y="123"/>
      <point x="188" y="185"/>
      <point x="188" y="273" type="curve" smooth="yes"/>
      <point x="188" y="360"/>
      <point x="247" y="423"/>
      <point x="330" y="423" type="curve" smooth="yes"/>
      <point x="411" y="423"/>
      <point x="468" y="361"/>
      <point x="468" y="273" type="curve" smooth="yes"/>
      <point x="468" y="184"/>
      <point x="411" y="123"/>
    </contour>
  </outline>
</glyph>
<glyph name="r" format="2">
  <advance width="386"/>
  <unicode hex="0072"/>
  <anchor x="130" y="0" name="bottom"/>
  <anchor x="215" y="546" name="top"/>
  <outline>
    <contour>
      <point x="205" y="0" type="line"/>
      <point x="205" y="294" type="line" smooth="yes"/>
      <point x="205" y="375"/>
      <point x="255" y="422"/>
      <point x="328" y="422" type="curve" smooth="yes"/>
      <point x="375" y="422" type="line"/>
      <point x="375" y="552" type="line"/>
      <point x="343" y="552" type="line" smooth="yes"/>
      <point x="267" y="552"/>
      <point x="209" y="526"/>
      <point x="185" y="434" type="curve"/>
      <point x="195" y="415" type="line"/>
      <point x="195" y="546" type="line"/>
      <point x="55" y="546" type="line"/>
      <point x="55" y="0" type="line"/>
    </contour>
  </outline>
</glyph>
<glyph name="s" format="2">
  <advance width="515"/>
  <unicode hex="0073"/>
  <anchor x="258" y="0" name="bottom"/>
  <anchor x="258" y="546" name="top"/>
  <outline>
    <contour>
      <point x="269" y="-12" type="curve" smooth="yes"/>
      <point x="396" y="-12"/>
      <point x="480" y="56"/>
      <point x="480" y="158" type="curve" smooth="yes"/>
      <point x="480" y="236"/>
      <point x="431" y="291"/>
      <point x="340" y="318" type="curve" smooth="yes"/>
      <point x="253" y="344" type="line" smooth="yes"/>
      <point x="212" y="356"/>
      <point x="194" y="371"/>
      <point x="194" y="393" type="curve" smooth="yes"/>
      <point x="194" y="421"/>
      <point x="217" y="438"/>
      <point x="256" y="438" type="curve" smooth="yes"/>
      <point x="309" y="438"/>
      <point x="355" y="408"/>
      <point x="371" y="363" type="curve"/>
      <point x="482" y="415" type="line"/>
      <point x="448" y="505"/>
      <point x="363" y="558"/>
      <point x="256" y="558" type="curve" smooth="yes"/>
      <point x="133" y="558"/>
      <point x="49" y="489"/>
      <point x="49" y="388" type="curve" smooth="yes"/>
      <point x="49" y="310"/>
      <point x="99" y="251"/>
      <point x="188" y="226" type="curve" smooth="yes"/>
      <point x="281" y="200" type="line" smooth="yes"/>
      <point x="317" y="190"/>
      <point x="335" y="175"/>
      <point x="335" y="152" type="curve" smooth="yes"/>
      <point x="335" y="121"/>
      <point x="311" y="103"/>
      <point x="269" y="103" type="curve" smooth="yes"/>
      <point x="210" y="103"/>
      <point x="160" y="138"/>
      <point x="132" y="197" type="curve"/>
      <point x="22" y="145" type="line"/>
      <point x="54" y="49"/>
      <point x="149" y="-12"/>
    </contour>
  </outline>
</glyph>
<glyph name="t" format="2">
  <advance width="421"/>
  <unicode hex="0074"/>
  <anchor x="311" y="0" name="bottom"/>
  <anchor x="185" y="273" name="center"/>
  <anchor x="185" y="670" name="top"/>
  <anchor x="324" y="546" name="topright"/>
  <outline>
    <contour>
      <point x="318" y="-6" type="curve" smooth="yes"/>
      <point x="341" y="-6"/>
      <point x="368" y="-3"/>
      <point x="388" y="0" type="curve"/>
      <point x="388" y="127" type="line"/>
      <point x="374" y="125"/>
      <point x="362" y="124"/>
      <point x="353" y="124" type="curve" smooth="yes"/>
      <point x="290" y="124"/>
      <point x="260" y="151"/>
      <point x="260" y="207" type="curve" smooth="yes"/>
      <point x="260" y="416" type="line"/>
      <point x="388" y="416" type="line"/>
      <point x="388" y="546" type="line"/>
      <point x="260" y="546" type="line"/>
      <point x="260" y="670" type="line"/>
      <point x="110" y="670" type="line"/>
      <point x="110" y="630" type="line" smooth="yes"/>
      <point x="110" y="574"/>
      <point x="79" y="546"/>
      <point x="23" y="546" type="curve" smooth="yes"/>
      <point x="18" y="546" type="line"/>
      <point x="18" y="416" type="line"/>
      <point x="110" y="416" type="line"/>
      <point x="110" y="197" type="line" smooth="yes"/>
      <point x="110" y="69"/>
      <point x="186" y="-6"/>
    </contour>
  </outline>
</glyph>
<glyph name="u" format="2">
  <advance width="599"/>
  <unicode hex="0075"/>
  <anchor x="300" y="0" name="bottom"/>
  <anchor x="524" y="0" name="ogonek"/>
  <anchor x="300" y="546" name="top"/>
  <anchor x="579" y="546" name="topright"/>
  <outline>
    <contour>
      <point x="251" y="-12" type="curve" smooth="yes"/>
      <point x="327" y="-12"/>
      <point x="387" y="19"/>
      <point x="412" y="84" type="curve"/>
      <point x="404" y="108" type="line"/>
      <point x="404" y="0" type="line"/>
      <point x="544" y="0" type="line"/>
      <point x="544" y="546" type="line"/>
      <point x="394" y="546" type="line"/>
      <point x="394" y="227" type="line" smooth="yes"/>
      <point x="394" y="164"/>
      <point x="353" y="123"/>
      <point x="294" y="123" type="curve" smooth="yes"/>
      <point x="235" y="123"/>
      <point x="194" y="164"/>
      <point x="194" y="227" type="curve" smooth="yes"/>
      <point x="194" y="546" type="line"/>
      <point x="44" y="546" type="line"/>
      <point x="44" y="215" type="line" smooth="yes"/>
      <point x="44" y="79"/>
      <point x="118" y="-12"/>
    </contour>
  </outline>
</glyph>
<glyph name="v" format="2">
  <advance width="582"/>
  <unicode hex="0076"/>
  <anchor x="291" y="0" name="bottom"/>
  <anchor x="291" y="546" name="top"/>
  <outline>
    <contour>
      <point x="356" y="0" type="line"/>
      <point x="571" y="546" type="line"/>
      <point x="409" y="546" type="line"/>
      <point x="260" y="133" type="line"/>
      <point x="322" y="133" type="line"/>
      <point x="173" y="546" type="line"/>
      <point x="11" y="546" type="line"/>
      <point x="226" y="0" type="line"/>
    </contour>
  </outline>
</glyph>
<glyph name="w" format="2">
  <advance width="912"/>
  <unicode hex="0077"/>
  <anchor x="456" y="0" name="bottom"/>
  <anchor x="456" y="546" name="top"/>
  <outline>
    <contour>
      <point x="329" y="0" type="line"/>
      <point x="482" y="422" type="line"/>
      <point x="430" y="422" type="line"/>
      <point x="582" y="0" type="line"/>
      <point x="712" y="0" type="line"/>
      <point x="901" y="546" type="line"/>
      <point x="745" y="546" type="line"/>
      <point x="613" y="152" type="line"/>
      <point x="667" y="153" type="line"/>
      <point x="521" y="546" type="line"/>
      <point x="391" y="546" type="line"/>
      <point x="244" y="153" type="line"/>
      <point x="298" y="152" type="line"/>
      <point x="166" y="546" type="line"/>
      <point x="11" y="546" type="line"/>
      <point x="199" y="0" type="line"/>
    </contour>
  </outline>
</glyph>
<glyph name="x" format="2">
  <advance width="582"/>
  <unicode hex="0078"/>
  <anchor x="291" y="0" name="bottom"/>
  <anchor x="291" y="546" name="top"/>
  <outline>
    <contour>
      <point x="186" y="0" type="line"/>
      <point x="327" y="212" type="line"/>
      <point x="255" y="212" type="line"/>
      <point x="396" y="0" type="line"/>
      <point x="569" y="0" type="line"/>
      <point x="379" y="274" type="line"/>
      <point x="571" y="546" type="line"/>
      <point x="397" y="546" type="line"/>
      <point x="253" y="334" type="line"/>
      <point x="329" y="334" type="line"/>
      <point x="185" y="546" type="line"/>
      <point x="11" y="546" type="line"/>
      <point x="203" y="274" type="line"/>
      <point x="12" y="0" type="line"/>
    </contour>
  </outline>
</glyph>
<glyph name="y" format="2">
  <advance width="602"/>
  <unicode hex="0079"/>
  <anchor x="552" y="100" name="bottom"/>
  <anchor x="301" y="546" name="top"/>
  <outline>
    <contour>
      <point x="140" y="-220" type="curve" smooth="yes"/>
      <point x="240" y="-220"/>
      <point x="312" y="-164"/>
      <point x="357" y="-51" type="curve" smooth="yes"/>
      <point x="591" y="546" type="line"/>
      <point x="430" y="546" type="line"/>
      <point x="271" y="113" type="line"/>
      <point x="331" y="113" type="line"/>
      <point x="172" y="546" type="line"/>
      <point x="11" y="546" type="line"/>
      <point x="251" y="-63" type="line"/>
      <point x="253" y="62" type="line"/>
      <point x="216" y="-23" type="line" smooth="yes"/>
      <point x="200" y="-58"/>
      <point x="181" y="-90"/>
      <point x="122" y="-90" type="curve" smooth="yes"/>
      <point x="100" y="-90"/>
      <point x="73" y="-86"/>
      <point x="54" y="-80" type="curve"/>
      <point x="54" y="-203" type="line"/>
      <point x="77" y="-215"/>
      <point x="108" y="-220"/>
    </contour>
  </outline>
</glyph>
<glyph name="z" format="2">
  <advance width="492"/>
  <unicode hex="007A"/>
  <anchor x="252" y="0" name="bottom"/>
  <anchor x="252" y="273" name="center"/>
  <anchor x="252" y="546" name="top"/>
  <outline>
    <contour>
      <point x="481" y="0" type="line"/>
      <point x="481" y="130" type="line"/>
      <point x="152" y="130" type="line"/>
      <point x="174" y="79" type="line"/>
      <point x="480" y="426" type="line"/>
      <point x="480" y="546" type="line"/>
      <point x="24" y="546" type="line"/>
      <point x="24" y="416" type="line"/>
      <point x="347" y="416" type="line"/>
      <point x="325" y="466" type="line"/>
      <point x="11" y="120" type="line"/>
      <point x="11" y="0" type="line"/>
    </contour>
  </outline>
</glyph>
<glyph name="braceleft" format="2">
  <advance width="425"/>
  <unicode hex="007B"/>
  <outline>
    <contour>
      <point x="366" y="-180" type="line"/>
      <point x="366" y="-50" type="line"/>
      <point x="316" y="-50" type="line" smooth="yes"/>
      <point x="292" y="-50"/>
      <point x="278" y="-35"/>
      <point x="278" y="-9" type="curve" smooth="yes"/>
      <point x="278" y="155" type="line" smooth="yes"/>
      <point x="278" y="210"/>
      <point x="255" y="255"/>
      <point x="215" y="278" type="curve"/>
      <point x="255" y="304"/>
      <point x="278" y="352"/>
      <point x="278" y="409" type="curve" smooth="yes"/>
      <point x="278" y="574" type="line" smooth="yes"/>
      <point x="278" y="600"/>
      <point x="292" y="615"/>
      <point x="316" y="615" type="curve" smooth="yes"/>
      <point x="366" y="615" type="line"/>
      <point x="366" y="745" type="line"/>
      <point x="316" y="745" type="line" smooth="yes"/>
      <point x="195" y="745"/>
      <point x="128" y="683"/>
      <point x="128" y="578" type="curve" smooth="yes"/>
      <point x="128" y="395" type="line" smooth="yes"/>
      <point x="128" y="361"/>
      <point x="110" y="341"/>
      <point x="80" y="341" type="curve" smooth="yes"/>
      <point x="48" y="341" type="line"/>
      <point x="48" y="211" type="line"/>
      <point x="80" y="211" type="line" smooth="yes"/>
      <point x="110" y="211"/>
      <point x="128" y="191"/>
      <point x="128" y="157" type="curve" smooth="yes"/>
      <point x="128" y="-13" type="line" smooth="yes"/>
      <point x="128" y="-118"/>
      <point x="195" y="-180"/>
      <point x="316" y="-180" type="curve" smooth="yes"/>
    </contour>
  </outline>
</glyph>
<glyph name="braceright" format="2">
  <advance width="425"/>
  <unicode hex="007D"/>
  <outline>
    <contour>
      <point x="109" y="-180" type="line" smooth="yes"/>
      <point x="230" y="-180"/>
      <point x="297" y="-118"/>
      <point x="297" y="-13" type="curve" smooth="yes"/>
      <point x="297" y="157" type="line" smooth="yes"/>
      <point x="297" y="191"/>
      <point x="315" y="211"/>
      <point x="345" y="211" type="curve" smooth="yes"/>
      <point x="377" y="211" type="line"/>
      <point x="377" y="341" type="line"/>
      <point x="345" y="341" type="line" smooth="yes"/>
      <point x="315" y="341"/>
      <point x="297" y="361"/>
      <point x="297" y="395" type="curve" smooth="yes"/>
      <point x="297" y="578" type="line" smooth="yes"/>
      <point x="297" y="683"/>
      <point x="230" y="745"/>
      <point x="109" y="745" type="curve" smooth="yes"/>
      <point x="59" y="745" type="line"/>
      <point x="59" y="615" type="line"/>
      <point x="109" y="615" type="line" smooth="yes"/>
      <point x="133" y="615"/>
      <point x="147" y="600"/>
      <point x="147" y="574" type="curve" smooth="yes"/>
      <point x="147" y="409" type="line" smooth="yes"/>
      <point x="147" y="352"/>
      <point x="170" y="304"/>
      <point x="210" y="278" type="curve"/>
      <point x="170" y="255"/>
      <point x="147" y="210"/>
      <point x="147" y="155" type="curve" smooth="yes"/>
      <point x="147" y="-9" type="line" smooth="yes"/>
      <point x="147" y="-35"/>
      <point x="133" y="-50"/>
      <point x="109" y="-50" type="curve" smooth="yes"/>
      <point x="59" y="-50" type="line"/>
      <point x="59" y="-180" type="line"/>
    </contour>
  </outline>
</glyph>
<glyph name="asciitilde" format="2">
  <advance width="678"/>
  <unicode hex="007E"/>
  <outline>
    <contour>
      <point x="435" y="180" type="curve" smooth="yes"/>
      <point x="529" y="180"/>
      <point x="581" y="243"/>
      <point x="588" y="362" type="curve"/>
      <point x="469" y="362" type="line"/>
      <point x="462" y="319"/>
      <point x="444" y="303"/>
      <point x="417" y="303" type="curve" smooth="yes"/>
      <point x="365" y="303"/>
      <point x="337" y="367"/>
      <point x="246" y="367" type="curve" smooth="yes"/>
      <point x="151" y="367"/>
      <point x="97" y="304"/>
      <point x="90" y="185" type="curve"/>
      <point x="210" y="185" type="line"/>
      <point x="215" y="225"/>
      <point x="234" y="244"/>
      <point x="263" y="244" type="curve" smooth="yes"/>
      <point x="316" y="244"/>
      <point x="343" y="180"/>
    </contour>
  </outline>
</glyph>
<glyph name="exclamdown" format="2">
  <advance width="400"/>
  <unicode hex="00A1"/>
  <outline>
    <contour>
      <point x="275" y="-199" type="line"/>
      <point x="265" y="316" type="line"/>
      <point x="135" y="316" type="line"/>
      <point x="125" y="-199" type="line"/>
    </contour>
    <contour>
      <point x="275" y="396" type="line"/>
      <point x="275" y="546" type="line"/>
      <point x="125" y="546" type="line"/>
      <point x="125" y="396" type="line"/>
    </contour>
  </outline>
</glyph>
<glyph name="cent" format="2">
  <advance width="611"/>
  <unicode hex="00A2"/>
  <outline>
    <contour>
      <point x="323" y="88" type="curve" smooth="yes"/>
      <point x="447" y="88"/>
      <point x="547" y="158"/>
      <point x="578" y="255" type="curve"/>
      <point x="448" y="312" type="line"/>
      <point x="429" y="257"/>
      <point x="383" y="223"/>
      <point x="323" y="223" type="curve" smooth="yes"/>
      <point x="244" y="223"/>
      <point x="188" y="285"/>
      <point x="188" y="373" type="curve" smooth="yes"/>
      <point x="188" y="461"/>
      <point x="244" y="523"/>
      <point x="323" y="523" type="curve" smooth="yes"/>
      <point x="382" y="523"/>
      <point x="429" y="489"/>
      <point x="448" y="434" type="curve"/>
      <point x="578" y="490" type="line"/>
      <point x="545" y="591"/>
      <point x="445" y="658"/>
      <point x="323" y="658" type="curve" smooth="yes"/>
      <point x="158" y="658"/>
      <point x="33" y="536"/>
      <point x="33" y="374" type="curve" smooth="yes"/>
      <point x="33" y="211"/>
      <point x="159" y="88"/>
    </contour>
    <contour>
      <point x="367" y="0" type="line"/>
      <point x="367" y="745" type="line"/>
      <point x="277" y="745" type="line"/>
      <point x="277" y="0" type="line"/>
    </contour>
  </outline>
</glyph>
<glyph name="currency" format="2">
  <advance width="596"/>
  <unicode hex="00A4"/>
  <outline>
    <contour>
      <point x="198" y="83" type="line"/>
      <point x="228" y="67"/>
      <point x="262" y="58"/>
      <point x="298" y="58" type="curve" smooth="yes"/>
      <point x="335" y="58"/>
      <point x="369" y="67"/>
      <point x="399" y="83" type="curve"/>
      <point x="478" y="4" type="line"/>
      <point x="563" y="89" type="line"/>
      <point x="484" y="168" type="line"/>
      <point x="500" y="198"/>
      <point x="509" y="232"/>
      <point x="509" y="269" type="curve" smooth="yes"/>
      <point x="509" y="305"/>
      <point x="500" y="339"/>
      <point x="484" y="369" type="curve"/>
      <point x="563" y="449" type="line"/>
      <point x="478" y="534" type="line"/>
      <point x="399" y="454" type="line"/>
      <point x="369" y="471"/>
      <point x="335" y="480"/>
      <point x="298" y="480" type="curve" smooth="yes"/>
      <point x="262" y="480"/>
      <point x="228" y="471"/>
      <point x="198" y="454" type="curve"/>
      <point x="118" y="534" type="line"/>
      <point x="33" y="449" type="line"/>
      <point x="113" y="369" type="line"/>
      <point x="96" y="339"/>
      <point x="87" y="305"/>
      <point x="87" y="269" type="curve" smooth="yes"/>
      <point x="87" y="232"/>
      <point x="96" y="198"/>
      <point x="113" y="168" type="curve"/>
      <point x="33" y="89" type="line"/>
      <point x="118" y="4" type="line"/>
    </contour>
    <contour>
      <point x="298" y="188" type="curve" smooth="yes"/>
      <point x="253" y="188"/>
      <point x="217" y="224"/>
      <point x="217" y="269" type="curve" smooth="yes"/>
      <point x="217" y="314"/>
      <point x="253" y="350"/>
      <point x="298" y="350" type="curve" smooth="yes"/>
      <point x="343" y="350"/>
      <point x="379" y="314"/>
      <point x="379" y="269" type="curve" smooth="yes"/>
      <point x="379" y="224"/>
      <point x="343" y="188"/>
    </contour>
  </outline>
</glyph>
<glyph name="yen" format="2">
  <advance width="672"/>
  <unicode hex="00A5"/>
  <outline>
    <contour>
      <point x="414" y="0" type="line"/>
      <point x="414" y="326" type="line"/>
      <point x="661" y="745" type="line"/>
      <point x="484" y="745" type="line"/>
      <point x="305" y="429" type="line"/>
      <point x="368" y="429" type="line"/>
      <point x="188" y="745" type="line"/>
      <point x="11" y="745" type="line"/>
      <point x="259" y="325" type="line"/>
      <point x="259" y="0" type="line"/>
    </contour>
    <contour>
      <point x="558" y="282" type="line"/>
      <point x="558" y="372" type="line"/>
      <point x="114" y="372" type="line"/>
      <point x="114" y="282" type="line"/>
    </contour>
    <contour>
      <point x="558" y="142" type="line"/>
      <point x="558" y="232" type="line"/>
      <point x="114" y="232" type="line"/>
      <point x="114" y="142" type="line"/>
    </contour>
  </outline>
</glyph>
<glyph name="brokenbar" format="2">
  <advance width="426"/>
  <unicode hex="00A6"/>
  <outline>
    <contour>
      <point x="288" y="428" type="line"/>
      <point x="288" y="845" type="line"/>
      <point x="138" y="845" type="line"/>
      <point x="138" y="428" type="line"/>
    </contour>
    <contour>
      <point x="288" y="-190" type="line"/>
      <point x="288" y="228" type="line"/>
      <point x="138" y="228" type="line"/>
      <point x="138" y="-190" type="line"/>
    </contour>
  </outline>
</glyph>
<glyph name="section" format="2">
  <advance width="535"/>
  <unicode hex="00A7"/>
  <outline>
    <contour>
      <point x="280" y="-95" type="curve" smooth="yes"/>
      <point x="412" y="-95"/>
      <point x="500" y="-23"/>
      <point x="500" y="83" type="curve" smooth="yes"/>
      <point x="500" y="164"/>
      <point x="449" y="223"/>
      <point x="353" y="251" type="curve" smooth="yes"/>
      <point x="278" y="273" type="line" smooth="yes"/>
      <point x="221" y="289"/>
      <point x="196" y="315"/>
      <point x="196" y="354" type="curve" smooth="yes"/>
      <point x="196" y="397"/>
      <point x="222" y="425"/>
      <point x="266" y="425" type="curve"/>
      <point x="266" y="506" type="line"/>
      <point x="139" y="506"/>
      <point x="50" y="434"/>
      <point x="50" y="328" type="curve" smooth="yes"/>
      <point x="50" y="248"/>
      <point x="102" y="185"/>
      <point x="197" y="159" type="curve" smooth="yes"/>
      <point x="294" y="132" type="line" smooth="yes"/>
      <point x="334" y="121"/>
      <point x="355" y="103"/>
      <point x="355" y="77" type="curve" smooth="yes"/>
      <point x="355" y="42"/>
      <point x="326" y="22"/>
      <point x="280" y="22" type="curve" smooth="yes"/>
      <point x="217" y="22"/>
      <point x="163" y="59"/>
      <point x="133" y="122" type="curve"/>
      <point x="22" y="70" type="line"/>
      <point x="56" y="-31"/>
      <point x="156" y="-95"/>
    </contour>
    <contour>
      <point x="280" y="156" type="line"/>
      <point x="412" y="156"/>
      <point x="500" y="228"/>
      <point x="500" y="334" type="curve" smooth="yes"/>
      <point x="500" y="415"/>
      <point x="449" y="474"/>
      <point x="353" y="502" type="curve" smooth="yes"/>
      <point x="260" y="529" type="line" smooth="yes"/>
      <point x="222" y="540"/>
      <point x="196" y="556"/>
      <point x="196" y="585" type="curve" smooth="yes"/>
      <point x="196" y="616"/>
      <point x="222" y="636"/>
      <point x="266" y="636" type="curve" smooth="yes"/>
      <point x="322" y="636"/>
      <point x="372" y="604"/>
      <point x="390" y="555" type="curve"/>
      <point x="502" y="607" type="line"/>
      <point x="465" y="704"/>
      <point x="374" y="757"/>
      <point x="266" y="757" type="curve" smooth="yes"/>
      <point x="139" y="757"/>
      <point x="50" y="685"/>
      <point x="50" y="579" type="curve" smooth="yes"/>
      <point x="50" y="499"/>
      <point x="102" y="436"/>
      <point x="197" y="410" type="curve" smooth="yes"/>
      <point x="276" y="388" type="line" smooth="yes"/>
      <point x="335" y="372"/>
      <point x="355" y="343"/>
      <point x="355" y="308" type="curve" smooth="yes"/>
      <point x="355" y="260"/>
      <point x="326" y="233"/>
      <point x="280" y="233" type="curve"/>
    </contour>
  </outline>
</glyph>
<glyph name="copyright" format="2">
  <advance width="952"/>
  <unicode hex="00A9"/>
  <outline>
    <contour>
      <point x="477" y="-12" type="curve" smooth="yes"/>
      <point x="690" y="-12"/>
      <point x="861" y="161"/>
      <point x="861" y="374" type="curve" smooth="yes"/>
      <point x="861" y="587"/>
      <point x="688" y="757"/>
      <point x="477" y="757" type="curve" smooth="yes"/>
      <point x="262" y="757"/>
      <point x="91" y="586"/>
      <point x="91" y="374" type="curve" smooth="yes"/>
      <point x="91" y="160"/>
      <point x="263" y="-12"/>
    </contour>
    <contour>
      <point x="477" y="88" type="curve" smooth="yes"/>
      <point x="317" y="88"/>
      <point x="191" y="214"/>
      <point x="191" y="374" type="curve" smooth="yes"/>
      <point x="191" y="531"/>
      <point x="317" y="658"/>
      <point x="477" y="658" type="curve" smooth="yes"/>
      <point x="633" y="658"/>
      <point x="761" y="532"/>
      <point x="761" y="374" type="curve" smooth="yes"/>
      <point x="761" y="214"/>
      <point x="634" y="88"/>
    </contour>
    <contour>
      <point x="481" y="163" type="curve" smooth="yes"/>
      <point x="571" y="163"/>
      <point x="640" y="210"/>
      <point x="661" y="276" type="curve"/>
      <point x="562" y="313" type="line"/>
      <point x="550" y="283"/>
      <point x="519" y="261"/>
      <point x="481" y="261" type="curve" smooth="yes"/>
      <point x="420" y="261"/>
      <point x="381" y="307"/>
      <point x="381" y="373" type="curve" smooth="yes"/>
      <point x="381" y="438"/>
      <point x="420" y="484"/>
      <point x="481" y="484" type="curve" smooth="yes"/>
      <point x="521" y="484"/>
      <point x="550" y="461"/>
      <point x="562" y="432" type="curve"/>
      <point x="661" y="469" type="line"/>
      <point x="640" y="535"/>
      <point x="571" y="582"/>
      <point x="481" y="582" type="curve" smooth="yes"/>
      <point x="361" y="582"/>
      <point x="271" y="494"/>
      <point x="271" y="373" type="curve" smooth="yes"/>
      <point x="271" y="253"/>
      <point x="362" y="163"/>
    </contour>
  </outline>
</glyph>
<glyph name="ordfeminine" format="2">
  <advance width="442"/>
  <unicode hex="00AA"/>
  <outline>
    <contour>
      <point x="169" y="353" type="curve" smooth="yes"/>
      <point x="230" y="353"/>
      <point x="271" y="375"/>
      <point x="307" y="426" type="curve"/>
      <point x="279" y="421" type="line"/>
      <point x="279" y="362" type="line"/>
      <point x="387" y="362" type="line"/>
      <point x="387" y="613" type="line" smooth="yes"/>
      <point x="387" y="697"/>
      <point x="317" y="755"/>
      <point x="219" y="755" type="curve" smooth="yes"/>
      <point x="136" y="755"/>
      <point x="68" y="714"/>
      <point x="45" y="647" type="curve"/>
      <point x="137" y="604" type="line"/>
      <point x="148" y="635"/>
      <point x="176" y="659"/>
      <point x="214" y="659" type="curve" smooth="yes"/>
      <point x="249" y="659"/>
      <point x="271" y="638"/>
      <point x="271" y="613" type="curve" smooth="yes"/>
      <point x="271" y="513" type="line" smooth="yes"/>
      <point x="271" y="471"/>
      <point x="239" y="437"/>
      <point x="193" y="437" type="curve" smooth="yes"/>
      <point x="169" y="437"/>
      <point x="153" y="449"/>
      <point x="153" y="469" type="curve" smooth="yes"/>
      <point x="153" y="493"/>
      <point x="168" y="501"/>
      <point x="192" y="506" type="curve" smooth="yes"/>
      <point x="283" y="523" type="line"/>
      <point x="283" y="607" type="line"/>
      <point x="171" y="589" type="line" smooth="yes"/>
      <point x="79" y="574"/>
      <point x="33" y="531"/>
      <point x="33" y="465" type="curve" smooth="yes"/>
      <point x="33" y="395"/>
      <point x="85" y="353"/>
    </contour>
  </outline>
</glyph>
<glyph name="guillemetleft" format="2">
  <advance width="718"/>
  <unicode hex="00AB"/>
  <outline>
    <contour>
      <point x="367" y="69" type="line"/>
      <point x="215" y="269" type="line"/>
      <point x="367" y="469" type="line"/>
      <point x="204" y="469" type="line"/>
      <point x="50" y="269" type="line"/>
      <point x="204" y="69" type="line"/>
    </contour>
    <contour>
      <point x="667" y="69" type="line"/>
      <point x="515" y="269" type="line"/>
      <point x="667" y="469" type="line"/>
      <point x="504" y="469" type="line"/>
      <point x="350" y="269" type="line"/>
      <point x="504" y="69" type="line"/>
    </contour>
  </outline>
</glyph>
<glyph name="logicalnot" format="2">
  <advance width="678"/>
  <unicode hex="00AC"/>
  <outline>
    <contour>
      <point x="589" y="40" type="line"/>
      <point x="589" y="313" type="line"/>
      <point x="89" y="313" type="line"/>
      <point x="89" y="188" type="line"/>
      <point x="464" y="188" type="line"/>
      <point x="464" y="40" type="line"/>
    </contour>
  </outline>
</glyph>
<glyph name="registered" format="2">
  <advance width="694"/>
  <unicode hex="00AE"/>
  <outline>
    <contour>
      <point x="348" y="271" type="curve" smooth="yes"/>
      <point x="490" y="271"/>
      <point x="603" y="387"/>
      <point x="603" y="528" type="curve" smooth="yes"/>
      <point x="603" y="671"/>
      <point x="488" y="784"/>
      <point x="348" y="784" type="curve" smooth="yes"/>
      <point x="205" y="784"/>
      <point x="91" y="671"/>
      <point x="91" y="528" type="curve" smooth="yes"/>
      <point x="91" y="387"/>
      <point x="205" y="271"/>
    </contour>
    <contour>
      <point x="348" y="346" type="curve" smooth="yes"/>
      <point x="247" y="346"/>
      <point x="165" y="426"/>
      <point x="165" y="528" type="curve" smooth="yes"/>
      <point x="165" y="628"/>
      <point x="245" y="711"/>
      <point x="348" y="711" type="curve" smooth="yes"/>
      <point x="446" y="711"/>
      <point x="529" y="629"/>
      <point x="529" y="528" type="curve" smooth="yes"/>
      <point x="529" y="427"/>
      <point x="448" y="346"/>
    </contour>
    <contour>
      <point x="315" y="392" type="line"/>
      <point x="315" y="483" type="line"/>
      <point x="330" y="483" type="line"/>
      <point x="380" y="392" type="line"/>
      <point x="464" y="392" type="line"/>
      <point x="409" y="490" type="line"/>
      <point x="437" y="505"/>
      <point x="461" y="528"/>
      <point x="461" y="572" type="curve" smooth="yes"/>
      <point x="461" y="637"/>
      <point x="416" y="664"/>
      <point x="358" y="664" type="curve" smooth="yes"/>
      <point x="235" y="664" type="line"/>
      <point x="235" y="392" type="line"/>
    </contour>
    <contour>
      <point x="315" y="597" type="line"/>
      <point x="360" y="597" type="line" smooth="yes"/>
      <point x="375" y="597"/>
      <point x="384" y="588"/>
      <point x="384" y="573" type="curve" smooth="yes"/>
      <point x="384" y="560"/>
      <point x="375" y="549"/>
      <point x="360" y="549" type="curve" smooth="yes"/>
      <point x="315" y="549" type="line"/>
    </contour>
  </outline>
</glyph>
<glyph name="degree" format="2">
  <advance width="552"/>
  <unicode hex="00B0"/>
  <outline>
    <contour>
      <point x="276" y="417" type="curve" smooth="yes"/>
      <point x="370" y="417"/>
      <point x="446" y="493"/>
      <point x="446" y="587" type="curve" smooth="yes"/>
      <point x="446" y="681"/>
      <point x="370" y="757"/>
      <point x="276" y="757" type="curve" smooth="yes"/>
      <point x="182" y="757"/>
      <point x="106" y="681"/>
      <point x="106" y="587" type="curve" smooth="yes"/>
      <point x="106" y="493"/>
      <point x="182" y="417"/>
    </contour>
    <contour>
      <point x="276" y="517" type="curve" smooth="yes"/>
      <point x="237" y="517"/>
      <point x="206" y="548"/>
      <point x="206" y="587" type="curve" smooth="yes"/>
      <point x="206" y="626"/>
      <point x="237" y="657"/>
      <point x="276" y="657" type="curve" smooth="yes"/>
      <point x="315" y="657"/>
      <point x="346" y="626"/>
      <point x="346" y="587" type="curve" smooth="yes"/>
      <point x="346" y="548"/>
      <point x="315" y="517"/>
    </contour>
  </outline>
</glyph>
<glyph name="plusminus" format="2">
  <advance width="678"/>
  <unicode hex="00B1"/>
  <outline>
    <contour>
      <point x="402" y="195" type="line"/>
      <point x="402" y="333" type="line"/>
      <point x="589" y="333" type="line"/>
      <point x="589" y="458" type="line"/>
      <point x="402" y="458" type="line"/>
      <point x="402" y="595" type="line"/>
      <point x="277" y="595" type="line"/>
      <point x="277" y="458" type="line"/>
      <point x="89" y="458" type="line"/>
      <point x="89" y="333" type="line"/>
      <point x="277" y="333" type="line"/>
      <point x="277" y="195" type="line"/>
    </contour>
    <contour>
      <point x="589" y="0" type="line"/>
      <point x="589" y="125" type="line"/>
      <point x="89" y="125" type="line"/>
      <point x="89" y="0" type="line"/>
    </contour>
  </outline>
</glyph>
<glyph name="micro" format="2">
  <advance width="599"/>
  <unicode hex="00B5"/>
  <outline>
    <contour>
      <point x="194" y="-140" type="line"/>
      <point x="194" y="61" type="line"/>
      <point x="154" y="7" type="line"/>
      <point x="183" y="-6"/>
      <point x="215" y="-12"/>
      <point x="251" y="-12" type="curve" smooth="yes"/>
      <point x="337" y="-12"/>
      <point x="403" y="27"/>
      <point x="419" y="111" type="curve"/>
      <point x="404" y="133" type="line"/>
      <point x="404" y="0" type="line"/>
      <point x="544" y="0" type="line"/>
      <point x="544" y="546" type="line"/>
      <point x="394" y="546" type="line"/>
      <point x="394" y="227" type="line" smooth="yes"/>
      <point x="394" y="164"/>
      <point x="353" y="123"/>
      <point x="294" y="123" type="curve" smooth="yes"/>
      <point x="235" y="123"/>
      <point x="194" y="164"/>
      <point x="194" y="227" type="curve" smooth="yes"/>
      <point x="194" y="546" type="line"/>
      <point x="44" y="546" type="line"/>
      <point x="44" y="-140" type="line"/>
    </contour>
  </outline>
</glyph>
<glyph name="paragraph" format="2">
  <advance width="619"/>
  <unicode hex="00B6"/>
  <outline>
    <contour>
      <point x="481" y="-100" type="line"/>
      <point x="481" y="745" type="line"/>
      <point x="326" y="745" type="line" smooth="yes"/>
      <point x="178" y="745"/>
      <point x="81" y="650"/>
      <point x="81" y="508" type="curve" smooth="yes"/>
      <point x="81" y="366"/>
      <point x="178" y="272"/>
      <point x="326" y="272" type="curve"/>
      <point x="326" y="-100" type="line"/>
    </contour>
  </outline>
</glyph>
<glyph name="periodcentered" format="2">
  <advance width="408"/>
  <unicode hex="00B7"/>
  <outline>
    <contour>
      <point x="279" y="198" type="line"/>
      <point x="279" y="348" type="line"/>
      <point x="129" y="348" type="line"/>
      <point x="129" y="198" type="line"/>
    </contour>
  </outline>
</glyph>
<glyph name="ordmasculine" format="2">
  <advance width="481"/>
  <unicode hex="00BA"/>
  <outline>
    <contour>
      <point x="241" y="353" type="curve" smooth="yes"/>
      <point x="354" y="353"/>
      <point x="448" y="438"/>
      <point x="448" y="554" type="curve" smooth="yes"/>
      <point x="448" y="670"/>
      <point x="354" y="755"/>
      <point x="241" y="755" type="curve" smooth="yes"/>
      <point x="127" y="755"/>
      <point x="33" y="670"/>
      <point x="33" y="554" type="curve" smooth="yes"/>
      <point x="33" y="438"/>
      <point x="127" y="353"/>
    </contour>
    <contour>
      <point x="241" y="457" type="curve" smooth="yes"/>
      <point x="188" y="457"/>
      <point x="153" y="497"/>
      <point x="153" y="554" type="curve" smooth="yes"/>
      <point x="153" y="610"/>
      <point x="188" y="651"/>
      <point x="241" y="651" type="curve" smooth="yes"/>
      <point x="293" y="651"/>
      <point x="328" y="611"/>
      <point x="328" y="554" type="curve" smooth="yes"/>
      <point x="328" y="498"/>
      <point x="294" y="457"/>
    </contour>
  </outline>
</glyph>
<glyph name="guillemetright" format="2">
  <advance width="718"/>
  <unicode hex="00BB"/>
  <outline>
    <contour>
      <point x="514" y="69" type="line"/>
      <point x="668" y="269" type="line"/>
      <point x="514" y="469" type="line"/>
      <point x="351" y="469" type="line"/>
      <point x="503" y="269" type="line"/>
      <point x="351" y="69" type="line"/>
    </contour>
    <contour>
      <point x="214" y="69" type="line"/>
      <point x="368" y="269" type="line"/>
      <point x="214" y="469" type="line"/>
      <point x="51" y="469" type="line"/>
      <point x="203" y="269" type="line"/>
      <point x="51" y="69" type="line"/>
    </contour>
  </outline>
</glyph>
<glyph name="questiondown" format="2">
  <advance width="611"/>
  <unicode hex="00BF"/>
  <outline>
    <contour>
      <point x="309" y="-211" type="curve" smooth="yes"/>
      <point x="438" y="-211"/>
      <point x="533" y="-134"/>
      <point x="550" y="-23" type="curve"/>
      <point x="411" y="12" type="line"/>
      <point x="403" y="-39"/>
      <point x="363" y="-71"/>
      <point x="313" y="-71" type="curve" smooth="yes"/>
      <point x="256" y="-71"/>
      <point x="225" y="-40"/>
      <point x="225" y="2" type="curve" smooth="yes"/>
      <point x="225" y="44"/>
      <point x="262" y="70"/>
      <point x="300" y="109" type="curve" smooth="yes"/>
      <point x="342" y="152"/>
      <point x="386" y="205"/>
      <point x="386" y="293" type="curve" smooth="yes"/>
      <point x="386" y="316" type="line"/>
      <point x="246" y="316" type="line"/>
      <point x="246" y="303" type="line" smooth="yes"/>
      <point x="246" y="246"/>
      <point x="208" y="206"/>
      <point x="167" y="167" type="curve" smooth="yes"/>
      <point x="120" y="121"/>
      <point x="70" y="74"/>
      <point x="70" y="-2" type="curve" smooth="yes"/>
      <point x="70" y="-107"/>
      <point x="153" y="-211"/>
    </contour>
    <contour>
      <point x="390" y="396" type="line"/>
      <point x="390" y="546" type="line"/>
      <point x="240" y="546" type="line"/>
      <point x="240" y="396" type="line"/>
    </contour>
  </outline>
</glyph>
<glyph name="AE" format="2">
  <advance width="993"/>
  <unicode hex="00C6"/>
  <anchor x="497" y="0" name="bottom"/>
  <anchor x="497" y="745" name="top"/>
  <outline>
    <contour>
      <point x="179" y="0" type="line"/>
      <point x="229" y="152" type="line"/>
      <point x="470" y="152" type="line"/>
      <point x="470" y="0" type="line"/>
      <point x="970" y="0" type="line"/>
      <point x="971" y="135" type="line"/>
      <point x="625" y="135" type="line"/>
      <point x="625" y="306" type="line"/>
      <point x="951" y="306" type="line"/>
      <point x="951" y="441" type="line"/>
      <point x="625" y="441" type="line"/>
      <point x="625" y="610" type="line"/>
      <point x="971" y="610" type="line"/>
      <point x="971" y="745" type="line"/>
      <point x="263" y="745" type="line"/>
      <point x="11" y="0" type="line"/>
    </contour>
    <contour>
      <point x="378" y="610" type="line"/>
      <point x="470" y="610" type="line"/>
      <point x="470" y="287" type="line"/>
      <point x="272" y="287" type="line"/>
    </contour>
  </outline>
</glyph>
<glyph name="multiply" format="2">
  <advance width="678"/>
  <unicode hex="00D7"/>
  <outline>
    <contour>
      <point x="339" y="147" type="line"/>
      <point x="486" y="0" type="line"/>
      <point x="574" y="89" type="line"/>
      <point x="427" y="236" type="line"/>
      <point x="574" y="382" type="line"/>
      <point x="485" y="470" type="line"/>
      <point x="339" y="324" type="line"/>
      <point x="193" y="470" type="line"/>
      <point x="104" y="382" type="line"/>
      <point x="251" y="236" type="line"/>
      <point x="104" y="89" type="line"/>
      <point x="192" y="0" type="line"/>
    </contour>
  </outline>
</glyph>
<glyph name="Thorn" format="2">
  <advance width="655"/>
  <unicode hex="00DE"/>
  <outline>
    <contour>
      <point x="215" y="0" type="line"/>
      <point x="215" y="135" type="line"/>
      <point x="346" y="135" type="line" smooth="yes"/>
      <point x="498" y="135"/>
      <point x="610" y="219"/>
      <point x="610" y="372" type="curve" smooth="yes"/>
      <point x="610" y="528"/>
      <point x="500" y="610"/>
      <point x="346" y="610" type="curve" smooth="yes"/>
      <point x="215" y="610" type="line"/>
      <point x="215" y="745" type="line"/>
      <point x="60" y="745" type="line"/>
      <point x="60" y="0" type="line"/>
    </contour>
    <contour>
      <point x="215" y="475" type="line"/>
      <point x="347" y="475" type="line" smooth="yes"/>
      <point x="412" y="475"/>
      <point x="455" y="434"/>
      <point x="455" y="372" type="curve" smooth="yes"/>
      <point x="455" y="311"/>
      <point x="412" y="270"/>
      <point x="347" y="270" type="curve" smooth="yes"/>
      <point x="215" y="270" type="line"/>
    </contour>
  </outline>
</glyph>
<glyph name="germandbls" format="2">
  <advance width="654"/>
  <unicode hex="00DF"/>
  <outline>
    <contour>
      <point x="216" y="-160" type="line"/>
      <point x="216" y="490" type="line" smooth="yes"/>
      <point x="216" y="578"/>
      <point x="264" y="627"/>
      <point x="336" y="627" type="curve" smooth="yes"/>
      <point x="395" y="627"/>
      <point x="435" y="592"/>
      <point x="435" y="542" type="curve" smooth="yes"/>
      <point x="435" y="495"/>
      <point x="398" y="460"/>
      <point x="346" y="460" type="curve" smooth="yes"/>
      <point x="296" y="460" type="line"/>
      <point x="296" y="330" type="line"/>
      <point x="356" y="330" type="line" smooth="yes"/>
      <point x="423" y="330"/>
      <point x="466" y="292"/>
      <point x="466" y="232" type="curve" smooth="yes"/>
      <point x="466" y="171"/>
      <point x="421" y="130"/>
      <point x="356" y="130" type="curve" smooth="yes"/>
      <point x="296" y="130" type="line"/>
      <point x="296" y="0" type="line"/>
      <point x="366" y="0" type="line" smooth="yes"/>
      <point x="523" y="0"/>
      <point x="621" y="89"/>
      <point x="621" y="232" type="curve" smooth="yes"/>
      <point x="621" y="330"/>
      <point x="577" y="387"/>
      <point x="464" y="423" type="curve"/>
      <point x="472" y="380" type="line"/>
      <point x="549" y="406"/>
      <point x="590" y="470"/>
      <point x="590" y="539" type="curve" smooth="yes"/>
      <point x="590" y="669"/>
      <point x="489" y="757"/>
      <point x="336" y="757" type="curve" smooth="yes"/>
      <point x="180" y="757"/>
      <point x="66" y="656"/>
      <point x="66" y="490" type="curve" smooth="yes"/>
      <point x="66" y="-160" type="line"/>
    </contour>
  </outline>
</glyph>
<glyph name="ae" format="2">
  <advance width="961"/>
  <unicode hex="00E6"/>
  <anchor x="481" y="0" name="bottom"/>
  <anchor x="481" y="546" name="top"/>
  <outline>
    <contour>
      <point x="224" y="-12" type="curve" smooth="yes"/>
      <point x="310" y="-12"/>
      <point x="370" y="19"/>
      <point x="419" y="87" type="curve"/>
      <point x="388" y="118" type="line"/>
      <point x="388" y="0" type="line"/>
      <point x="511" y="0" type="line"/>
      <point x="511" y="118" type="line"/>
      <point x="478" y="87" type="line"/>
      <point x="527" y="19"/>
      <point x="600" y="-12"/>
      <point x="688" y="-12" type="curve" smooth="yes"/>
      <point x="780" y="-12"/>
      <point x="870" y="41"/>
      <point x="903" y="121" type="curve"/>
      <point x="783" y="178" type="line"/>
      <point x="762" y="141"/>
      <point x="723" y="118"/>
      <point x="670" y="118" type="curve" smooth="yes"/>
      <point x="596" y="118"/>
      <point x="548" y="162"/>
      <point x="539" y="231" type="curve"/>
      <point x="921" y="231" type="line"/>
      <point x="926" y="246"/>
      <point x="928" y="267"/>
      <point x="928" y="289" type="curve" smooth="yes"/>
      <point x="928" y="440"/>
      <point x="831" y="558"/>
      <point x="658" y="558" type="curve" smooth="yes"/>
      <point x="571" y="558"/>
      <point x="496" y="520"/>
      <point x="446" y="460" type="curve"/>
      <point x="500" y="460" type="line"/>
      <point x="463" y="520"/>
      <point x="388" y="558"/>
      <point x="294" y="558" type="curve" smooth="yes"/>
      <point x="178" y="558"/>
      <point x="84" y="501"/>
      <point x="52" y="410" type="curve"/>
      <point x="172" y="353" type="line"/>
      <point x="190" y="401"/>
      <point x="233" y="433"/>
      <point x="287" y="433" type="curve" smooth="yes"/>
      <point x="343" y="433"/>
      <point x="378" y="401"/>
      <point x="378" y="360" type="curve" smooth="yes"/>
      <point x="378" y="345" type="line"/>
      <point x="227" y="321" type="line" smooth="yes"/>
      <point x="96" y="300"/>
      <point x="33" y="238"/>
      <point x="33" y="146" type="curve" smooth="yes"/>
      <point x="33" y="47"/>
      <point x="106" y="-12"/>
    </contour>
    <contour>
      <point x="254" y="98" type="curve" smooth="yes"/>
      <point x="216" y="98"/>
      <point x="188" y="117"/>
      <point x="188" y="151" type="curve" smooth="yes"/>
      <point x="188" y="187"/>
      <point x="211" y="205"/>
      <point x="254" y="213" type="curve" smooth="yes"/>
      <point x="378" y="235" type="line"/>
      <point x="378" y="218" type="line" smooth="yes"/>
      <point x="378" y="151"/>
      <point x="328" y="98"/>
    </contour>
    <contour>
      <point x="542" y="341" type="line"/>
      <point x="556" y="404"/>
      <point x="599" y="438"/>
      <point x="658" y="438" type="curve" smooth="yes"/>
      <point x="720" y="438"/>
      <point x="763" y="399"/>
      <point x="769" y="341" type="curve"/>
    </contour>
  </outline>
</glyph>
<glyph name="eth" format="2">
  <advance width="651"/>
  <unicode hex="00F0"/>
  <outline>
    <contour>
      <point x="326" y="-12" type="curve" smooth="yes"/>
      <point x="497" y="-12"/>
      <point x="618" y="108"/>
      <point x="618" y="335" type="curve" smooth="yes"/>
      <point x="618" y="581"/>
      <point x="463" y="796"/>
      <point x="227" y="796" type="curve" smooth="yes"/>
      <point x="182" y="796"/>
      <point x="134" y="788"/>
      <point x="84" y="771" type="curve"/>
      <point x="99" y="651" type="line"/>
      <point x="132" y="661"/>
      <point x="165" y="666"/>
      <point x="197" y="666" type="curve" smooth="yes"/>
      <point x="333" y="666"/>
      <point x="450" y="587"/>
      <point x="459" y="436" type="curve"/>
      <point x="482" y="476" type="line"/>
      <point x="432" y="524"/>
      <point x="387" y="548"/>
      <point x="316" y="548" type="curve" smooth="yes"/>
      <point x="156" y="548"/>
      <point x="33" y="428"/>
      <point x="33" y="270" type="curve" smooth="yes"/>
      <point x="33" y="104"/>
      <point x="168" y="-12"/>
    </contour>
    <contour>
      <point x="326" y="123" type="curve" smooth="yes"/>
      <point x="246" y="123"/>
      <point x="188" y="183"/>
      <point x="188" y="269" type="curve" smooth="yes"/>
      <point x="188" y="353"/>
      <point x="243" y="413"/>
      <point x="326" y="413" type="curve" smooth="yes"/>
      <point x="411" y="413"/>
      <point x="463" y="350"/>
      <point x="463" y="269" type="curve" smooth="yes"/>
      <point x="463" y="185"/>
      <point x="407" y="123"/>
    </contour>
    <contour>
      <point x="569" y="693" type="line"/>
      <point x="569" y="753" type="line"/>
      <point x="215" y="615" type="line"/>
      <point x="215" y="555" type="line"/>
    </contour>
  </outline>
</glyph>
<glyph name="divide" format="2">
  <advance width="678"/>
  <unicode hex="00F7"/>
  <outline>
    <contour>
      <point x="589" y="188" type="line"/>
      <point x="589" y="313" type="line"/>
      <point x="89" y="313" type="line"/>
      <point x="89" y="188" type="line"/>
    </contour>
    <contour>
      <point x="414" y="0" type="line"/>
      <point x="414" y="118" type="line"/>
      <point x="264" y="118" type="line"/>
      <point x="264" y="0" type="line"/>
    </contour>
    <contour>
      <point x="414" y="382" type="line"/>
      <point x="414" y="500" type="line"/>
      <point x="264" y="500" type="line"/>
      <point x="264" y="382" type="line"/>
    </contour>
  </outline>
</glyph>
<glyph name="idotless" format="2">
  <advance width="238"/>
  <unicode hex="0131"/>
  <anchor x="119" y="0" name="bottom"/>
  <anchor x="139" y="0" name="ogonek"/>
  <anchor x="119" y="546" name="top"/>
  <outline>
    <contour>
      <point x="194" y="0" type="line"/>
      <point x="194" y="546" type="line"/>
      <point x="44" y="546" type="line"/>
      <point x="44" y="0" type="line"/>
    </contour>
  </outline>
</glyph>
<glyph name="Eng" format="2">
  <advance width="742"/>
  <unicode hex="014A"/>
  <outline>
    <contour>
      <point x="460" y="-222" type="curve" smooth="yes"/>
      <point x="596" y="-222"/>
      <point x="676" y="-149"/>
      <point x="676" y="-20" type="curve" smooth="yes"/>
      <point x="676" y="745" type="line"/>
      <point x="521" y="745" type="line"/>
      <point x="521" y="235" type="line"/>
      <point x="562" y="248" type="line"/>
      <point x="185" y="745" type="line"/>
      <point x="66" y="745" type="line"/>
      <point x="66" y="0" type="line"/>
      <point x="221" y="0" type="line"/>
      <point x="221" y="520" type="line"/>
      <point x="181" y="507" type="line"/>
      <point x="566" y="-13" type="line"/>
      <point x="526" y="108" type="line"/>
      <point x="526" y="-20" type="line" smooth="yes"/>
      <point x="526" y="-68"/>
      <point x="497" y="-92"/>
      <point x="440" y="-92" type="curve" smooth="yes"/>
      <point x="428" y="-92"/>
      <point x="417" y="-91"/>
      <point x="406" y="-89" type="curve"/>
      <point x="406" y="-217" type="line"/>
      <point x="419" y="-220"/>
      <point x="440" y="-222"/>
    </contour>
  </outline>
</glyph>
<glyph name="eng" format="2">
  <advance width="600"/>
  <unicode hex="014B"/>
  <outline>
    <contour>
      <point x="334" y="-222" type="curve" smooth="yes"/>
      <point x="470" y="-222"/>
      <point x="550" y="-149"/>
      <point x="550" y="-20" type="curve" smooth="yes"/>
      <point x="550" y="351" type="line" smooth="yes"/>
      <point x="550" y="475"/>
      <point x="466" y="558"/>
      <point x="343" y="558" type="curve" smooth="yes"/>
      <point x="267" y="558"/>
      <point x="207" y="527"/>
      <point x="182" y="462" type="curve"/>
      <point x="190" y="438" type="line"/>
      <point x="190" y="546" type="line"/>
      <point x="50" y="546" type="line"/>
      <point x="50" y="0" type="line"/>
      <point x="200" y="0" type="line"/>
      <point x="200" y="319" type="line" smooth="yes"/>
      <point x="200" y="382"/>
      <point x="241" y="423"/>
      <point x="300" y="423" type="curve" smooth="yes"/>
      <point x="359" y="423"/>
      <point x="400" y="382"/>
      <point x="400" y="319" type="curve" smooth="yes"/>
      <point x="400" y="-20" type="line" smooth="yes"/>
      <point x="400" y="-68"/>
      <point x="371" y="-92"/>
      <point x="314" y="-92" type="curve" smooth="yes"/>
      <point x="302" y="-92"/>
      <point x="291" y="-91"/>
      <point x="280" y="-89" type="curve"/>
      <point x="280" y="-217" type="line"/>
      <point x="293" y="-220"/>
      <point x="314" y="-222"/>
    </contour>
  </outline>
</glyph>
<glyph name="OE" format="2">
  <advance width="1207"/>
  <unicode hex="0152"/>
  <outline>
    <contour>
      <point x="439" y="-12" type="curve" smooth="yes"/>
      <point x="549" y="-12"/>
      <point x="647" y="28"/>
      <point x="716" y="105" type="curve"/>
      <point x="684" y="134" type="line"/>
      <point x="684" y="0" type="line"/>
      <point x="1184" y="0" type="line"/>
      <point x="1185" y="135" type="line"/>
      <point x="839" y="135" type="line"/>
      <point x="839" y="306" type="line"/>
      <point x="1165" y="306" type="line"/>
      <point x="1165" y="441" type="line"/>
      <point x="839" y="441" type="line"/>
      <point x="839" y="610" type="line"/>
      <point x="1185" y="610" type="line"/>
      <point x="1185" y="745" type="line"/>
      <point x="684" y="745" type="line"/>
      <point x="684" y="612" type="line"/>
      <point x="716" y="642" type="line"/>
      <point x="647" y="717"/>
      <point x="549" y="757"/>
      <point x="439" y="757" type="curve" smooth="yes"/>
      <point x="213" y="757"/>
      <point x="44" y="592"/>
      <point x="44" y="373" type="curve" smooth="yes"/>
      <point x="44" y="154"/>
      <point x="214" y="-12"/>
    </contour>
    <contour>
      <point x="439" y="128" type="curve" smooth="yes"/>
      <point x="303" y="128"/>
      <point x="199" y="229"/>
      <point x="199" y="373" type="curve" smooth="yes"/>
      <point x="199" y="517"/>
      <point x="303" y="617"/>
      <point x="439" y="617" type="curve" smooth="yes"/>
      <point x="575" y="617"/>
      <point x="679" y="517"/>
      <point x="679" y="373" type="curve" smooth="yes"/>
      <point x="679" y="229"/>
      <point x="575" y="128"/>
    </contour>
  </outline>
</glyph>
<glyph name="oe" format="2">
  <advance width="1045"/>
  <unicode hex="0153"/>
  <outline>
    <contour>
      <point x="326" y="-12" type="curve" smooth="yes"/>
      <point x="427" y="-12"/>
      <point x="515" y="35"/>
      <point x="568" y="110" type="curve"/>
      <point x="514" y="109" type="line"/>
      <point x="563" y="36"/>
      <point x="646" y="-12"/>
      <point x="752" y="-12" type="curve" smooth="yes"/>
      <point x="864" y="-12"/>
      <point x="954" y="41"/>
      <point x="987" y="121" type="curve"/>
      <point x="867" y="178" type="line"/>
      <point x="846" y="141"/>
      <point x="807" y="118"/>
      <point x="754" y="118" type="curve" smooth="yes"/>
      <point x="680" y="118"/>
      <point x="632" y="162"/>
      <point x="623" y="231" type="curve"/>
      <point x="1005" y="231" type="line"/>
      <point x="1010" y="246"/>
      <point x="1012" y="267"/>
      <point x="1012" y="289" type="curve" smooth="yes"/>
      <point x="1012" y="440"/>
      <point x="915" y="558"/>
      <point x="742" y="558" type="curve" smooth="yes"/>
      <point x="645" y="558"/>
      <point x="561" y="511"/>
      <point x="514" y="435" type="curve"/>
      <point x="568" y="436" type="line"/>
      <point x="515" y="511"/>
      <point x="426" y="558"/>
      <point x="326" y="558" type="curve" smooth="yes"/>
      <point x="164" y="558"/>
      <point x="33" y="438"/>
      <point x="33" y="273" type="curve" smooth="yes"/>
      <point x="33" y="108"/>
      <point x="164" y="-12"/>
    </contour>
    <contour>
      <point x="326" y="123" type="curve" smooth="yes"/>
      <point x="244" y="123"/>
      <point x="188" y="185"/>
      <point x="188" y="273" type="curve" smooth="yes"/>
      <point x="188" y="360"/>
      <point x="244" y="423"/>
      <point x="326" y="423" type="curve" smooth="yes"/>
      <point x="407" y="423"/>
      <point x="463" y="360"/>
      <point x="463" y="273" type="curve" smooth="yes"/>
      <point x="463" y="185"/>
      <point x="407" y="123"/>
    </contour>
    <contour>
      <point x="626" y="341" type="line"/>
      <point x="640" y="404"/>
      <point x="683" y="438"/>
      <point x="742" y="438" type="curve" smooth="yes"/>
      <point x="804" y="438"/>
      <point x="847" y="399"/>
      <point x="853" y="341" type="curve"/>
    </contour>
  </outline>
</glyph>
<glyph name="Schwa" format="2">
  <advance width="808"/>
  <unicode hex="018F"/>
  <outline>
    <contour>
      <point x="394" y="-12" type="curve" smooth="yes"/>
      <point x="608" y="-12"/>
      <point x="764" y="152"/>
      <point x="764" y="370" type="curve" smooth="yes"/>
      <point x="764" y="585"/>
      <point x="611" y="757"/>
      <point x="385" y="757" type="curve" smooth="yes"/>
      <point x="242" y="757"/>
      <point x="121" y="687"/>
      <point x="74" y="579" type="curve"/>
      <point x="201" y="518" type="line"/>
      <point x="237" y="581"/>
      <point x="301" y="617"/>
      <point x="383" y="617" type="curve" smooth="yes"/>
      <point x="521" y="617"/>
      <point x="615" y="517"/>
      <point x="608" y="372" type="curve"/>
      <point x="615" y="222"/>
      <point x="522" y="128"/>
      <point x="399" y="128" type="curve" smooth="yes"/>
      <point x="289" y="128"/>
      <point x="211" y="206"/>
      <point x="211" y="313" type="curve" smooth="yes"/>
      <point x="211" y="326"/>
      <point x="212" y="339"/>
      <point x="214" y="352" type="curve"/>
      <point x="141" y="297" type="line"/>
      <point x="636" y="297" type="line"/>
      <point x="636" y="417" type="line"/>
      <point x="51" y="417" type="line"/>
      <point x="46" y="395"/>
      <point x="44" y="371"/>
      <point x="44" y="347" type="curve" smooth="yes"/>
      <point x="44" y="134"/>
      <point x="191" y="-12"/>
    </contour>
  </outline>
</glyph>
<glyph name="florin" format="2">
  <advance width="597"/>
  <unicode hex="0192"/>
  <outline>
    <contour>
      <point x="159" y="-12" type="curve" smooth="yes"/>
      <point x="292" y="-12"/>
      <point x="374" y="58"/>
      <point x="374" y="200" type="curve" smooth="yes"/>
      <point x="374" y="308" type="line"/>
      <point x="491" y="308" type="line"/>
      <point x="491" y="438" type="line"/>
      <point x="374" y="438" type="line"/>
      <point x="374" y="534" type="line" smooth="yes"/>
      <point x="374" y="602"/>
      <point x="403" y="627"/>
      <point x="459" y="627" type="curve" smooth="yes"/>
      <point x="469" y="627"/>
      <point x="479" y="626"/>
      <point x="492" y="624" type="curve"/>
      <point x="492" y="752" type="line"/>
      <point x="478" y="755"/>
      <point x="456" y="757"/>
      <point x="439" y="757" type="curve" smooth="yes"/>
      <point x="306" y="757"/>
      <point x="224" y="687"/>
      <point x="224" y="545" type="curve" smooth="yes"/>
      <point x="224" y="438" type="line"/>
      <point x="107" y="438" type="line"/>
      <point x="107" y="308" type="line"/>
      <point x="224" y="308" type="line"/>
      <point x="224" y="211" type="line" smooth="yes"/>
      <point x="224" y="143"/>
      <point x="195" y="118"/>
      <point x="139" y="118" type="curve" smooth="yes"/>
      <point x="129" y="118"/>
      <point x="119" y="119"/>
      <point x="106" y="121" type="curve"/>
      <point x="106" y="-7" type="line"/>
      <point x="120" y="-10"/>
      <point x="142" y="-12"/>
    </contour>
  </outline>
</glyph>
<glyph name="Ohorn" format="2">
  <advance width="878"/>
  <unicode hex="01A0"/>
  <anchor x="439" y="0" name="bottom"/>
  <anchor x="439" y="373" name="center"/>
  <anchor x="439" y="745" name="top"/>
  <outline>
    <contour>
      <point x="439" y="-12" type="curve" smooth="yes"/>
      <point x="664" y="-12"/>
      <point x="834" y="154"/>
      <point x="834" y="373" type="curve" smooth="yes"/>
      <point x="834" y="503"/>
      <point x="775" y="614"/>
      <point x="679" y="683" type="curve"/>
      <point x="644" y="654" type="line"/>
      <point x="732" y="654" type="line" smooth="yes"/>
      <point x="781" y="654"/>
      <point x="815" y="697"/>
      <point x="815" y="793" type="curve" smooth="yes"/>
      <point x="815" y="829"/>
      <point x="805" y="854"/>
      <point x="792" y="882" type="curve"/>
      <point x="666" y="882" type="line"/>
      <point x="676" y="857"/>
      <point x="686" y="827"/>
      <point x="686" y="806" type="curve" smooth="yes"/>
      <point x="686" y="754"/>
      <point x="651" y="757"/>
      <point x="639" y="757" type="curve" smooth="yes"/>
      <point x="439" y="757" type="line" smooth="yes"/>
      <point x="213" y="757"/>
      <point x="44" y="592"/>
      <point x="44" y="373" type="curve" smooth="yes"/>
      <point x="44" y="154"/>
      <point x="214" y="-12"/>
    </contour>
    <contour>
      <point x="439" y="128" type="curve" smooth="yes"/>
      <point x="303" y="128"/>
      <point x="199" y="229"/>
      <point x="199" y="373" type="curve" smooth="yes"/>
      <point x="199" y="517"/>
      <point x="303" y="617"/>
      <point x="439" y="617" type="curve" smooth="yes"/>
      <point x="575" y="617"/>
      <point x="679" y="517"/>
      <point x="679" y="373" type="curve" smooth="yes"/>
      <point x="679" y="229"/>
      <point x="575" y="128"/>
    </contour>
  </outline>
</glyph>
<glyph name="ohorn" format="2">
  <advance width="651"/>
  <unicode hex="01A1"/>
  <anchor x="326" y="0" name="bottom"/>
  <anchor x="326" y="273" name="center"/>
  <anchor x="326" y="41" name="ogonek"/>
  <anchor x="326" y="546" name="top"/>
  <anchor x="631" y="546" name="topright"/>
  <outline>
    <contour>
      <point x="326" y="-12" type="curve" smooth="yes"/>
      <point x="487" y="-12"/>
      <point x="618" y="108"/>
      <point x="618" y="273" type="curve" smooth="yes"/>
      <point x="618" y="370"/>
      <point x="573" y="451"/>
      <point x="505" y="501" type="curve"/>
      <point x="494" y="457" type="line"/>
      <point x="561" y="471"/>
      <point x="606" y="513"/>
      <point x="606" y="594" type="curve" smooth="yes"/>
      <point x="606" y="630"/>
      <point x="596" y="655"/>
      <point x="583" y="683" type="curve"/>
      <point x="457" y="683" type="line"/>
      <point x="467" y="658"/>
      <point x="477" y="628"/>
      <point x="477" y="607" type="curve" smooth="yes"/>
      <point x="477" y="555"/>
      <point x="442" y="558"/>
      <point x="430" y="558" type="curve" smooth="yes"/>
      <point x="326" y="558" type="line" smooth="yes"/>
      <point x="164" y="558"/>
      <point x="33" y="438"/>
      <point x="33" y="273" type="curve" smooth="yes"/>
      <point x="33" y="108"/>
      <point x="164" y="-12"/>
    </contour>
    <contour>
      <point x="326" y="123" type="curve" smooth="yes"/>
      <point x="244" y="123"/>
      <point x="188" y="185"/>
      <point x="188" y="273" type="curve" smooth="yes"/>
      <point x="188" y="360"/>
      <point x="244" y="423"/>
      <point x="326" y="423" type="curve" smooth="yes"/>
      <point x="407" y="423"/>
      <point x="463" y="360"/>
      <point x="463" y="273" type="curve" smooth="yes"/>
      <point x="463" y="185"/>
      <point x="407" y="123"/>
    </contour>
  </outline>
</glyph>
<glyph name="Uhorn" format="2">
  <advance width="724"/>
  <unicode hex="01AF"/>
  <anchor x="362" y="0" name="bottom"/>
  <anchor x="652" y="10" name="ogonek"/>
  <anchor x="362" y="745" name="top"/>
  <outline>
    <contour>
      <point x="362" y="-12" type="curve" smooth="yes"/>
      <point x="538" y="-12"/>
      <point x="667" y="109"/>
      <point x="667" y="273" type="curve" smooth="yes"/>
      <point x="667" y="642" type="line"/>
      <point x="674" y="642" type="line" smooth="yes"/>
      <point x="764" y="642"/>
      <point x="817" y="685"/>
      <point x="817" y="781" type="curve" smooth="yes"/>
      <point x="817" y="817"/>
      <point x="807" y="842"/>
      <point x="794" y="870" type="curve"/>
      <point x="668" y="870" type="line"/>
      <point x="678" y="845"/>
      <point x="688" y="815"/>
      <point x="688" y="794" type="curve" smooth="yes"/>
      <point x="688" y="750"/>
      <point x="663" y="745"/>
      <point x="648" y="745" type="curve" smooth="yes"/>
      <point x="512" y="745" type="line"/>
      <point x="512" y="283" type="line" smooth="yes"/>
      <point x="512" y="194"/>
      <point x="449" y="128"/>
      <point x="362" y="128" type="curve" smooth="yes"/>
      <point x="275" y="128"/>
      <point x="212" y="194"/>
      <point x="212" y="283" type="curve" smooth="yes"/>
      <point x="212" y="745" type="line"/>
      <point x="57" y="745" type="line"/>
      <point x="57" y="273" type="line" smooth="yes"/>
      <point x="57" y="109"/>
      <point x="186" y="-12"/>
    </contour>
  </outline>
</glyph>
<glyph name="uhorn" format="2">
  <advance width="681"/>
  <unicode hex="01B0"/>
  <anchor x="300" y="0" name="bottom"/>
  <anchor x="498" y="41" name="ogonek"/>
  <anchor x="300" y="546" name="top"/>
  <anchor x="579" y="546" name="topright"/>
  <outline>
    <contour>
      <point x="251" y="-12" type="curve" smooth="yes"/>
      <point x="320" y="-12"/>
      <point x="376" y="13"/>
      <point x="404" y="66" type="curve"/>
      <point x="404" y="0" type="line"/>
      <point x="544" y="0" type="line"/>
      <point x="544" y="514" type="line"/>
      <point x="489" y="444" type="line"/>
      <point x="597" y="434"/>
      <point x="674" y="475"/>
      <point x="674" y="582" type="curve" smooth="yes"/>
      <point x="674" y="618"/>
      <point x="664" y="643"/>
      <point x="651" y="671" type="curve"/>
      <point x="525" y="671" type="line"/>
      <point x="535" y="646"/>
      <point x="545" y="616"/>
      <point x="545" y="595" type="curve" smooth="yes"/>
      <point x="545" y="551"/>
      <point x="520" y="546"/>
      <point x="505" y="546" type="curve" smooth="yes"/>
      <point x="394" y="546" type="line"/>
      <point x="394" y="227" type="line" smooth="yes"/>
      <point x="394" y="164"/>
      <point x="353" y="123"/>
      <point x="294" y="123" type="curve" smooth="yes"/>
      <point x="235" y="123"/>
      <point x="194" y="164"/>
      <point x="194" y="227" type="curve" smooth="yes"/>
      <point x="194" y="546" type="line"/>
      <point x="44" y="546" type="line"/>
      <point x="44" y="215" type="line" smooth="yes"/>
      <point x="44" y="79"/>
      <point x="118" y="-12"/>
    </contour>
  </outline>
</glyph>
<glyph name="jdotless" format="2">
  <advance width="260"/>
  <unicode hex="0237"/>
  <anchor x="130" y="-240" name="bottom"/>
  <anchor x="130" y="546" name="top"/>
  <outline>
    <contour>
      <point x="-11" y="-222" type="curve" smooth="yes"/>
      <point x="125" y="-222"/>
      <point x="205" y="-149"/>
      <point x="205" y="-20" type="curve" smooth="yes"/>
      <point x="205" y="546" type="line"/>
      <point x="55" y="546" type="line"/>
      <point x="55" y="-20" type="line" smooth="yes"/>
      <point x="55" y="-68"/>
      <point x="26" y="-92"/>
      <point x="-31" y="-92" type="curve" smooth="yes"/>
      <point x="-43" y="-92"/>
      <point x="-54" y="-91"/>
      <point x="-65" y="-89" type="curve"/>
      <point x="-65" y="-217" type="line"/>
      <point x="-52" y="-220"/>
      <point x="-31" y="-222"/>
    </contour>
  </outline>
</glyph>
<glyph name="schwa" format="2">
  <advance width="611"/>
  <unicode hex="0259"/>
  <outline>
    <contour>
      <point x="303" y="-12" type="curve" smooth="yes"/>
      <point x="459" y="-12"/>
      <point x="578" y="109"/>
      <point x="578" y="272" type="curve" smooth="yes"/>
      <point x="578" y="430"/>
      <point x="466" y="558"/>
      <point x="293" y="558" type="curve" smooth="yes"/>
      <point x="181" y="558"/>
      <point x="91" y="505"/>
      <point x="58" y="425" type="curve"/>
      <point x="178" y="368" type="line"/>
      <point x="199" y="405"/>
      <point x="238" y="428"/>
      <point x="291" y="428" type="curve" smooth="yes"/>
      <point x="379" y="428"/>
      <point x="431" y="365"/>
      <point x="423" y="273" type="curve"/>
      <point x="430" y="167"/>
      <point x="381" y="108"/>
      <point x="303" y="108" type="curve" smooth="yes"/>
      <point x="224" y="108"/>
      <point x="176" y="172"/>
      <point x="196" y="257" type="curve"/>
      <point x="125" y="205" type="line"/>
      <point x="449" y="205" type="line"/>
      <point x="449" y="315" type="line"/>
      <point x="40" y="315" type="line"/>
      <point x="35" y="300"/>
      <point x="33" y="279"/>
      <point x="33" y="257" type="curve" smooth="yes"/>
      <point x="33" y="106"/>
      <point x="130" y="-12"/>
    </contour>
  </outline>
</glyph>
<glyph name="gravecomb" format="2">
  <advance width="509"/>
  <unicode hex="0300"/>
  <anchor x="306" y="546" name="_top"/>
  <outline>
    <contour>
      <point x="380" y="640" type="line"/>
      <point x="322" y="820" type="line"/>
      <point x="129" y="820" type="line"/>
      <point x="233" y="640" type="line"/>
    </contour>
  </outline>
</glyph>
<glyph name="acutecomb" format="2">
  <advance width="509"/>
  <unicode hex="0301"/>
  <anchor x="203" y="546" name="_top"/>
  <outline>
    <contour>
      <point x="276" y="640" type="line"/>
      <point x="380" y="820" type="line"/>
      <point x="187" y="820" type="line"/>
      <point x="129" y="640" type="line"/>
    </contour>
  </outline>
</glyph>
<glyph name="circumflexcomb" format="2">
  <advance width="670"/>
  <unicode hex="0302"/>
  <anchor x="335" y="546" name="_top"/>
  <outline>
    <contour>
      <point x="273" y="640" type="line"/>
      <point x="335" y="730" type="line"/>
      <point x="397" y="640" type="line"/>
      <point x="541" y="640" type="line"/>
      <point x="424" y="810" type="line"/>
      <point x="245" y="810" type="line"/>
      <point x="129" y="640" type="line"/>
    </contour>
  </outline>
</glyph>
<glyph name="macroncomb" format="2">
  <advance width="598"/>
  <unicode hex="0304"/>
  <anchor x="299" y="546" name="_top"/>
  <outline>
    <contour>
      <point x="469" y="660" type="line"/>
      <point x="469" y="780" type="line"/>
      <point x="129" y="780" type="line"/>
      <point x="129" y="660" type="line"/>
    </contour>
  </outline>
</glyph>
<glyph name="brevecomb" format="2">
  <advance width="688"/>
  <unicode hex="0306"/>
  <anchor x="344" y="541" name="_top"/>
  <outline>
    <contour>
      <point x="344" y="640" type="curve" smooth="yes"/>
      <point x="493" y="640"/>
      <point x="556" y="724"/>
      <point x="559" y="810" type="curve"/>
      <point x="412" y="810" type="line"/>
      <point x="409" y="775"/>
      <point x="385" y="755"/>
      <point x="344" y="755" type="curve" smooth="yes"/>
      <point x="304" y="755"/>
      <point x="280" y="775"/>
      <point x="277" y="810" type="curve"/>
      <point x="129" y="810" type="line"/>
      <point x="132" y="728"/>
      <point x="196" y="640"/>
    </contour>
  </outline>
</glyph>
<glyph name="dotaccentcomb" format="2">
  <advance width="408"/>
  <unicode hex="0307"/>
  <anchor x="204" y="546" name="_top"/>
  <outline>
    <contour>
      <point x="279" y="640" type="line"/>
      <point x="279" y="790" type="line"/>
      <point x="129" y="790" type="line"/>
      <point x="129" y="640" type="line"/>
    </contour>
  </outline>
</glyph>
<glyph name="dieresiscomb" format="2">
  <advance width="638"/>
  <unicode hex="0308"/>
  <anchor x="319" y="546" name="_top"/>
  <outline>
    <contour>
      <point x="279" y="640" type="line"/>
      <point x="279" y="790" type="line"/>
      <point x="129" y="790" type="line"/>
      <point x="129" y="640" type="line"/>
    </contour>
    <contour>
      <point x="509" y="640" type="line"/>
      <point x="509" y="790" type="line"/>
      <point x="359" y="790" type="line"/>
      <point x="359" y="640" type="line"/>
    </contour>
  </outline>
</glyph>
<glyph name="hookabovecomb" format="2">
  <advance width="515"/>
  <unicode hex="0309"/>
  <anchor x="258" y="546" name="_top"/>
  <outline>
    <contour>
      <point x="268" y="600" type="line"/>
      <point x="342" y="638"/>
      <point x="386" y="689"/>
      <point x="386" y="747" type="curve" smooth="yes"/>
      <point x="386" y="826"/>
      <point x="322" y="876"/>
      <point x="222" y="876" type="curve" smooth="yes"/>
      <point x="184" y="876"/>
      <point x="152" y="869"/>
      <point x="129" y="859" type="curve"/>
      <point x="145" y="766" type="line"/>
      <point x="159" y="772"/>
      <point x="179" y="774"/>
      <point x="195" y="774" type="curve" smooth="yes"/>
      <point x="232" y="774"/>
      <point x="254" y="758"/>
      <point x="254" y="733" type="curve" smooth="yes"/>
      <point x="254" y="709"/>
      <point x="243" y="693"/>
      <point x="204" y="672" type="curve"/>
    </contour>
  </outline>
</glyph>
<glyph name="ringcomb" format="2">
  <advance width="517"/>
  <unicode hex="030A"/>
  <anchor x="259" y="546" name="_top"/>
  <outline>
    <contour>
      <point x="259" y="590" type="curve" smooth="yes"/>
      <point x="334" y="590"/>
      <point x="388" y="643"/>
      <point x="388" y="716" type="curve" smooth="yes"/>
      <point x="388" y="788"/>
      <point x="334" y="840"/>
      <point x="259" y="840" type="curve" smooth="yes"/>
      <point x="184" y="840"/>
      <point x="129" y="788"/>
      <point x="129" y="716" type="curve" smooth="yes"/>
      <point x="129" y="643"/>
      <point x="184" y="590"/>
    </contour>
    <contour>
      <point x="259" y="677" type="curve" smooth="yes"/>
      <point x="236" y="677"/>
      <point x="220" y="693"/>
      <point x="220" y="716" type="curve" smooth="yes"/>
      <point x="220" y="739"/>
      <point x="236" y="755"/>
      <point x="259" y="755" type="curve" smooth="yes"/>
      <point x="281" y="755"/>
      <point x="297" y="739"/>
      <point x="297" y="716" type="curve" smooth="yes"/>
      <point x="297" y="693"/>
      <point x="281" y="677"/>
    </contour>
  </outline>
</glyph>
<glyph name="hungarumlautcomb" format="2">
  <advance width="731"/>
  <unicode hex="030B"/>
  <anchor x="324" y="546" name="_top"/>
  <outline>
    <contour>
      <point x="276" y="640" type="line"/>
      <point x="360" y="820" type="line"/>
      <point x="167" y="820" type="line"/>
      <point x="129" y="640" type="line"/>
    </contour>
    <contour>
      <point x="518" y="640" type="line"/>
      <point x="602" y="820" type="line"/>
      <point x="409" y="820" type="line"/>
      <point x="371" y="640" type="line"/>
    </contour>
  </outline>
</glyph>
<glyph name="caroncomb" format="2">
  <advance width="670"/>
  <unicode hex="030C"/>
  <anchor x="335" y="546" name="_top"/>
  <outline>
    <contour>
      <point x="424" y="640" type="line"/>
      <point x="541" y="810" type="line"/>
      <point x="397" y="810" type="line"/>
      <point x="335" y="720" type="line"/>
      <point x="273" y="810" type="line"/>
      <point x="129" y="810" type="line"/>
      <point x="245" y="640" type="line"/>
    </contour>
  </outline>
</glyph>
<glyph name="dblgravecomb" format="2">
  <advance width="751"/>
  <unicode hex="030F"/>
  <anchor x="428" y="546" name="_top"/>
  <outline>
    <contour>
      <point x="380" y="640" type="line"/>
      <point x="322" y="824" type="line"/>
      <point x="129" y="824" type="line"/>
      <point x="233" y="640" type="line"/>
    </contour>
    <contour>
      <point x="622" y="640" type="line"/>
      <point x="564" y="824" type="line"/>
      <point x="371" y="824" type="line"/>
      <point x="475" y="640" type="line"/>
    </contour>
  </outline>
</glyph>
<glyph name="breveinvertedcomb" format="2">
  <advance width="688"/>
  <unicode hex="0311"/>
  <anchor x="344" y="546" name="_top"/>
  <outline>
    <contour>
      <point x="277" y="640" type="line"/>
      <point x="280" y="675"/>
      <point x="304" y="695"/>
      <point x="344" y="695" type="curve" smooth="yes"/>
      <point x="385" y="695"/>
      <point x="409" y="675"/>
      <point x="412" y="640" type="curve"/>
      <point x="559" y="640" type="line"/>
      <point x="556" y="726"/>
      <point x="493" y="810"/>
      <point x="344" y="810" type="curve" smooth="yes"/>
      <point x="196" y="810"/>
      <point x="132" y="722"/>
      <point x="129" y="640" type="curve"/>
    </contour>
  </outline>
</glyph>
<glyph name="commaturnedabovecomb" format="2">
  <advance width="475"/>
  <unicode hex="0312"/>
  <anchor x="250" y="540" name="_top"/>
  <outline>
    <contour>
      <point x="322" y="600" type="line"/>
      <point x="346" y="793" type="line"/>
      <point x="204" y="793" type="line"/>
      <point x="129" y="600" type="line"/>
    </contour>
  </outline>
</glyph>
<glyph name="horncomb" format="2">
  <advance width="438"/>
  <unicode hex="031B"/>
  <outline>
    <contour>
      <point x="156" y="640" type="line" smooth="yes"/>
      <point x="246" y="640"/>
      <point x="309" y="683"/>
      <point x="309" y="779" type="curve" smooth="yes"/>
      <point x="309" y="815"/>
      <point x="299" y="840"/>
      <point x="286" y="868" type="curve"/>
      <point x="160" y="868" type="line"/>
      <point x="170" y="843"/>
      <point x="180" y="813"/>
      <point x="180" y="792" type="curve" smooth="yes"/>
      <point x="180" y="740"/>
      <point x="145" y="743"/>
      <point x="133" y="743" type="curve" smooth="yes"/>
      <point x="129" y="743" type="line"/>
      <point x="129" y="640" type="line"/>
    </contour>
  </outline>
</glyph>
<glyph name="dotbelowcomb" format="2">
  <advance width="408"/>
  <unicode hex="0323"/>
  <anchor x="204" y="0" name="_bottom"/>
  <outline>
    <contour>
      <point x="279" y="-240" type="line"/>
      <point x="279" y="-90" type="line"/>
      <point x="129" y="-90" type="line"/>
      <point x="129" y="-240" type="line"/>
    </contour>
  </outline>
</glyph>
<glyph name="dieresisbelowcomb" format="2">
  <advance width="638"/>
  <unicode hex="0324"/>
  <anchor x="319" y="0" name="_bottom"/>
  <outline>
    <contour>
      <point x="279" y="-240" type="line"/>
      <point x="279" y="-90" type="line"/>
      <point x="129" y="-90" type="line"/>
      <point x="129" y="-240" type="line"/>
    </contour>
    <contour>
      <point x="509" y="-240" type="line"/>
      <point x="509" y="-90" type="line"/>
      <point x="359" y="-90" type="line"/>
      <point x="359" y="-240" type="line"/>
    </contour>
  </outline>
</glyph>
<glyph name="commaaccentcomb" format="2">
  <advance width="475"/>
  <unicode hex="0326"/>
  <anchor x="249" y="0" name="_bottom"/>
  <outline>
    <contour>
      <point x="271" y="-263" type="line"/>
      <point x="346" y="-70" type="line"/>
      <point x="153" y="-70" type="line"/>
      <point x="129" y="-263" type="line"/>
    </contour>
  </outline>
</glyph>
<glyph name="cedillacomb" format="2">
  <advance width="519"/>
  <unicode hex="0327"/>
  <anchor x="236" y="0" name="_bottom"/>
  <outline>
    <contour>
      <point x="246" y="-240" type="curve" smooth="yes"/>
      <point x="334" y="-240"/>
      <point x="390" y="-195"/>
      <point x="390" y="-124" type="curve" smooth="yes"/>
      <point x="390" y="-72"/>
      <point x="345" y="-35"/>
      <point x="275" y="-28" type="curve"/>
      <point x="283" y="10" type="line"/>
      <point x="198" y="10" type="line"/>
      <point x="178" y="-68" type="line"/>
      <point x="238" y="-73"/>
      <point x="271" y="-88"/>
      <point x="271" y="-112" type="curve" smooth="yes"/>
      <point x="271" y="-132"/>
      <point x="255" y="-144"/>
      <point x="226" y="-144" type="curve" smooth="yes"/>
      <point x="204" y="-144"/>
      <point x="180" y="-137"/>
      <point x="160" y="-125" type="curve"/>
      <point x="129" y="-208" type="line"/>
      <point x="161" y="-229"/>
      <point x="211" y="-240"/>
    </contour>
  </outline>
</glyph>
<glyph name="ogonekcomb" format="2">
  <advance width="512"/>
  <unicode hex="0328"/>
  <anchor x="302" y="0" name="_ogonek"/>
  <outline>
    <contour>
      <point x="276" y="-240" type="curve" smooth="yes"/>
      <point x="322" y="-240"/>
      <point x="354" y="-227"/>
      <point x="383" y="-208" type="curve"/>
      <point x="352" y="-125" type="line"/>
      <point x="335" y="-138"/>
      <point x="322" y="-144"/>
      <point x="300" y="-144" type="curve" smooth="yes"/>
      <point x="276" y="-144"/>
      <point x="248" y="-127"/>
      <point x="248" y="-92" type="curve" smooth="yes"/>
      <point x="248" y="-45"/>
      <point x="274" y="-8"/>
      <point x="316" y="0" type="curve"/>
      <point x="316" y="45" type="line"/>
      <point x="287" y="45" type="line"/>
      <point x="174" y="29"/>
      <point x="129" y="-38"/>
      <point x="129" y="-114" type="curve" smooth="yes"/>
      <point x="129" y="-185"/>
      <point x="188" y="-240"/>
    </contour>
  </outline>
</glyph>
<glyph name="brevebelowcomb" format="2">
  <advance width="688"/>
  <unicode hex="032E"/>
  <anchor x="344" y="0" name="_bottom"/>
  <outline>
    <contour>
      <point x="344" y="-260" type="curve" smooth="yes"/>
      <point x="493" y="-260"/>
      <point x="556" y="-176"/>
      <point x="559" y="-90" type="curve"/>
      <point x="412" y="-90" type="line"/>
      <point x="409" y="-125"/>
      <point x="385" y="-145"/>
      <point x="344" y="-145" type="curve" smooth="yes"/>
      <point x="304" y="-145"/>
      <point x="280" y="-125"/>
      <point x="277" y="-90" type="curve"/>
      <point x="129" y="-90" type="line"/>
      <point x="132" y="-172"/>
      <point x="196" y="-260"/>
    </contour>
  </outline>
</glyph>
<glyph name="macronbelowcomb" format="2">
  <advance width="598"/>
  <unicode hex="0331"/>
  <anchor x="299" y="0" name="_bottom"/>
  <outline>
    <contour>
      <point x="469" y="-220" type="line"/>
      <point x="469" y="-100" type="line"/>
      <point x="129" y="-100" type="line"/>
      <point x="129" y="-220" type="line"/>
    </contour>
  </outline>
</glyph>
<glyph name="strokeshortcomb" format="2">
  <advance width="458"/>
  <unicode hex="0335"/>
  <anchor x="229" y="265" name="_center"/>
  <outline>
    <contour>
      <point x="379" y="210" type="line"/>
      <point x="379" y="320" type="line"/>
      <point x="79" y="320" type="line"/>
      <point x="79" y="210" type="line"/>
    </contour>
  </outline>
</glyph>
<glyph name="strokelongcomb" format="2">
  <advance width="908"/>
  <unicode hex="0336"/>
  <anchor x="454" y="353" name="_center"/>
  <outline>
    <contour>
      <point x="829" y="288" type="line"/>
      <point x="829" y="418" type="line"/>
      <point x="79" y="418" type="line"/>
      <point x="79" y="288" type="line"/>
    </contour>
  </outline>
</glyph>
<glyph name="slashshortcomb" format="2">
  <advance width="400"/>
  <unicode hex="0337"/>
  <anchor x="200" y="364" name="_center"/>
  <outline>
    <contour>
      <point x="355" y="381" type="line"/>
      <point x="355" y="525" type="line"/>
      <point x="45" y="347" type="line"/>
      <point x="45" y="203" type="line"/>
    </contour>
  </outline>
</glyph>
<glyph name="slashlongcomb" format="2">
  <advance width="544"/>
  <unicode hex="0338"/>
  <anchor x="325" y="273" name="_center"/>
  <outline>
    <contour>
      <point x="173" y="0" type="line"/>
      <point x="642" y="546" type="line"/>
      <point x="477" y="546" type="line"/>
      <point x="8" y="0" type="line"/>
    </contour>
  </outline>
</glyph>
<glyph name="Delta" format="2">
  <advance width="640"/>
  <unicode hex="0394"/>
  <outline>
    <contour>
      <point x="629" y="0" type="line"/>
      <point x="629" y="135" type="line"/>
      <point x="423" y="745" type="line"/>
      <point x="217" y="745" type="line"/>
      <point x="11" y="135" type="line"/>
      <point x="11" y="0" type="line"/>
    </contour>
    <contour>
      <point x="341" y="638" type="line"/>
      <point x="299" y="638" type="line"/>
      <point x="483" y="71" type="line"/>
      <point x="529" y="135" type="line"/>
      <point x="110" y="135" type="line"/>
      <point x="156" y="71" type="line"/>
    </contour>
  </outline>
</glyph>
<glyph name="Omega" format="2">
  <advance width="878"/>
  <unicode hex="03A9"/>
  <outline>
    <contour>
      <point x="363" y="0" type="line"/>
      <point x="363" y="135" type="line"/>
      <point x="266" y="165"/>
      <point x="199" y="257"/>
      <point x="199" y="373" type="curve" smooth="yes"/>
      <point x="199" y="517"/>
      <point x="303" y="617"/>
      <point x="439" y="617" type="curve" smooth="yes"/>
      <point x="575" y="617"/>
      <point x="679" y="517"/>
      <point x="679" y="373" type="curve" smooth="yes"/>
      <point x="679" y="257"/>
      <point x="612" y="165"/>
      <point x="515" y="135" type="curve"/>
      <point x="515" y="0" type="line"/>
      <point x="834" y="0" type="line"/>
      <point x="834" y="135" type="line"/>
      <point x="663" y="135" type="line"/>
      <point x="695" y="106" type="line"/>
      <point x="781" y="167"/>
      <point x="834" y="267"/>
      <point x="834" y="373" type="curve" smooth="yes"/>
      <point x="834" y="592"/>
      <point x="665" y="757"/>
      <point x="439" y="757" type="curve" smooth="yes"/>
      <point x="213" y="757"/>
      <point x="44" y="592"/>
      <point x="44" y="373" type="curve" smooth="yes"/>
      <point x="44" y="267"/>
      <point x="97" y="167"/>
      <point x="183" y="106" type="curve"/>
      <point x="215" y="135" type="line"/>
      <point x="44" y="135" type="line"/>
      <point x="44" y="0" type="line"/>
    </contour>
  </outline>
</glyph>
<glyph name="pi" format="2">
  <advance width="694"/>
  <unicode hex="03C0"/>
  <outline>
    <contour>
      <point x="258" y="0" type="line"/>
      <point x="258" y="416" type="line"/>
      <point x="438" y="416" type="line"/>
      <point x="438" y="0" type="line"/>
      <point x="588" y="0" type="line"/>
      <point x="588" y="416" type="line"/>
      <point x="676" y="416" type="line"/>
      <point x="676" y="546" type="line"/>
      <point x="18" y="546" type="line"/>
      <point x="18" y="416" type="line"/>
      <point x="108" y="416" type="line"/>
      <point x="108" y="0" type="line"/>
    </contour>
  </outline>
</glyph>
<glyph name="Djecyr" format="2">
  <advance width="778"/>
  <unicode hex="0402"/>
  <anchor x="356" y="-240" name="bottom"/>
  <anchor x="121" y="640" name="center"/>
  <anchor x="356" y="546" name="top"/>
  <outline>
    <contour>
      <point x="305" y="745" type="line"/>
      <point x="150" y="745" type="line"/>
      <point x="150" y="0" type="line"/>
      <point x="305" y="0" type="line"/>
      <point x="305" y="300" type="line"/>
      <point x="341" y="324"/>
      <point x="387" y="336"/>
      <point x="431.029" y="336" type="curve" smooth="yes"/>
      <point x="520" y="336"/>
      <point x="571" y="287"/>
      <point x="571" y="194.894" type="curve" smooth="yes"/>
      <point x="571" y="101"/>
      <point x="518" y="44"/>
      <point x="415" y="19" type="curve"/>
      <point x="453" y="-130" type="line"/>
      <point x="633" y="-93"/>
      <point x="726" y="23"/>
      <point x="726" y="199.657" type="curve" smooth="yes"/>
      <point x="726" y="381"/>
      <point x="628" y="480"/>
      <point x="456.939" y="480" type="curve" smooth="yes"/>
      <point x="382" y="480"/>
      <point x="320" y="461"/>
      <point x="264" y="425" type="curve"/>
      <point x="305" y="368" type="line"/>
    </contour>
    <contour>
      <point x="305" y="0" type="line"/>
      <point x="305" y="610" type="line"/>
      <point x="571" y="610" type="line"/>
      <point x="571" y="745" type="line"/>
      <point x="11" y="745" type="line"/>
      <point x="11" y="610" type="line"/>
      <point x="150" y="610" type="line"/>
      <point x="150" y="0" type="line"/>
    </contour>
  </outline>
</glyph>
<glyph name="Ljecyr" format="2">
  <advance width="1060"/>
  <unicode hex="0409"/>
  <outline>
    <contour>
      <point x="11" y="-6" type="line"/>
      <point x="218" y="-21"/>
      <point x="289" y="79"/>
      <point x="296" y="415" type="curve" smooth="yes"/>
      <point x="300" y="610" type="line"/>
      <point x="476" y="610" type="line"/>
      <point x="476" y="0" type="line"/>
      <point x="770" y="0" type="line" smooth="yes"/>
      <point x="920" y="0"/>
      <point x="1027" y="82"/>
      <point x="1027" y="235" type="curve" smooth="yes"/>
      <point x="1027" y="385"/>
      <point x="918" y="468"/>
      <point x="771" y="468" type="curve" smooth="yes"/>
      <point x="631" y="468" type="line"/>
      <point x="631" y="745" type="line"/>
      <point x="151" y="745" type="line"/>
      <point x="145" y="431" type="line" smooth="yes"/>
      <point x="141" y="199"/>
      <point x="110" y="136"/>
      <point x="11" y="143" type="curve"/>
    </contour>
    <contour>
      <point x="631" y="135" type="line"/>
      <point x="631" y="333" type="line"/>
      <point x="768" y="333" type="line" smooth="yes"/>
      <point x="830" y="333"/>
      <point x="872" y="293"/>
      <point x="872" y="235" type="curve" smooth="yes"/>
      <point x="872" y="175"/>
      <point x="830" y="135"/>
      <point x="768" y="135" type="curve" smooth="yes"/>
    </contour>
  </outline>
</glyph>
<glyph name="Njecyr" format="2">
  <advance width="1059"/>
  <unicode hex="040A"/>
  <outline>
    <contour>
      <point x="475" y="0" type="line"/>
      <point x="769" y="0" type="line" smooth="yes"/>
      <point x="919" y="0"/>
      <point x="1026" y="82"/>
      <point x="1026" y="235" type="curve" smooth="yes"/>
      <point x="1026" y="385"/>
      <point x="917" y="468"/>
      <point x="770" y="468" type="curve" smooth="yes"/>
      <point x="630" y="468" type="line"/>
      <point x="630" y="745" type="line"/>
      <point x="475" y="745" type="line"/>
      <point x="475" y="468" type="line"/>
      <point x="221" y="468" type="line"/>
      <point x="221" y="745" type="line"/>
      <point x="66" y="745" type="line"/>
      <point x="66" y="0" type="line"/>
      <point x="221" y="0" type="line"/>
      <point x="221" y="333" type="line"/>
      <point x="475" y="333" type="line"/>
    </contour>
    <contour>
      <point x="630" y="135" type="line"/>
      <point x="630" y="333" type="line"/>
      <point x="767" y="333" type="line" smooth="yes"/>
      <point x="829" y="333"/>
      <point x="871" y="293"/>
      <point x="871" y="235" type="curve" smooth="yes"/>
      <point x="871" y="175"/>
      <point x="829" y="135"/>
      <point x="767" y="135" type="curve" smooth="yes"/>
    </contour>
  </outline>
</glyph>
<glyph name="Tshecyr" format="2">
  <advance width="775"/>
  <unicode hex="040B"/>
  <outline>
    <contour>
      <point x="305" y="745" type="line"/>
      <point x="150" y="745" type="line"/>
      <point x="150" y="0" type="line"/>
      <point x="305" y="0" type="line"/>
      <point x="305" y="300" type="line"/>
      <point x="341" y="324"/>
      <point x="387" y="336"/>
      <point x="435.341" y="336" type="curve" smooth="yes"/>
      <point x="535" y="336"/>
      <point x="568" y="285"/>
      <point x="568" y="187" type="curve" smooth="yes"/>
      <point x="568" y="0" type="line"/>
      <point x="723" y="0" type="line"/>
      <point x="723" y="215" type="line" smooth="yes"/>
      <point x="723" y="391"/>
      <point x="634" y="480"/>
      <point x="461.638" y="480" type="curve" smooth="yes"/>
      <point x="382" y="480"/>
      <point x="320" y="461"/>
      <point x="264" y="425" type="curve"/>
      <point x="305" y="368" type="line"/>
    </contour>
    <contour>
      <point x="305" y="0" type="line"/>
      <point x="305" y="610" type="line"/>
      <point x="571" y="610" type="line"/>
      <point x="571" y="745" type="line"/>
      <point x="11" y="745" type="line"/>
      <point x="11" y="610" type="line"/>
      <point x="150" y="610" type="line"/>
      <point x="150" y="0" type="line"/>
    </contour>
  </outline>
</glyph>
<glyph name="Dzhecyr" format="2">
  <advance width="726"/>
  <unicode hex="040F"/>
  <outline>
    <contour>
      <point x="221" y="745" type="line"/>
      <point x="66" y="745" type="line"/>
      <point x="66" y="0" type="line"/>
      <point x="286" y="0" type="line"/>
      <point x="286" y="-164" type="line"/>
      <point x="440" y="-164" type="line"/>
      <point x="440" y="0" type="line"/>
      <point x="660" y="0" type="line"/>
      <point x="660" y="745" type="line"/>
      <point x="505" y="745" type="line"/>
      <point x="505" y="135" type="line"/>
      <point x="221" y="135" type="line"/>
    </contour>
  </outline>
</glyph>
<glyph name="Becyr" format="2">
  <advance width="649"/>
  <unicode hex="0411"/>
  <outline>
    <contour>
      <point x="66" y="0" type="line"/>
      <point x="352" y="0" type="line" smooth="yes"/>
      <point x="506" y="0"/>
      <point x="616" y="80"/>
      <point x="616" y="232" type="curve" smooth="yes"/>
      <point x="616" y="381"/>
      <point x="504" y="463"/>
      <point x="352" y="463" type="curve" smooth="yes"/>
      <point x="221" y="463" type="line"/>
      <point x="221" y="610" type="line"/>
      <point x="540" y="610" type="line"/>
      <point x="540" y="745" type="line"/>
      <point x="66" y="745" type="line"/>
    </contour>
    <contour>
      <point x="221" y="135" type="line"/>
      <point x="221" y="328" type="line"/>
      <point x="353" y="328" type="line" smooth="yes"/>
      <point x="418" y="328"/>
      <point x="461" y="289"/>
      <point x="461" y="232" type="curve" smooth="yes"/>
      <point x="461" y="174"/>
      <point x="418" y="135"/>
      <point x="353" y="135" type="curve" smooth="yes"/>
    </contour>
  </outline>
</glyph>
<glyph name="Gecyr" format="2">
  <advance width="502"/>
  <unicode hex="0413"/>
  <outline>
    <contour>
      <point x="221" y="0" type="line"/>
      <point x="221" y="610" type="line"/>
      <point x="491" y="610" type="line"/>
      <point x="491" y="745" type="line"/>
      <point x="66" y="745" type="line"/>
      <point x="66" y="0" type="line"/>
    </contour>
  </outline>
</glyph>
<glyph name="Decyr" format="2">
  <advance width="792"/>
  <unicode hex="0414"/>
  <outline>
    <contour>
      <point x="180" y="-164" type="line"/>
      <point x="180" y="0" type="line"/>
      <point x="612" y="0" type="line"/>
      <point x="612" y="-164" type="line"/>
      <point x="766" y="-164" type="line"/>
      <point x="766" y="135" type="line"/>
      <point x="670" y="135" type="line"/>
      <point x="670" y="745" type="line"/>
      <point x="157" y="745" type="line"/>
      <point x="151" y="511" type="line" smooth="yes"/>
      <point x="146" y="308"/>
      <point x="125" y="199"/>
      <point x="85" y="135" type="curve"/>
      <point x="26" y="135" type="line"/>
      <point x="26" y="-164" type="line"/>
    </contour>
    <contour>
      <point x="247" y="135" type="line"/>
      <point x="283" y="222"/>
      <point x="298" y="329"/>
      <point x="302" y="497" type="curve" smooth="yes"/>
      <point x="305" y="610" type="line"/>
      <point x="515" y="610" type="line"/>
      <point x="515" y="135" type="line"/>
    </contour>
  </outline>
</glyph>
<glyph name="Zhecyr" format="2">
  <advance width="1043"/>
  <unicode hex="0416"/>
  <anchor x="712" y="0" name="bottom"/>
  <anchor x="712" y="745" name="top"/>
  <outline>
    <contour>
      <point x="599" y="0" type="line"/>
      <point x="599" y="223" type="line"/>
      <point x="678" y="324" type="line"/>
      <point x="852" y="0" type="line"/>
      <point x="1032" y="0" type="line"/>
      <point x="782" y="443" type="line"/>
      <point x="1025" y="745" type="line"/>
      <point x="837" y="745" type="line"/>
      <point x="599" y="441" type="line"/>
      <point x="599" y="745" type="line"/>
      <point x="444" y="745" type="line"/>
      <point x="444" y="441" type="line"/>
      <point x="206" y="745" type="line"/>
      <point x="18" y="745" type="line"/>
      <point x="262" y="442" type="line"/>
      <point x="11" y="0" type="line"/>
      <point x="191" y="0" type="line"/>
      <point x="365" y="324" type="line"/>
      <point x="444" y="223" type="line"/>
      <point x="444" y="0" type="line"/>
    </contour>
  </outline>
</glyph>
<glyph name="Zecyr" format="2">
  <advance width="628"/>
  <unicode hex="0417"/>
  <outline>
    <contour>
      <point x="313" y="-12" type="curve" smooth="yes"/>
      <point x="482" y="-12"/>
      <point x="595" y="81"/>
      <point x="595" y="216" type="curve" smooth="yes"/>
      <point x="595" y="305"/>
      <point x="545" y="374"/>
      <point x="473" y="395" type="curve"/>
      <point x="471" y="364" type="line"/>
      <point x="542" y="393"/>
      <point x="584" y="456"/>
      <point x="584" y="537" type="curve" smooth="yes"/>
      <point x="584" y="666"/>
      <point x="479" y="757"/>
      <point x="316" y="757" type="curve" smooth="yes"/>
      <point x="178" y="757"/>
      <point x="72" y="690"/>
      <point x="31" y="574" type="curve"/>
      <point x="159" y="517" type="line"/>
      <point x="186" y="585"/>
      <point x="240" y="623"/>
      <point x="315" y="623" type="curve" smooth="yes"/>
      <point x="388" y="623"/>
      <point x="433" y="586"/>
      <point x="433" y="530" type="curve" smooth="yes"/>
      <point x="433" y="481"/>
      <point x="398" y="449"/>
      <point x="347" y="449" type="curve" smooth="yes"/>
      <point x="212" y="449" type="line"/>
      <point x="212" y="307" type="line"/>
      <point x="353" y="307" type="line" smooth="yes"/>
      <point x="405" y="307"/>
      <point x="444" y="272"/>
      <point x="444" y="220" type="curve" smooth="yes"/>
      <point x="444" y="161"/>
      <point x="392" y="122"/>
      <point x="311" y="122" type="curve" smooth="yes"/>
      <point x="226" y="122"/>
      <point x="168" y="165"/>
      <point x="140" y="248" type="curve"/>
      <point x="11" y="191" type="line"/>
      <point x="56" y="61"/>
      <point x="164" y="-12"/>
    </contour>
  </outline>
</glyph>
<glyph name="Icyr" format="2">
  <advance width="742"/>
  <unicode hex="0418"/>
  <anchor x="371" y="0" name="bottom"/>
  <anchor x="371" y="745" name="top"/>
  <outline>
    <contour>
      <point x="521" y="0" type="line"/>
      <point x="521" y="556" type="line"/>
      <point x="579" y="541" type="line"/>
      <point x="186" y="0" type="line"/>
      <point x="66" y="0" type="line"/>
      <point x="66" y="745" type="line"/>
      <point x="221" y="745" type="line"/>
      <point x="221" y="193" type="line"/>
      <point x="157" y="208" type="line"/>
      <point x="557" y="745" type="line"/>
      <point x="676" y="745" type="line"/>
      <point x="676" y="0" type="line"/>
    </contour>
  </outline>
</glyph>
<glyph name="Elcyr" format="2">
  <advance width="729"/>
  <unicode hex="041B"/>
  <outline>
    <contour>
      <point x="11" y="-6" type="line"/>
      <point x="218" y="-21"/>
      <point x="290" y="79"/>
      <point x="299" y="415" type="curve" smooth="yes"/>
      <point x="304" y="610" type="line"/>
      <point x="508" y="610" type="line"/>
      <point x="508" y="0" type="line"/>
      <point x="663" y="0" type="line"/>
      <point x="663" y="745" type="line"/>
      <point x="155" y="745" type="line"/>
      <point x="147" y="431" type="line" smooth="yes"/>
      <point x="141" y="199"/>
      <point x="110" y="136"/>
      <point x="11" y="143" type="curve"/>
    </contour>
  </outline>
</glyph>
<glyph name="Pecyr" format="2">
  <advance width="732"/>
  <unicode hex="041F"/>
  <outline>
    <contour>
      <point x="221" y="0" type="line"/>
      <point x="221" y="610" type="line"/>
      <point x="511" y="610" type="line"/>
      <point x="511" y="0" type="line"/>
      <point x="666" y="0" type="line"/>
      <point x="666" y="745" type="line"/>
      <point x="66" y="745" type="line"/>
      <point x="66" y="0" type="line"/>
    </contour>
  </outline>
</glyph>
<glyph name="Ucyr" format="2">
  <advance width="666"/>
  <unicode hex="0423"/>
  <anchor x="305" y="0" name="bottom"/>
  <anchor x="352" y="745" name="top"/>
  <outline>
    <contour>
      <point x="170.401" y="-12" type="curve" smooth="yes"/>
      <point x="291" y="-12"/>
      <point x="359" y="47"/>
      <point x="430" y="215" type="curve" smooth="yes"/>
      <point x="655" y="745" type="line"/>
      <point x="482" y="745" type="line"/>
      <point x="322" y="348" type="line"/>
      <point x="353" y="348" type="line"/>
      <point x="184" y="745" type="line"/>
      <point x="11" y="745" type="line"/>
      <point x="279" y="170" type="line"/>
      <point x="295" y="281" type="line"/>
      <point x="277" y="233" type="line" smooth="yes"/>
      <point x="248" y="155"/>
      <point x="210" y="126"/>
      <point x="143.416" y="126" type="curve" smooth="yes"/>
      <point x="122" y="126"/>
      <point x="104" y="129"/>
      <point x="87" y="134" type="curve"/>
      <point x="87" y="0" type="line"/>
      <point x="113" y="-8"/>
      <point x="139" y="-12"/>
    </contour>
  </outline>
</glyph>
<glyph name="Efcyr" format="2">
  <advance width="937"/>
  <unicode hex="0424"/>
  <anchor x="428" y="0" name="bottom"/>
  <anchor x="427" y="373" name="center"/>
  <anchor x="455" y="0" name="ogonek"/>
  <anchor x="428" y="745" name="top"/>
  <anchor x="846" y="745" name="topright"/>
  <outline>
    <contour>
      <point x="411" y="54" type="line"/>
      <point x="411" y="192" type="line"/>
      <point x="395" y="192" type="line" smooth="yes"/>
      <point x="271" y="192"/>
      <point x="199" y="275"/>
      <point x="199" y="379" type="curve" smooth="yes"/>
      <point x="199" y="482"/>
      <point x="271" y="565"/>
      <point x="395" y="565" type="curve" smooth="yes"/>
      <point x="411" y="565" type="line"/>
      <point x="411" y="703" type="line"/>
      <point x="395" y="703" type="line" smooth="yes"/>
      <point x="187" y="703"/>
      <point x="44" y="576"/>
      <point x="44" y="379" type="curve" smooth="yes"/>
      <point x="44" y="182"/>
      <point x="187" y="54"/>
      <point x="395" y="54" type="curve" smooth="yes"/>
    </contour>
    <contour>
      <point x="544" y="-20" type="line"/>
      <point x="544" y="765" type="line"/>
      <point x="393" y="765" type="line"/>
      <point x="393" y="-20" type="line"/>
    </contour>
    <contour>
      <point x="526" y="54" type="line"/>
      <point x="542" y="54" type="line" smooth="yes"/>
      <point x="750" y="54"/>
      <point x="893" y="182"/>
      <point x="893" y="379" type="curve" smooth="yes"/>
      <point x="893" y="576"/>
      <point x="750" y="703"/>
      <point x="542" y="703" type="curve" smooth="yes"/>
      <point x="526" y="703" type="line"/>
      <point x="526" y="565" type="line"/>
      <point x="542" y="565" type="line" smooth="yes"/>
      <point x="666" y="565"/>
      <point x="738" y="482"/>
      <point x="738" y="379" type="curve" smooth="yes"/>
      <point x="738" y="275"/>
      <point x="666" y="192"/>
      <point x="542" y="192" type="curve" smooth="yes"/>
      <point x="526" y="192" type="line"/>
    </contour>
  </outline>
</glyph>
<glyph name="Tsecyr" format="2">
  <advance width="782"/>
  <unicode hex="0426"/>
  <outline>
    <contour>
      <point x="221" y="745" type="line"/>
      <point x="66" y="745" type="line"/>
      <point x="66" y="0" type="line"/>
      <point x="602" y="0" type="line"/>
      <point x="602" y="-164" type="line"/>
      <point x="756" y="-164" type="line"/>
      <point x="756" y="135" type="line"/>
      <point x="660" y="135" type="line"/>
      <point x="660" y="745" type="line"/>
      <point x="505" y="745" type="line"/>
      <point x="505" y="135" type="line"/>
      <point x="221" y="135" type="line"/>
    </contour>
  </outline>
</glyph>
<glyph name="Checyr" format="2">
  <advance width="701"/>
  <unicode hex="0427"/>
  <outline>
    <contour>
      <point x="480" y="0" type="line"/>
      <point x="635" y="0" type="line"/>
      <point x="635" y="745" type="line"/>
      <point x="480" y="745" type="line"/>
      <point x="480" y="415" type="line"/>
      <point x="443" y="391"/>
      <point x="395" y="379"/>
      <point x="344.699" y="379" type="curve" smooth="yes"/>
      <point x="241" y="379"/>
      <point x="207" y="430"/>
      <point x="207" y="528" type="curve" smooth="yes"/>
      <point x="207" y="745" type="line"/>
      <point x="52" y="745" type="line"/>
      <point x="52" y="500" type="line" smooth="yes"/>
      <point x="52" y="324"/>
      <point x="143" y="235"/>
      <point x="318.782" y="235" type="curve" smooth="yes"/>
      <point x="400" y="235"/>
      <point x="464" y="254"/>
      <point x="521" y="290" type="curve"/>
      <point x="480" y="347" type="line"/>
    </contour>
  </outline>
</glyph>
<glyph name="Shacyr" format="2">
  <advance width="977"/>
  <unicode hex="0428"/>
  <outline>
    <contour>
      <point x="221" y="745" type="line"/>
      <point x="66" y="745" type="line"/>
      <point x="66" y="0" type="line"/>
      <point x="911" y="0" type="line"/>
      <point x="911" y="745" type="line"/>
      <point x="756" y="745" type="line"/>
      <point x="756" y="135" type="line"/>
      <point x="566" y="135" type="line"/>
      <point x="566" y="745" type="line"/>
      <point x="411" y="745" type="line"/>
      <point x="411" y="135" type="line"/>
      <point x="221" y="135" type="line"/>
    </contour>
  </outline>
</glyph>
<glyph name="Hardcyr" format="2">
  <advance width="733"/>
  <unicode hex="042A"/>
  <anchor x="409" y="0" name="bottom"/>
  <anchor x="409" y="745" name="top"/>
  <outline>
    <contour>
      <point x="305" y="745" type="line"/>
      <point x="11" y="745" type="line"/>
      <point x="11" y="610" type="line"/>
      <point x="150" y="610" type="line"/>
      <point x="150" y="0" type="line"/>
      <point x="439" y="0" type="line" smooth="yes"/>
      <point x="591" y="0"/>
      <point x="700" y="84"/>
      <point x="700" y="243" type="curve" smooth="yes"/>
      <point x="700" y="399"/>
      <point x="589" y="485"/>
      <point x="439" y="485" type="curve" smooth="yes"/>
      <point x="305" y="485" type="line"/>
    </contour>
    <contour>
      <point x="305" y="135" type="line"/>
      <point x="305" y="350" type="line"/>
      <point x="437" y="350" type="line" smooth="yes"/>
      <point x="502" y="350"/>
      <point x="545" y="307"/>
      <point x="545" y="243" type="curve" smooth="yes"/>
      <point x="545" y="178"/>
      <point x="502" y="135"/>
      <point x="437" y="135" type="curve" smooth="yes"/>
    </contour>
  </outline>
</glyph>
<glyph name="Ylongcyr" format="2">
  <advance width="907"/>
  <unicode hex="042B"/>
  <anchor x="325" y="0" name="bottom"/>
  <anchor x="325" y="745" name="top"/>
  <anchor x="771" y="0" name="ogonek"/>
  <outline>
    <contour>
      <point x="841" y="0" type="line"/>
      <point x="841" y="745" type="line"/>
      <point x="686" y="745" type="line"/>
      <point x="686" y="0" type="line"/>
    </contour>
    <contour>
      <point x="221" y="745" type="line"/>
      <point x="66" y="745" type="line"/>
      <point x="66" y="0" type="line"/>
      <point x="355" y="0" type="line" smooth="yes"/>
      <point x="507" y="0"/>
      <point x="616" y="84"/>
      <point x="616" y="243" type="curve" smooth="yes"/>
      <point x="616" y="399"/>
      <point x="505" y="485"/>
      <point x="355" y="485" type="curve" smooth="yes"/>
      <point x="221" y="485" type="line"/>
    </contour>
    <contour>
      <point x="221" y="135" type="line"/>
      <point x="221" y="350" type="line"/>
      <point x="353" y="350" type="line" smooth="yes"/>
      <point x="418" y="350"/>
      <point x="461" y="307"/>
      <point x="461" y="243" type="curve" smooth="yes"/>
      <point x="461" y="178"/>
      <point x="418" y="135"/>
      <point x="353" y="135" type="curve" smooth="yes"/>
    </contour>
  </outline>
</glyph>
<glyph name="Softcyr" format="2">
  <advance width="649"/>
  <unicode hex="042C"/>
  <anchor x="325" y="0" name="bottom"/>
  <anchor x="325" y="745" name="top"/>
  <outline>
    <contour>
      <point x="221" y="745" type="line"/>
      <point x="66" y="745" type="line"/>
      <point x="66" y="0" type="line"/>
      <point x="355" y="0" type="line" smooth="yes"/>
      <point x="507" y="0"/>
      <point x="616" y="84"/>
      <point x="616" y="243" type="curve" smooth="yes"/>
      <point x="616" y="399"/>
      <point x="505" y="485"/>
      <point x="355" y="485" type="curve" smooth="yes"/>
      <point x="221" y="485" type="line"/>
    </contour>
    <contour>
      <point x="221" y="135" type="line"/>
      <point x="221" y="350" type="line"/>
      <point x="353" y="350" type="line" smooth="yes"/>
      <point x="418" y="350"/>
      <point x="461" y="307"/>
      <point x="461" y="243" type="curve" smooth="yes"/>
      <point x="461" y="178"/>
      <point x="418" y="135"/>
      <point x="353" y="135" type="curve" smooth="yes"/>
    </contour>
  </outline>
</glyph>
<glyph name="Ereversedcyr" format="2">
  <advance width="772"/>
  <unicode hex="042D"/>
  <outline>
    <component base="C" xScale="-1" xOffset="772"/>
    <contour>
      <point x="249" y="308" type="line"/>
      <point x="676" y="308" type="line"/>
      <point x="676" y="443" type="line"/>
      <point x="249" y="443" type="line"/>
    </contour>
  </outline>
</glyph>
<glyph name="Yucyr" format="2">
  <advance width="1165"/>
  <unicode hex="042E"/>
  <outline>
    <contour>
      <point x="221" y="0" type="line"/>
      <point x="221" y="301" type="line"/>
      <point x="406" y="301" type="line"/>
      <point x="406" y="436" type="line"/>
      <point x="221" y="436" type="line"/>
      <point x="221" y="745" type="line"/>
      <point x="66" y="745" type="line"/>
      <point x="66" y="0" type="line"/>
    </contour>
    <contour>
      <point x="739" y="-12" type="curve" smooth="yes"/>
      <point x="956" y="-12"/>
      <point x="1121" y="154"/>
      <point x="1121" y="373" type="curve" smooth="yes"/>
      <point x="1121" y="592"/>
      <point x="957" y="757"/>
      <point x="739" y="757" type="curve" smooth="yes"/>
      <point x="520" y="757"/>
      <point x="356" y="592"/>
      <point x="356" y="373" type="curve" smooth="yes"/>
      <point x="356" y="154"/>
      <point x="521" y="-12"/>
    </contour>
    <contour>
      <point x="739" y="128" type="curve" smooth="yes"/>
      <point x="610" y="128"/>
      <point x="511" y="229"/>
      <point x="511" y="373" type="curve" smooth="yes"/>
      <point x="511" y="517"/>
      <point x="610" y="617"/>
      <point x="739" y="617" type="curve" smooth="yes"/>
      <point x="867" y="617"/>
      <point x="966" y="517"/>
      <point x="966" y="373" type="curve" smooth="yes"/>
      <point x="966" y="229"/>
      <point x="867" y="128"/>
    </contour>
  </outline>
</glyph>
<glyph name="becyr" format="2">
  <advance width="654"/>
  <unicode hex="0431"/>
  <outline>
    <contour>
      <point x="370" y="749" type="line" smooth="yes"/>
      <point x="145" y="734"/>
      <point x="44" y="612"/>
      <point x="44" y="355" type="curve" smooth="yes"/>
      <point x="44" y="332" type="line" smooth="yes"/>
      <point x="44" y="108"/>
      <point x="163" y="-12"/>
      <point x="337" y="-12" type="curve" smooth="yes"/>
      <point x="506" y="-12"/>
      <point x="621" y="102"/>
      <point x="621" y="263" type="curve" smooth="yes"/>
      <point x="621" y="420"/>
      <point x="511" y="529"/>
      <point x="360" y="529" type="curve" smooth="yes"/>
      <point x="262" y="529"/>
      <point x="188" y="483"/>
      <point x="156" y="405" type="curve"/>
      <point x="175" y="381" type="line"/>
      <point x="175" y="545"/>
      <point x="227" y="604"/>
      <point x="377" y="614" type="curve" smooth="yes"/>
      <point x="574" y="627" type="line"/>
      <point x="569" y="762" type="line"/>
    </contour>
    <contour>
      <point x="333" y="399" type="curve" smooth="yes"/>
      <point x="411" y="399"/>
      <point x="466" y="343"/>
      <point x="466" y="262" type="curve" smooth="yes"/>
      <point x="466" y="180"/>
      <point x="411" y="123"/>
      <point x="333" y="123" type="curve" smooth="yes"/>
      <point x="257" y="123"/>
      <point x="205" y="180"/>
      <point x="205" y="262" type="curve" smooth="yes"/>
      <point x="205" y="343"/>
      <point x="257" y="399"/>
    </contour>
  </outline>
</glyph>
<glyph name="vecyr" format="2">
  <advance width="572"/>
  <unicode hex="0432"/>
  <outline>
    <contour>
      <point x="530" y="169" type="curve" smooth="yes"/>
      <point x="530" y="75"/>
      <point x="460" y="0"/>
      <point x="335" y="0" type="curve" smooth="yes"/>
      <point x="65" y="0" type="line"/>
      <point x="65" y="546" type="line"/>
      <point x="315" y="546" type="line" smooth="yes"/>
      <point x="440" y="546"/>
      <point x="510" y="478"/>
      <point x="510" y="394" type="curve" smooth="yes"/>
      <point x="510" y="347"/>
      <point x="488" y="307"/>
      <point x="450" y="282" type="curve"/>
      <point x="451" y="297" type="line"/>
      <point x="497" y="275"/>
      <point x="530" y="231"/>
    </contour>
    <contour>
      <point x="203" y="430" type="line"/>
      <point x="203" y="336" type="line"/>
      <point x="320" y="336" type="line" smooth="yes"/>
      <point x="356" y="336"/>
      <point x="372" y="360"/>
      <point x="372" y="383" type="curve" smooth="yes"/>
      <point x="372" y="407"/>
      <point x="356" y="430"/>
      <point x="320" y="430" type="curve" smooth="yes"/>
    </contour>
    <contour>
      <point x="203" y="116" type="line"/>
      <point x="328" y="116" type="line" smooth="yes"/>
      <point x="372" y="116"/>
      <point x="392" y="144"/>
      <point x="392" y="174" type="curve" smooth="yes"/>
      <point x="392" y="204"/>
      <point x="372" y="232"/>
      <point x="328" y="232" type="curve" smooth="yes"/>
      <point x="203" y="232" type="line"/>
    </contour>
  </outline>
</glyph>
<glyph name="gecyr" format="2">
  <advance width="411"/>
  <unicode hex="0433"/>
  <outline>
    <contour>
      <point x="55" y="0" type="line"/>
      <point x="205" y="0" type="line"/>
      <point x="205" y="416" type="line"/>
      <point x="400" y="416" type="line"/>
      <point x="400" y="546" type="line"/>
      <point x="55" y="546" type="line"/>
    </contour>
  </outline>
</glyph>
<glyph name="decyr" format="2">
  <advance width="662"/>
  <unicode hex="0434"/>
  <outline>
    <contour>
      <point x="22" y="-132" type="line"/>
      <point x="168" y="-132" type="line"/>
      <point x="168" y="0" type="line"/>
      <point x="494" y="0" type="line"/>
      <point x="494" y="-132" type="line"/>
      <point x="640" y="-132" type="line"/>
      <point x="640" y="130" type="line"/>
      <point x="560" y="130" type="line"/>
      <point x="560" y="546" type="line"/>
      <point x="125" y="546" type="line"/>
      <point x="117" y="355" type="line" smooth="yes"/>
      <point x="113" y="264"/>
      <point x="100" y="178"/>
      <point x="78" y="130" type="curve"/>
      <point x="22" y="130" type="line"/>
    </contour>
    <contour>
      <point x="228" y="130" type="line"/>
      <point x="241" y="176"/>
      <point x="253" y="257"/>
      <point x="256" y="321" type="curve" smooth="yes"/>
      <point x="260" y="416" type="line"/>
      <point x="410" y="416" type="line"/>
      <point x="410" y="130" type="line"/>
    </contour>
  </outline>
</glyph>
<glyph name="zhecyr" format="2">
  <advance width="892"/>
  <unicode hex="0436"/>
  <outline>
    <contour>
      <point x="371" y="0" type="line"/>
      <point x="521" y="0" type="line"/>
      <point x="521" y="170" type="line"/>
      <point x="573" y="231" type="line"/>
      <point x="712" y="0" type="line"/>
      <point x="880" y="0" type="line"/>
      <point x="684" y="324" type="line"/>
      <point x="881" y="546" type="line"/>
      <point x="702" y="546" type="line"/>
      <point x="521" y="347" type="line"/>
      <point x="521" y="546" type="line"/>
      <point x="371" y="546" type="line"/>
      <point x="371" y="347" type="line"/>
      <point x="190" y="546" type="line"/>
      <point x="11" y="546" type="line"/>
      <point x="208" y="324" type="line"/>
      <point x="12" y="0" type="line"/>
      <point x="180" y="0" type="line"/>
      <point x="319" y="231" type="line"/>
      <point x="371" y="170" type="line"/>
    </contour>
  </outline>
</glyph>
<glyph name="zecyr" format="2">
  <advance width="513"/>
  <unicode hex="0437"/>
  <outline>
    <contour>
      <point x="181" y="219" type="line"/>
      <point x="278" y="219" type="line" smooth="yes"/>
      <point x="321" y="219"/>
      <point x="347" y="200"/>
      <point x="347" y="168" type="curve" smooth="yes"/>
      <point x="347" y="130"/>
      <point x="309" y="105"/>
      <point x="252" y="105" type="curve" smooth="yes"/>
      <point x="190" y="105"/>
      <point x="149" y="134"/>
      <point x="130" y="190" type="curve"/>
      <point x="20" y="136" type="line"/>
      <point x="55" y="41"/>
      <point x="140" y="-12"/>
      <point x="258" y="-12" type="curve" smooth="yes"/>
      <point x="392" y="-12"/>
      <point x="480" y="57"/>
      <point x="480" y="163" type="curve" smooth="yes"/>
      <point x="480" y="242"/>
      <point x="432" y="282"/>
      <point x="371" y="291" type="curve"/>
      <point x="373" y="266" type="line"/>
      <point x="421" y="277"/>
      <point x="470" y="314"/>
      <point x="470" y="392" type="curve" smooth="yes"/>
      <point x="470" y="495"/>
      <point x="384" y="558"/>
      <point x="260" y="558" type="curve" smooth="yes"/>
      <point x="150" y="558"/>
      <point x="72" y="508"/>
      <point x="33" y="417" type="curve"/>
      <point x="145" y="370" type="line"/>
      <point x="162" y="418"/>
      <point x="199" y="442"/>
      <point x="254" y="442" type="curve" smooth="yes"/>
      <point x="306" y="442"/>
      <point x="338" y="421"/>
      <point x="338" y="386" type="curve" smooth="yes"/>
      <point x="338" y="354"/>
      <point x="312" y="334"/>
      <point x="271" y="334" type="curve" smooth="yes"/>
      <point x="181" y="334" type="line"/>
    </contour>
  </outline>
</glyph>
<glyph name="icyr" format="2">
  <advance width="614"/>
  <unicode hex="0438"/>
  <anchor x="300" y="546" name="top"/>
  <outline>
    <contour>
      <point x="559" y="546" type="line"/>
      <point x="559" y="0" type="line"/>
      <point x="409" y="0" type="line"/>
      <point x="409" y="339" type="line"/>
      <point x="438" y="339" type="line"/>
      <point x="181" y="0" type="line"/>
      <point x="55" y="0" type="line"/>
      <point x="55" y="546" type="line"/>
      <point x="205" y="546" type="line"/>
      <point x="205" y="207" type="line"/>
      <point x="176" y="207" type="line"/>
      <point x="433" y="546" type="line"/>
    </contour>
  </outline>
</glyph>
<glyph name="kacyr" format="2">
  <advance width="586"/>
  <unicode hex="043A"/>
  <outline>
    <contour>
      <point x="205" y="0" type="line"/>
      <point x="205" y="204" type="line"/>
      <point x="159" y="117" type="line"/>
      <point x="326" y="299" type="line"/>
      <point x="239" y="277" type="line"/>
      <point x="404" y="0" type="line"/>
      <point x="574" y="0" type="line"/>
      <point x="377" y="326" type="line"/>
      <point x="575" y="546" type="line"/>
      <point x="390" y="546" type="line"/>
      <point x="149" y="290" type="line"/>
      <point x="205" y="272" type="line"/>
      <point x="205" y="546" type="line"/>
      <point x="55" y="546" type="line"/>
      <point x="55" y="0" type="line"/>
    </contour>
  </outline>
</glyph>
<glyph name="elcyr" format="2">
  <advance width="604"/>
  <unicode hex="043B"/>
  <outline>
    <contour>
      <point x="250" y="274" type="curve" smooth="yes"/>
      <point x="255" y="416" type="line"/>
      <point x="399" y="416" type="line"/>
      <point x="399" y="0" type="line"/>
      <point x="549" y="0" type="line"/>
      <point x="549" y="546" type="line"/>
      <point x="120" y="546" type="line"/>
      <point x="111" y="303" type="line" smooth="yes"/>
      <point x="106" y="171"/>
      <point x="83" y="123"/>
      <point x="8" y="134" type="curve"/>
      <point x="8" y="-4" type="line"/>
      <point x="180" y="-21"/>
      <point x="242" y="60"/>
    </contour>
  </outline>
</glyph>
<glyph name="emcyr" format="2">
  <advance width="722"/>
  <unicode hex="043C"/>
  <outline>
    <contour>
      <point x="205" y="0" type="line"/>
      <point x="205" y="394" type="line"/>
      <point x="146" y="394" type="line"/>
      <point x="350" y="131" type="line"/>
      <point x="372" y="131" type="line"/>
      <point x="576" y="394" type="line"/>
      <point x="517" y="394" type="line"/>
      <point x="517" y="0" type="line"/>
      <point x="667" y="0" type="line"/>
      <point x="667" y="546" type="line"/>
      <point x="521" y="546" type="line"/>
      <point x="329" y="286" type="line"/>
      <point x="393" y="286" type="line"/>
      <point x="201" y="546" type="line"/>
      <point x="55" y="546" type="line"/>
      <point x="55" y="0" type="line"/>
    </contour>
  </outline>
</glyph>
<glyph name="encyr" format="2">
  <advance width="609"/>
  <unicode hex="043D"/>
  <outline>
    <contour>
      <point x="554" y="546" type="line"/>
      <point x="554" y="0" type="line"/>
      <point x="404" y="0" type="line"/>
      <point x="404" y="202" type="line"/>
      <point x="205" y="202" type="line"/>
      <point x="205" y="0" type="line"/>
      <point x="55" y="0" type="line"/>
      <point x="55" y="546" type="line"/>
      <point x="205" y="546" type="line"/>
      <point x="205" y="332" type="line"/>
      <point x="404" y="332" type="line"/>
      <point x="404" y="546" type="line"/>
    </contour>
  </outline>
</glyph>
<glyph name="pecyr" format="2">
  <advance width="604"/>
  <unicode hex="043F"/>
  <outline>
    <contour>
      <point x="205" y="0" type="line"/>
      <point x="205" y="416" type="line"/>
      <point x="399" y="416" type="line"/>
      <point x="399" y="0" type="line"/>
      <point x="549" y="0" type="line"/>
      <point x="549" y="546" type="line"/>
      <point x="55" y="546" type="line"/>
      <point x="55" y="0" type="line"/>
    </contour>
  </outline>
</glyph>
<glyph name="tecyr" format="2">
  <advance width="464"/>
  <unicode hex="0442"/>
  <outline>
    <contour>
      <point x="307" y="0" type="line"/>
      <point x="307" y="416" type="line"/>
      <point x="453" y="416" type="line"/>
      <point x="453" y="546" type="line"/>
      <point x="11" y="546" type="line"/>
      <point x="11" y="416" type="line"/>
      <point x="157" y="416" type="line"/>
      <point x="157" y="0" type="line"/>
    </contour>
  </outline>
</glyph>
<glyph name="efcyr" format="2">
  <advance width="802"/>
  <unicode hex="0444"/>
  <outline>
    <contour>
      <point x="326" y="-11" type="curve"/>
      <point x="326" y="-200" type="line"/>
      <point x="476" y="-200" type="line"/>
      <point x="476" y="-11" type="line"/>
      <point x="649" y="0"/>
      <point x="769" y="105"/>
      <point x="769" y="273" type="curve" smooth="yes"/>
      <point x="769" y="441"/>
      <point x="649" y="546"/>
      <point x="476" y="557" type="curve"/>
      <point x="476" y="757" type="line"/>
      <point x="326" y="757" type="line"/>
      <point x="326" y="557" type="line"/>
      <point x="153" y="546"/>
      <point x="33" y="441"/>
      <point x="33" y="273" type="curve" smooth="yes"/>
      <point x="33" y="105"/>
      <point x="153" y="0"/>
    </contour>
    <contour>
      <point x="476" y="124" type="curve"/>
      <point x="476" y="422" type="line"/>
      <point x="558" y="419"/>
      <point x="614" y="359"/>
      <point x="614" y="273" type="curve" smooth="yes"/>
      <point x="614" y="187"/>
      <point x="558" y="127"/>
    </contour>
    <contour>
      <point x="326" y="124" type="line"/>
      <point x="244" y="127"/>
      <point x="188" y="187"/>
      <point x="188" y="273" type="curve" smooth="yes"/>
      <point x="188" y="359"/>
      <point x="244" y="419"/>
      <point x="326" y="422" type="curve"/>
    </contour>
  </outline>
</glyph>
<glyph name="tsecyr" format="2">
  <advance width="647"/>
  <unicode hex="0446"/>
  <outline>
    <contour>
      <point x="205" y="546" type="line"/>
      <point x="55" y="546" type="line"/>
      <point x="55" y="0" type="line"/>
      <point x="479" y="0" type="line"/>
      <point x="479" y="-132" type="line"/>
      <point x="625" y="-132" type="line"/>
      <point x="625" y="130" type="line"/>
      <point x="545" y="130" type="line"/>
      <point x="545" y="546" type="line"/>
      <point x="395" y="546" type="line"/>
      <point x="395" y="130" type="line"/>
      <point x="205" y="130" type="line"/>
    </contour>
  </outline>
</glyph>
<glyph name="checyr" format="2">
  <advance width="579"/>
  <unicode hex="0447"/>
  <anchor x="290" y="0" name="bottom"/>
  <anchor x="514" y="0" name="ogonek"/>
  <anchor x="290" y="546" name="top"/>
  <anchor x="569" y="546" name="topright"/>
  <outline>
    <contour>
      <point x="252.372" y="167" type="curve" smooth="yes"/>
      <point x="309" y="167"/>
      <point x="364" y="179"/>
      <point x="410" y="203" type="curve"/>
      <point x="374" y="252" type="line"/>
      <point x="374" y="0" type="line"/>
      <point x="524" y="0" type="line"/>
      <point x="524" y="546" type="line"/>
      <point x="374" y="546" type="line"/>
      <point x="374" y="324" type="line"/>
      <point x="350" y="309"/>
      <point x="322" y="302"/>
      <point x="289.948" y="302" type="curve" smooth="yes"/>
      <point x="227" y="302"/>
      <point x="195" y="329"/>
      <point x="195" y="385" type="curve" smooth="yes"/>
      <point x="195" y="546" type="line"/>
      <point x="45" y="546" type="line"/>
      <point x="45" y="364" type="line" smooth="yes"/>
      <point x="45" y="245"/>
      <point x="108" y="167"/>
    </contour>
  </outline>
</glyph>
<glyph name="shacyr" format="2">
  <advance width="848"/>
  <unicode hex="0448"/>
  <outline>
    <contour>
      <point x="499" y="546" type="line"/>
      <point x="349" y="546" type="line"/>
      <point x="349" y="130" type="line"/>
      <point x="205" y="130" type="line"/>
      <point x="205" y="546" type="line"/>
      <point x="55" y="546" type="line"/>
      <point x="55" y="0" type="line"/>
      <point x="793" y="0" type="line"/>
      <point x="793" y="546" type="line"/>
      <point x="643" y="546" type="line"/>
      <point x="643" y="130" type="line"/>
      <point x="499" y="130" type="line"/>
    </contour>
  </outline>
</glyph>
<glyph name="shchacyr" format="2">
  <advance width="895"/>
  <unicode hex="0449"/>
  <outline>
    <contour>
      <point x="499" y="546" type="line"/>
      <point x="349" y="546" type="line"/>
      <point x="349" y="130" type="line"/>
      <point x="205" y="130" type="line"/>
      <point x="205" y="546" type="line"/>
      <point x="55" y="546" type="line"/>
      <point x="55" y="0" type="line"/>
      <point x="727" y="0" type="line"/>
      <point x="727" y="-132" type="line"/>
      <point x="873" y="-132" type="line"/>
      <point x="873" y="130" type="line"/>
      <point x="793" y="130" type="line"/>
      <point x="793" y="546" type="line"/>
      <point x="643" y="546" type="line"/>
      <point x="643" y="130" type="line"/>
      <point x="499" y="130" type="line"/>
    </contour>
  </outline>
</glyph>
<glyph name="hardcyr" format="2">
  <advance width="620"/>
  <unicode hex="044A"/>
  <outline>
    <contour>
      <point x="121" y="0" type="line"/>
      <point x="121" y="416" type="line"/>
      <point x="11" y="416" type="line"/>
      <point x="11" y="546" type="line"/>
      <point x="259" y="546" type="line"/>
      <point x="259" y="384" type="line"/>
      <point x="373" y="384" type="line" smooth="yes"/>
      <point x="508" y="384"/>
      <point x="578" y="298"/>
      <point x="578" y="192" type="curve" smooth="yes"/>
      <point x="578" y="86"/>
      <point x="508" y="0"/>
      <point x="373" y="0" type="curve" smooth="yes"/>
    </contour>
    <contour>
      <point x="259" y="120" type="line"/>
      <point x="357" y="120" type="line" smooth="yes"/>
      <point x="417" y="120"/>
      <point x="440" y="156"/>
      <point x="440" y="192" type="curve" smooth="yes"/>
      <point x="440" y="228"/>
      <point x="417" y="264"/>
      <point x="357" y="264" type="curve" smooth="yes"/>
      <point x="259" y="264" type="line"/>
    </contour>
  </outline>
</glyph>
<glyph name="ylongcyr" format="2">
  <advance width="794"/>
  <unicode hex="044B"/>
  <outline>
    <contour>
      <point x="579" y="546" type="line"/>
      <point x="729" y="546" type="line"/>
      <point x="729" y="0" type="line"/>
      <point x="579" y="0" type="line"/>
    </contour>
    <contour>
      <point x="522" y="192" type="curve" smooth="yes"/>
      <point x="522" y="86"/>
      <point x="452" y="0"/>
      <point x="317" y="0" type="curve" smooth="yes"/>
      <point x="65" y="0" type="line"/>
      <point x="65" y="546" type="line"/>
      <point x="203" y="546" type="line"/>
      <point x="203" y="384" type="line"/>
      <point x="317" y="384" type="line" smooth="yes"/>
      <point x="452" y="384"/>
      <point x="522" y="298"/>
    </contour>
    <contour>
      <point x="203" y="120" type="line"/>
      <point x="301" y="120" type="line" smooth="yes"/>
      <point x="361" y="120"/>
      <point x="384" y="156"/>
      <point x="384" y="192" type="curve" smooth="yes"/>
      <point x="384" y="228"/>
      <point x="361" y="264"/>
      <point x="301" y="264" type="curve" smooth="yes"/>
      <point x="203" y="264" type="line"/>
    </contour>
  </outline>
</glyph>
<glyph name="softcyr" format="2">
  <advance width="564"/>
  <unicode hex="044C"/>
  <outline>
    <contour>
      <point x="522" y="192" type="curve" smooth="yes"/>
      <point x="522" y="86"/>
      <point x="452" y="0"/>
      <point x="317" y="0" type="curve" smooth="yes"/>
      <point x="65" y="0" type="line"/>
      <point x="65" y="546" type="line"/>
      <point x="203" y="546" type="line"/>
      <point x="203" y="384" type="line"/>
      <point x="317" y="384" type="line" smooth="yes"/>
      <point x="452" y="384"/>
      <point x="522" y="298"/>
    </contour>
    <contour>
      <point x="203" y="120" type="line"/>
      <point x="301" y="120" type="line" smooth="yes"/>
      <point x="361" y="120"/>
      <point x="384" y="156"/>
      <point x="384" y="192" type="curve" smooth="yes"/>
      <point x="384" y="228"/>
      <point x="361" y="264"/>
      <point x="301" y="264" type="curve" smooth="yes"/>
      <point x="203" y="264" type="line"/>
    </contour>
  </outline>
</glyph>
<glyph name="ereversedcyr" format="2">
  <advance width="611"/>
  <unicode hex="044D"/>
  <anchor x="326" y="0" name="bottom"/>
  <anchor x="326" y="273" name="center"/>
  <anchor x="376" y="0" name="ogonek"/>
  <anchor x="326" y="546" name="top"/>
  <anchor x="631" y="546" name="topright"/>
  <outline>
    <contour>
      <point x="288" y="-12" type="curve" smooth="yes"/>
      <point x="458" y="-12"/>
      <point x="578" y="111"/>
      <point x="578" y="274" type="curve" smooth="yes"/>
      <point x="578" y="436"/>
      <point x="459" y="558"/>
      <point x="288" y="558" type="curve" smooth="yes"/>
      <point x="163" y="558"/>
      <point x="66" y="493"/>
      <point x="33" y="396" type="curve"/>
      <point x="154" y="344" type="line"/>
      <point x="175" y="399"/>
      <point x="224" y="434"/>
      <point x="288" y="434" type="curve" smooth="yes"/>
      <point x="377" y="434"/>
      <point x="433" y="367"/>
      <point x="433" y="273" type="curve" smooth="yes"/>
      <point x="433" y="179"/>
      <point x="377" y="112"/>
      <point x="288" y="112" type="curve" smooth="yes"/>
      <point x="224" y="112"/>
      <point x="175" y="146"/>
      <point x="154" y="202" type="curve"/>
      <point x="33" y="149" type="line"/>
      <point x="65" y="54"/>
      <point x="163" y="-12"/>
    </contour>
    <contour>
      <point x="501" y="214" type="line"/>
      <point x="501" y="332" type="line"/>
      <point x="221" y="332" type="line"/>
      <point x="221" y="214" type="line"/>
    </contour>
  </outline>
</glyph>
<glyph name="yacyr" format="2">
  <advance width="563"/>
  <unicode hex="044F"/>
  <outline>
    <contour>
      <point x="33" y="366" type="curve" smooth="yes"/>
      <point x="33" y="468"/>
      <point x="103" y="546"/>
      <point x="228" y="546" type="curve" smooth="yes"/>
      <point x="508" y="546" type="line"/>
      <point x="508" y="0" type="line"/>
      <point x="360" y="0" type="line"/>
      <point x="360" y="184" type="line"/>
      <point x="228" y="184" type="line" smooth="yes"/>
      <point x="103" y="184"/>
      <point x="33" y="262"/>
    </contour>
    <contour>
      <point x="360" y="427" type="line"/>
      <point x="248" y="427" type="line" smooth="yes"/>
      <point x="204" y="427"/>
      <point x="181" y="398"/>
      <point x="181" y="365" type="curve" smooth="yes"/>
      <point x="181" y="332"/>
      <point x="204" y="303"/>
      <point x="248" y="303" type="curve" smooth="yes"/>
      <point x="360" y="303" type="line"/>
    </contour>
    <contour>
      <point x="144" y="222" type="line"/>
      <point x="293" y="222" type="line"/>
      <point x="167" y="0" type="line"/>
      <point x="8" y="0" type="line"/>
    </contour>
  </outline>
</glyph>
<glyph name="djecyr" format="2">
  <advance width="599"/>
  <unicode hex="0452"/>
  <anchor x="360" y="-240" name="bottom"/>
  <anchor x="130" y="640" name="center"/>
  <anchor x="360" y="546" name="top"/>
  <outline>
    <contour>
      <point x="348" y="605" type="line"/>
      <point x="348" y="701" type="line"/>
      <point x="-3" y="701" type="line"/>
      <point x="-3" y="605" type="line"/>
    </contour>
    <contour>
      <point x="205" y="0" type="line"/>
      <point x="205" y="319" type="line" smooth="yes"/>
      <point x="205" y="382"/>
      <point x="246" y="423"/>
      <point x="305" y="423" type="curve" smooth="yes"/>
      <point x="364" y="423"/>
      <point x="405" y="382"/>
      <point x="405" y="319" type="curve" smooth="yes"/>
      <point x="405" y="-20" type="line" smooth="yes"/>
      <point x="405" y="-68"/>
      <point x="376" y="-92"/>
      <point x="319" y="-92" type="curve" smooth="yes"/>
      <point x="307" y="-92"/>
      <point x="296" y="-91"/>
      <point x="285" y="-89" type="curve"/>
      <point x="285" y="-217" type="line"/>
      <point x="298" y="-220"/>
      <point x="319" y="-222"/>
      <point x="339" y="-222" type="curve" smooth="yes"/>
      <point x="475" y="-222"/>
      <point x="555" y="-149"/>
      <point x="555" y="-20" type="curve" smooth="yes"/>
      <point x="555" y="351" type="line" smooth="yes"/>
      <point x="555" y="475"/>
      <point x="471" y="558"/>
      <point x="348" y="558" type="curve" smooth="yes"/>
      <point x="286" y="558"/>
      <point x="235" y="537"/>
      <point x="205" y="495" type="curve"/>
      <point x="205" y="757" type="line"/>
      <point x="55" y="757" type="line"/>
      <point x="55" y="0" type="line"/>
    </contour>
  </outline>
</glyph>
<glyph name="yukrcyr" format="2">
  <advance width="260"/>
  <unicode hex="0457"/>
  <anchor x="130" y="0" name="bottom"/>
  <outline>
    <component base="dieresiscomb" xOffset="-189"/>
    <contour>
      <point x="205" y="0" type="line"/>
      <point x="205" y="546" type="line"/>
      <point x="55" y="546" type="line"/>
      <point x="55" y="0" type="line"/>
    </contour>
  </outline>
</glyph>
<glyph name="ljecyr" format="2">
  <advance width="852"/>
  <unicode hex="0459"/>
  <outline>
    <contour>
      <point x="375" y="0" type="line"/>
      <point x="375" y="416" type="line"/>
      <point x="252" y="416" type="line"/>
      <point x="248" y="274" type="line" smooth="yes"/>
      <point x="242" y="60"/>
      <point x="180" y="-21"/>
      <point x="8" y="-4" type="curve"/>
      <point x="8" y="134" type="line"/>
      <point x="83" y="123"/>
      <point x="109" y="171"/>
      <point x="113" y="303" type="curve" smooth="yes"/>
      <point x="120" y="546" type="line"/>
      <point x="517" y="546" type="line"/>
      <point x="517" y="356" type="line"/>
      <point x="616" y="356" type="line" smooth="yes"/>
      <point x="736" y="356"/>
      <point x="810" y="288"/>
      <point x="810" y="179" type="curve" smooth="yes"/>
      <point x="810" y="71"/>
      <point x="730" y="0"/>
      <point x="609" y="0" type="curve" smooth="yes"/>
    </contour>
    <contour>
      <point x="517" y="116" type="line"/>
      <point x="605" y="116" type="line" smooth="yes"/>
      <point x="646" y="116"/>
      <point x="672" y="141"/>
      <point x="672" y="179" type="curve" smooth="yes"/>
      <point x="672" y="216"/>
      <point x="646" y="240"/>
      <point x="605" y="240" type="curve" smooth="yes"/>
      <point x="517" y="240" type="line"/>
    </contour>
  </outline>
</glyph>
<glyph name="njecyr" format="2">
  <advance width="859"/>
  <unicode hex="045A"/>
  <outline>
    <contour>
      <point x="524" y="546" type="line"/>
      <point x="524" y="356" type="line"/>
      <point x="623" y="356" type="line" smooth="yes"/>
      <point x="743" y="356"/>
      <point x="817" y="288"/>
      <point x="817" y="179" type="curve" smooth="yes"/>
      <point x="817" y="71"/>
      <point x="737" y="0"/>
      <point x="616" y="0" type="curve" smooth="yes"/>
      <point x="382" y="0" type="line"/>
      <point x="382" y="226" type="line"/>
      <point x="205" y="226" type="line"/>
      <point x="205" y="0" type="line"/>
      <point x="55" y="0" type="line"/>
      <point x="55" y="546" type="line"/>
      <point x="205" y="546" type="line"/>
      <point x="205" y="356" type="line"/>
      <point x="382" y="356" type="line"/>
      <point x="382" y="546" type="line"/>
    </contour>
    <contour>
      <point x="524" y="116" type="line"/>
      <point x="612" y="116" type="line" smooth="yes"/>
      <point x="653" y="116"/>
      <point x="679" y="141"/>
      <point x="679" y="179" type="curve" smooth="yes"/>
      <point x="679" y="216"/>
      <point x="653" y="240"/>
      <point x="612" y="240" type="curve" smooth="yes"/>
      <point x="524" y="240" type="line"/>
    </contour>
  </outline>
</glyph>
